<svg height="511pt" viewBox="-1 0 511 511.999" width="511pt" xmlns="http://www.w3.org/2000/svg"><g fill-rule="evenodd"><path d="M255.48 467.172H21.703C8.68 467.172.914 459.937.5 450.668v45.266C.5 504.766 7.734 512 16.535 512h477.832c8.801 0 16.035-7.234 16.035-16.066v-44.235c-.914 8.77-8.593 15.473-21.113 15.473zm0 0" fill="#91561a"/><path d="M20.047 415.32L5.105 436.64C2.152 440.864.675 445.146.5 449.103v1.566c.414 9.27 8.18 16.504 21.203 16.504H489.29c12.52 0 20.2-6.703 21.113-15.473.504-4.664-.914-9.922-4.547-15.058l-14.94-21.32c-6.763-9.657-15.032-21.38-26.606-22.266-.442-.032-7.41-.059-7.883-.059-13.524 11.695-41.43 15.504-72.73 15.504h-260.15c-31.273 0-59.206-3.809-72.702-15.504-.559 0-3.895.031-4.426.059-11.43 1.035-19.637 12.668-26.371 22.265zm0 0" fill="#b5722f"/><path d="M48.66 352.895c-9.89 18.69-7.738 31.507 2.184 40.101 13.496 11.695 41.43 15.504 72.703 15.504h8.355l31.27-29.41-37.176-29.059c-28.375-22.176-57.726-8.3-77.336 2.864zm332.613-2.864l-23.18 29.145 17.274 29.324h8.328c31.297 0 59.203-3.809 72.727-15.504 9.894-8.594 12.078-21.41 2.187-40.101-19.636-11.165-42.375-11.399-77.336-2.864zm0 0" fill="#ffdda6"/><path d="M147.758 238.852c-36.645 1.949-50.492 22.207-68.121 55.515L48.66 352.895c19.61-11.165 42.344-11.399 77.336-2.864h255.277c34.961-8.535 57.7-8.3 77.336 2.864l-31.004-58.528c-17.628-33.308-31.449-53.535-68.093-55.515-8.27-.414-15.266-1.446-21.559-3.66l-169.05.117c-6.204 2.156-13.051 3.129-21.145 3.543zm0 0" fill="#64b0d9"/><path d="M343.004 107.977c-24.688 18.574-16.3 33.843-1.477 42.347 11.723.176 24.805-11.902 24.805-23.742v-9.242c0-5.168-4.223-9.363-9.363-9.363zm-208.445 18.605c0 11.84 13.082 23.918 24.777 23.742l18.777-23.12-20.226-19.227h-13.965c-5.14 0-9.363 4.195-9.363 9.363zm0 0" fill="#eda93b"/><path d="M378.262 379.824l-2.895 28.676h8.328c31.297 0 59.203-3.813 72.727-15.504 8.504-7.383 11.312-17.867 5.672-32.543-1.094 1.39-2.336 2.66-3.723 3.871-13.523 11.723-41.43 15.5-72.726 15.5zM45 360.898c-5.434 14.438-2.598 24.805 5.848 32.098 13.492 11.691 41.43 15.504 72.699 15.504h8.355l-2.953-29.234h-8.355c-31.27 0-59.203-3.809-72.7-15.504A29.502 29.502 0 0145 360.898zm0 0" fill="#fcc368"/><path d="M320.473 253.441c5.668 1.711 11.93 2.54 19.164 2.922 36.644 1.95 50.465 22.176 68.12 55.485l17.04 32.187c12.906.297 23.773 3.133 33.812 8.86l-31.007-58.528c-17.63-33.308-31.446-53.535-68.094-55.515-8.266-.41-15.266-1.446-21.555-3.66-4.101 7.085-10.129 13.167-17.48 18.25zm0 0" fill="#4a83c9"/><path d="M170.734 237.879c31.625 47.894 140.407 43.644 167.22-2.688-8.298-2.953-15.415-7.972-22.856-16.566-2.63-2.98-9.832-10.07-10.246-10.602l-47.215-29.941-58.082 32.867c-2.395 2.418-5.758 5.817-7.383 7.676-7.559 8.71-14.824 13.79-23.27 16.684.5.886 1.27 1.71 1.832 2.57zm0 0" fill="#fcc368"/><path d="M159.336 150.324c4.633 21.528 19.93 44.559 40.215 60.625 7.324 5.785 15.297 10.656 23.625 14.262a125.09 125.09 0 004.191 1.684c16.832 6.23 29.473 6.199 46.242-.06 11.223-4.194 21.852-10.75 31.243-18.812 18.543-15.855 32.336-37.441 36.675-57.699.973-4.43 1.477-8.8 1.477-13.023V87.01l-85.367-23.03-99.75 23.03v50.29c0 4.222.504 8.594 1.449 13.023zm0 0" fill="#ffdda6"/><path d="M317.164 95.574v50.29c0 4.222-.5 8.593-1.445 13.023-4.34 20.258-18.16 41.843-36.676 57.699-6.613 5.64-13.816 10.574-21.406 14.469 5.047-.68 10.273-2.098 15.972-4.223 2.985-1.094 5.938-2.39 8.801-3.809 7.973-3.957 15.563-9.093 22.442-15 18.546-15.859 32.336-37.445 36.675-57.699.973-4.43 1.477-8.8 1.477-13.023V87.01c-9.422 3.575-17.984 6.38-25.84 8.563zm0 0" fill="#fcc368"/><path d="M157.887 87.012c80.82-21.793 74.265 42.136 185.117 0 51.23-37.266 1.004-109.407-53.832-80.23-27.078 14.41-60.887-6.587-89.235 5.874-27.785 12.227-42.05 38.332-42.05 74.356zm0 0" fill="gray"/><path d="M284.922 8.73c44.91-3.84 76.625 54.57 32.242 86.844 7.856-2.183 16.418-4.988 25.84-8.562 51.23-37.266 1.004-109.407-53.832-80.23a46.101 46.101 0 01-4.25 1.948zm0 0" fill="#666"/><path d="M298.27 239.473c6.375 6.586 12.667 10.66 19.812 13.199.797.266 1.566.531 2.39.77 7.356-5.079 13.38-11.165 17.481-18.25l-.441-.176c-8.09-2.953-15.117-7.946-22.442-16.36-2.601-3.011-9.804-10.101-10.218-10.633-9.391 8.063-20.02 14.618-31.239 18.813-16.773 6.258-29.414 6.289-46.242.059a125.275 125.275 0 01-4.195-1.684c-8.324-3.606-16.301-8.477-23.621-14.262-2.395 2.418-5.758 5.817-7.383 7.676a64.683 64.683 0 01-2.629 2.895 130.058 130.058 0 007.883 6.527c7.62 5.785 15.949 10.66 24.656 14.262a77.96 77.96 0 004.371 1.652c17.512 6.262 30.711 6.234 48.219-.027a97.618 97.618 0 0014.558-6.586c1.715-.946 4.344-2.72 9.04 2.125zm0 0" fill="#eda93b"/><path d="M144.602 432.977l-12.7-24.477h-8.355c-31.274 0-59.207-3.813-72.703-15.504-.559 0-3.895.027-4.426.059-6.055.562-11.191 4.074-15.711 8.683l-.266.266a66.331 66.331 0 00-3.515 4.043c9.656 25.75 91.629 26.93 117.676 26.93zm218.066 0l12.7-24.477h8.327c31.297 0 59.203-3.781 72.727-15.504h.387c1.562 0 7.086.027 7.5.059 6.464.472 11.898 4.37 16.625 9.39l-.063-.03c.063.03.09.058.149.116l.148.149c.355.382-.176 1.949-.828 3.367-9.684 25.75-91.656 26.93-117.672 26.93zm0 0" fill="#91561a"/><path d="M125.996 350.031l5.906 58.469 1.328 13.11c.622 6.199 5.11 11.34 11.34 11.34h218.102c6.258 0 10.746-5.141 11.367-11.34l1.328-13.11 5.906-58.469 4.461-44.207c.621-6.23-5.109-11.367-11.37-11.367h-241.49c-6.23 0-11.988 5.137-11.367 11.367zm0 0" fill="#e6e6e6"/><path d="M229.996 363.703c0 11.309 10.57 20.492 23.625 20.492 13.05 0 23.652-9.183 23.652-20.492 0-11.312-10.601-20.465-23.652-20.465-13.05 0-23.625 9.157-23.625 20.465zm0 0" fill="#fcc368"/><path d="M131.902 408.5l1.328 13.11c.122 1.152.356 2.304.739 3.367 1.625 4.605 5.55 7.972 10.601 7.972h218.102c5.078 0 8.976-3.367 10.601-7.972.383-1.063.649-2.215.766-3.368l1.328-13.109zm0 0" fill="#c2c7cc"/></g><path d="M214.848 154.508a7.784 7.784 0 01-7.786-7.785v-8.711a7.787 7.787 0 1115.575 0v8.71c0 4.298-3.489 7.786-7.79 7.786zm72.226 0a7.784 7.784 0 01-7.785-7.785v-8.711a7.787 7.787 0 1115.574 0v8.71a7.787 7.787 0 01-7.789 7.786zm0 0" fill="#666"/></svg>