<svg id="Capa_1" height="512" width="512" xmlns="http://www.w3.org/2000/svg"><path d="M301.488 40.867l-24.221-23.34c-11.871-11.439-30.663-11.439-42.534 0l-24.221 23.34a248.12 248.12 0 00-75.952 178.666v103.748h242.879V219.533a248.123 248.123 0 00-75.951-178.666z" fill="#736e6e"/><path d="M301.488 40.867l-24.221-23.34c-10.306-9.931-25.827-11.234-37.508-3.921a30.755 30.755 0 015.026 3.921l24.221 23.34a248.12 248.12 0 0175.952 178.666v103.748h32.482V219.533a248.128 248.128 0 00-75.952-178.666z" fill="#595454"/><path d="M320.887 303.397H191.113c-101.425 0-183.645 82.221-183.645 183.645V498.1a5 5 0 005 5h487.066a5 5 0 005-5v-11.058c-.001-101.424-82.222-183.645-183.647-183.645z" fill="#736e6e"/><path d="M321.691 303.397h-42.023c100.981 0 182.842 81.861 182.842 182.842v11.884a4.978 4.978 0 01-4.978 4.978h42.023a4.978 4.978 0 004.978-4.978v-11.884c0-100.981-81.861-182.842-182.842-182.842z" fill="#595454"/><path d="M256 304.671c-42.291 0-76.574-34.283-76.574-76.574V121.891h153.148v106.207c0 42.29-34.283 76.573-76.574 76.573z" fill="#ffcbbe"/><path d="M308.835 121.891v95.849c0 42.291-34.283 76.574-76.574 76.574a76.718 76.718 0 01-18.283-2.214 76.198 76.198 0 0042.023 12.571c42.291 0 76.574-34.283 76.574-76.574V121.891z" fill="#fdad9d"/><path d="M376.838 202.507c-4.204-61.153-30.923-118.827-75.351-161.639l-24.221-23.34c-11.871-11.439-30.663-11.439-42.534 0l-24.221 23.34c-44.428 42.812-71.146 100.486-75.351 161.639l91.374-30.796a92.26 92.26 0 0158.929 0z" fill="#736e6e"/><path d="M224.748 28.62l24.221 23.34c37.05 35.702 61.77 81.743 71.401 131.514l56.469 19.032c-4.204-61.153-30.923-118.827-75.351-161.639l-24.221-23.34c-11.871-11.439-30.663-11.439-42.534 0l-10.767 10.376c.262.237.526.471.782.717z" fill="#595454"/><path d="M414.328 285.073H97.672c-12.703 0-23 10.297-23 23v172.028c0 12.703 10.297 23 23 23h316.656c12.703 0 23-10.297 23-23V308.073c0-12.703-10.297-23-23-23z" fill="#efe7e4"/><path d="M414.429 285.073h-14.842V442.46c0 12.647-10.252 22.899-22.899 22.899H74.672v14.842c0 12.647 10.252 22.899 22.899 22.899h316.858c12.647 0 22.899-10.252 22.899-22.899V307.972c0-12.647-10.252-22.899-22.899-22.899z" fill="#eadfda"/><path d="M445.112 341.396l-.317-33.424c0-16.744-13.622-30.367-30.367-30.367h-29.522v-58.072c0-60.741-21.705-119.641-61.117-165.85a7.467 7.467 0 10-11.363 9.691c31.064 36.421 50.435 81.218 55.925 128.393l-80.502-27.133c-20.539-6.922-43.161-6.922-63.7 0l-80.471 27.123c6.47-54.961 31.906-106.862 72.015-145.512l24.221-23.34a23.107 23.107 0 0132.171 0l16.514 15.913a7.467 7.467 0 1010.363-10.755l-16.514-15.912a37.988 37.988 0 00-52.896 0l-24.221 23.34c-24.88 23.975-44.349 52.254-57.866 84.052-13.518 31.798-20.371 65.44-20.371 99.991v58.072H97.571c-16.744 0-30.367 13.622-30.367 30.367v33.151C24.481 377.397 0 430.188 0 486.239v11.884c0 6.862 5.583 12.445 12.445 12.445h28.838a7.467 7.467 0 100-14.934H14.934v-9.395c0-47.27 18.887-92.032 52.27-124.911v118.873c0 16.744 13.622 30.367 30.367 30.367h401.983c6.862 0 12.445-5.583 12.445-12.445v-11.884c.001-55.912-24.36-108.579-66.887-144.843zm-75.14-63.791h-46.085c10.39-14.276 16.154-31.632 16.154-49.508v-30.113l29.645 9.992c.185 3.843.286 69.629.286 69.629zm-86.892-98.819l.171.058a12.882 12.882 0 00-2.426 7.529c0 7.155 5.801 12.956 12.956 12.956 7.027 0 12.734-5.598 12.937-12.576l18.39 6.198v35.146c0 18.618-7.614 36.54-20.926 49.508h-96.363c-13.306-12.962-20.925-30.909-20.925-49.508v-35.146l16.637-5.607c.498 6.7 6.079 11.985 12.907 11.985 7.155 0 12.956-5.8 12.956-12.956 0-2.599-.773-5.013-2.09-7.041l1.617-.545c17.461-5.887 36.696-5.886 54.159-.001zm-140.763 29.189l29.641-9.99v30.113c0 17.858 5.767 35.229 16.156 49.508h-46.087c.001-.001.102-65.787.29-69.631zm354.749 287.659h-56.499a30.179 30.179 0 004.229-15.432V450.98a7.467 7.467 0 10-14.934 0v29.221c0 8.509-6.923 15.432-15.432 15.432H97.571c-8.509 0-15.432-6.923-15.432-15.432V307.972c0-8.509 6.923-15.432 15.432-15.432h316.858c8.509 0 15.432 6.923 15.433 15.503l.996 106.032a7.466 7.466 0 007.465 7.396h.072a7.468 7.468 0 007.396-7.538l-.484-52.089c33.061 32.829 51.76 77.369 51.76 124.395v9.395z"/><path d="M237.736 252.039h36.528a7.467 7.467 0 100-14.934h-36.528a7.467 7.467 0 100 14.934zm215.877-119.117h3.855v45.502a7.467 7.467 0 1014.934 0v-52.969a7.467 7.467 0 00-7.467-7.467h-11.322a7.467 7.467 0 100 14.934zm-51.215 43.1a7.467 7.467 0 007.467 7.467h3.855v45.502a7.467 7.467 0 1014.934 0v-52.969a7.467 7.467 0 00-7.467-7.467h-11.322a7.467 7.467 0 00-7.467 7.467zM39.64 314.636a7.467 7.467 0 007.467-7.467V254.2a7.467 7.467 0 00-7.467-7.467H28.318a7.467 7.467 0 100 14.934h3.855v45.502a7.467 7.467 0 007.467 7.467zM92.174 36.452h3.855v45.502a7.467 7.467 0 1014.934 0V28.985a7.467 7.467 0 00-7.467-7.467H92.174a7.467 7.467 0 100 14.934zm304.889 51.297c12.563 0 22.784-10.221 22.784-22.785V40.469c0-12.563-10.221-22.785-22.784-22.785s-22.785 10.221-22.785 22.785v24.496c.001 12.563 10.222 22.784 22.785 22.784zm-7.85-47.28c0-4.329 3.522-7.85 7.85-7.85s7.85 3.522 7.85 7.85v24.496c0 4.329-3.522 7.85-7.85 7.85-4.329 0-7.85-3.522-7.85-7.85zm77.01 215.997v24.496c0 12.563 10.221 22.784 22.785 22.784s22.784-10.221 22.784-22.784v-24.496c0-12.563-10.221-22.784-22.784-22.784s-22.785 10.22-22.785 22.784zm14.935 0c0-4.329 3.522-7.85 7.85-7.85s7.85 3.521 7.85 7.85v24.496c0 4.328-3.522 7.85-7.85 7.85-4.329 0-7.85-3.522-7.85-7.85zM22.965 141.954c12.563 0 22.785-10.221 22.785-22.784V94.674c0-12.563-10.221-22.784-22.785-22.784S.181 82.11.181 94.674v24.496c0 12.564 10.221 22.784 22.784 22.784zm-7.85-47.28c0-4.329 3.522-7.85 7.85-7.85s7.85 3.521 7.85 7.85v24.496c0 4.328-3.522 7.85-7.85 7.85s-7.85-3.522-7.85-7.85zm60.45 109.622c12.563 0 22.785-10.221 22.785-22.785v-24.496c0-12.563-10.221-22.785-22.785-22.785s-22.784 10.221-22.784 22.785v24.496c0 12.564 10.22 22.785 22.784 22.785zm-7.85-47.281c0-4.329 3.522-7.85 7.85-7.85 4.329 0 7.85 3.522 7.85 7.85v24.496c0 4.329-3.522 7.85-7.85 7.85s-7.85-3.522-7.85-7.85z"/></svg>