<svg xmlns="http://www.w3.org/2000/svg" version="1.1" id="Capa_1" x="0" y="0" xml:space="preserve" width="512" height="512"><path d="M416.841 472.301l46.228-12.243c28.353-7.509 45.801-35.864 39.722-64.552l-21.544-101.664c-12.5-58.991-60.067-103.907-119.466-113.186-7.073-1.105-204.487-1.105-211.561 0-59.399 9.279-106.966 54.195-119.466 113.186L9.21 395.506c-6.079 28.688 11.369 57.043 39.722 64.552l46.228 12.243h321.681z" fill="#78777f"/><path d="M502.79 395.506l-21.544-101.664c-12.5-58.991-60.067-103.907-119.466-113.186-3.537-.552-54.658-.828-105.78-.828v292.474h160.841l46.228-12.243c28.352-7.511 45.8-35.865 39.721-64.553z" fill="#464550"/><path d="M187.698 260.051h136.605c43.108-49.8 57.652-92.456 58.318-94.481a14.984 14.984 0 00.02-9.408c-.51-1.54-12.62-38.192-33.09-75.415-59.209-107.726-127.963-107.596-187.1 0-20.47 37.223-32.58 73.875-33.09 75.415-1 3.059-1 6.359.02 9.408.665 2.025 15.208 44.681 58.317 94.481z" fill="#3c3a41"/><path d="M382.64 156.162C363.783 99.259 316.958 0 256 .002v260.049h68.302c43.108-49.8 57.652-92.456 58.318-94.481a14.984 14.984 0 00.02-9.408z" fill="#2b292c"/><path d="M181.108 129.328c-.405 3.443-.746.351 11.855 59.24 6.32 29.532 32.832 50.966 63.037 50.966s56.717-21.434 63.037-50.966c12.63-59.023 12.256-55.82 11.855-59.237-39.148-11.701-110.572-11.72-149.784-.003z" fill="#feb655"/><path d="M330.892 129.331c-19.58-5.852-47.233-8.782-74.892-8.783v118.986c30.205 0 56.717-21.434 63.037-50.966 12.63-59.023 12.256-55.82 11.855-59.237z" fill="#fd9a2b"/><path d="M84 446.013v30.994C84 496.333 99.67 512 119 512h274c19.33 0 35-15.667 35-34.993v-30.994H84z" fill="#7a86e8"/><path d="M256 446.013V512h137c19.33 0 35-15.667 35-34.993v-30.994H256z" fill="#4b5add"/><path d="M403 255.052H109c-13.807 0-25 11.191-25 24.995v170.965h344V280.047c0-13.804-11.193-24.995-25-24.995z" fill="#e1e4f9"/><path d="M428 280.047c0-13.804-11.193-24.995-25-24.995H256v195.96h172V280.047z" fill="#d6daf6"/><path d="M282 338.035h-52c-8.284 0-15 6.714-15 14.997s6.716 14.997 15 14.997h52c8.284 0 15-6.714 15-14.997s-6.716-14.997-15-14.997z" fill="#7a86e8"/><path d="M282 338.035h-26v29.994h26c8.284 0 15-6.714 15-14.997s-6.716-14.997-15-14.997z" fill="#4b5add"/><path d="M376.01 181.567c-7.31-48.97-64.28-54.539-120.01-56.339-55.73 1.8-112.71 7.379-120.01 56.349-7.391-15.924-8.413-19.96-6.63-25.415.51-1.54 12.62-38.192 33.09-75.415 59.14-107.598 127.89-107.728 187.1 0 20.47 37.223 32.58 73.875 33.09 75.415 1.742 5.33.91 9.177-6.63 25.405z" fill="#78777f"/><path d="M382.64 156.162C363.783 99.259 316.958-.002 256 .001v125.228c55.73 1.8 112.7 7.369 120.01 56.339 7.54-16.229 8.372-20.076 6.63-25.406z" fill="#464550"/></svg>