<svg aria-hidden="true" style="position: absolute; width: 0; height: 0; overflow: hidden;" version="1.1" xmlns="http://www.w3.org/2000/svg" xmlns:xlink="http://www.w3.org/1999/xlink">
<defs>
<symbol id="instagram" viewBox="0 0 32 32">
<path fill="#000" style="fill: var(--color1, #000)" d="M2 2.177c-2.515 2.612-2 5.387-2 13.816 0 7-1.221 14.017 5.171 15.669 1.996 0.513 19.681 0.513 21.675-0.003 2.661-0.687 4.827-2.845 5.123-6.609 0.041-0.525 0.041-17.58-0.001-18.116-0.315-4.009-2.783-6.32-6.035-6.788-0.745-0.108-0.895-0.14-4.719-0.147-13.564 0.007-16.537-0.597-19.213 2.177z"></path>
<path fill="#fff" style="fill: var(--color2, #fff)" d="M15.997 4.185c-4.841 0-9.439-0.431-11.195 4.076-0.725 1.861-0.62 4.279-0.62 7.74 0 3.037-0.097 5.892 0.62 7.739 1.752 4.509 6.387 4.077 11.192 4.077 4.636 0 9.416 0.483 11.193-4.077 0.727-1.88 0.62-4.261 0.62-7.739 0-4.616 0.255-7.596-1.984-9.833-2.267-2.267-5.332-1.983-9.832-1.983zM14.939 6.315c10.099-0.016 11.384-1.139 10.675 14.457-0.252 5.516-4.452 4.911-9.615 4.911-9.413 0-9.684-0.269-9.684-9.687 0-9.527 0.747-9.676 8.624-9.684zM22.304 8.276c-0.783 0-1.417 0.635-1.417 1.417s0.635 1.417 1.417 1.417v0c0.783 0 1.417-0.635 1.417-1.417s-0.635-1.417-1.417-1.417v0zM15.997 9.933c-3.351 0-6.067 2.717-6.067 6.067s2.716 6.067 6.067 6.067c0 0 0 0 0.001 0h-0c3.351-0 6.067-2.717 6.067-6.067s-2.716-6.067-6.067-6.067c-0 0-0 0-0.001 0h0zM15.997 12.063c5.207 0 5.213 7.877 0 7.877-5.205 0-5.213-7.877 0-7.877z"></path>
</symbol>
<symbol id="facebook" viewBox="0 0 32 32">
<path fill="#4267b2" style="fill: var(--color3, #4267b2)" d="M30.234 0h-28.469c-0.975 0.001-1.765 0.791-1.765 1.766v28.469c0.001 0.975 0.791 1.765 1.766 1.765h28.467c0.975 0 1.766-0.79 1.766-1.766v-28.47c-0-0.975-0.791-1.765-1.766-1.765z"></path>
<path fill="#fff" style="fill: var(--color2, #fff)" d="M22.094 32v-12.375h4.172l0.625-4.844h-4.797v-3.085c0-1.399 0.388-2.352 2.395-2.352h2.543v-4.321c-0.442-0.059-1.96-0.19-3.726-0.19-3.688 0-6.211 2.25-6.211 6.384v3.565h-4.156v4.844h4.156v12.375z"></path>
</symbol>
<symbol id="github" viewBox="0 0 32 32">
<path d="M0.245 13.949c-1.039 6.541 1.868 14.431 10.831 17.341 0.16 0.029 0.308 0.043 0.447 0.043 1.043 0 1.76-0.776 1.76-1.733-0.129-0.697 0.511-3.523-1.227-3.143-3.359 0.715-3.761-1.161-4.273-2.143 1.448 1.859 3.624 1.812 5.265 1.092 0.911-0.4 0.435-1.419 0.867-1.791 0.213-0.184 0.348-0.456 0.348-0.758 0-0.514-0.387-0.937-0.886-0.994l-0.005-0c-3.085-0.34-5.943-1.335-5.943-6.269 0-2.891 2.007-3.149 1.453-4.359-0.020-0.044-0.444-1.005-0.060-2.465 1.892 0.349 2.763 1.707 3.671 1.463 2.249-0.613 4.725-0.613 6.973 0 0.939 0.252 1.609-1.068 3.651-1.471 0.588 2.205-0.631 2.744 0.137 3.569 0.843 0.907 1.271 2.004 1.271 3.263 0 7.419-6.289 5.276-6.801 6.96-0.028 0.087-0.044 0.187-0.044 0.291 0 0.306 0.138 0.58 0.355 0.763l0.002 0.001c0.813 0.684 0.707 2.44 0.62 3.852-0.089 1.464-0.167 2.727 0.643 3.439 0.285 0.253 0.793 0.524 1.712 0.337 8.845-2.841 11.773-10.696 10.751-17.223-2.795-17.824-28.701-17.803-31.517-0.067zM11.272 28.587l0.005 0.673c-0.781-0.27-1.43-0.551-2.055-0.872l0.089 0.041c0.567 0.145 1.217 0.208 1.961 0.157zM11.765 23.653l-0.020 0.107c-1.137 0.336-2.012 0.001-2.609-1.003l-0.001-0.003c0.907 0.485 1.841 0.747 2.631 0.899zM16 2.667c15.777 0 19.336 21.689 4.625 26.588-0.051-0.396-0.004-1.143 0.028-1.669 0.077-1.268 0.168-2.745-0.284-3.98 6.784-1.412 7.351-8.861 4.739-12.18 0.324-1.269 0.193-4.252-0.972-4.617-0.275-0.087-1.74-0.405-4.583 1.383-1.074-0.265-2.306-0.417-3.574-0.417s-2.5 0.152-3.68 0.438l0.106-0.022c-1.419-0.889-4.616-2.336-5.229-0.8-0.712 1.789-0.543 3.236-0.331 4.040-2.319 2.939-1.624 7.859 0.712 10.168-1.324-0.633-3.148-0.849-3.541 0.419-0.431 1.383 1.216 1.215 2.239 3.739 0.097 0.315 0.277 0.684 0.553 1.051-9.081-7.42-4.7-24.14 9.192-24.14z"></path>
</symbol>
<symbol id="linkedin" viewBox="0 0 32 32">
<path d="M16 0c-8.835 0-16 7.165-16 16s7.165 16 16 16 16-7.165 16-16-7.165-16-16-16zM11.351 24.188h-3.897v-11.723h3.897zM9.402 10.863h-0.025c-1.308 0-2.153-0.9-2.153-2.025 0-1.15 0.872-2.026 2.205-2.026s2.153 0.875 2.179 2.026c0 1.125-0.846 2.025-2.205 2.025zM25.401 24.188h-3.896v-6.272c0-1.576-0.564-2.651-1.974-2.651-1.076 0-1.718 0.725-1.999 1.425-0.103 0.25-0.128 0.601-0.128 0.951v6.547h-3.896s0.051-10.624 0-11.723h3.896v1.66c0.518-0.799 1.444-1.935 3.512-1.935 2.564 0 4.486 1.675 4.486 5.276z"></path>
</symbol>
</defs>
</svg>
