<svg height="512pt" viewBox="0 0 512 512" width="512pt" xmlns="http://www.w3.org/2000/svg"><path d="M512 256c0 141.387-114.613 256-256 256S0 397.387 0 256 114.613 0 256 0s256 114.613 256 256zm0 0" fill="#2196f3"/><path d="M361.047 221.504c-3.309 7.957-11.094 13.164-19.715 13.164h-64V384c0 11.777-9.555 21.332-21.332 21.332s-21.332-9.555-21.332-21.332V234.668h-64c-8.621 0-16.406-5.207-19.715-13.164a21.336 21.336 0 014.633-23.254l85.332-85.332c8.34-8.344 21.824-8.344 30.164 0l85.332 85.332a21.336 21.336 0 014.633 23.254zm0 0" fill="#fafafa"/></svg>