<svg height="512pt" viewBox="0 0 512 512" width="512pt" xmlns="http://www.w3.org/2000/svg"><path d="M512 256c0 141.387-114.613 256-256 256S0 397.387 0 256 114.613 0 256 0s256 114.613 256 256zm0 0" fill="#2196f3"/><path d="M256 512C114.836 512 0 397.164 0 256S114.836 0 256 0s256 114.836 256 256-114.836 256-256 256zm0-480C132.48 32 32 132.48 32 256s100.48 224 224 224 224-100.48 224-224S379.52 32 256 32zm0 0"/><path d="M256 405.332c-8.832 0-16-7.168-16-16V122.668c0-8.832 7.168-16 16-16s16 7.168 16 16v266.664c0 8.832-7.168 16-16 16zm0 0"/><path d="M341.332 224a15.887 15.887 0 01-11.305-4.691L256 145.3l-74.027 74.027c-6.25 6.25-16.383 6.25-22.633 0s-6.25-16.383 0-22.637l85.332-85.332c6.25-6.25 16.383-6.25 22.637 0l85.332 85.332c6.25 6.254 6.25 16.387 0 22.637A15.952 15.952 0 01341.332 224zm0 0"/></svg>