<svg height="512" viewBox="0 0 64 64" width="512" xmlns="http://www.w3.org/2000/svg"><path d="M6.002 33.006v3.002H4.003a1 1 0 00-1 1v25.99a1 1 0 001 1h55.994a1 1 0 001-1v-25.99a1 1 0 00-1-1h-1.999v-3.002a1 1 0 00-1-1H36c-1.642 0-3.088.806-4 2.032-.912-1.227-2.358-2.032-4-2.032H7.002a1 1 0 00-1 1zm-.999 5.002h.999v20.99a1 1 0 001 1H28c1.302 0 2.401.839 2.815 2H5.003zm53.994 0v23.99H33.185a2.996 2.996 0 012.815-2h20.998a1 1 0 001-1v-20.99zM36 34.006h19.998v23.992H36c-1.13 0-2.162.391-3 1.025V37.008a3.005 3.005 0 013-3.002zm-5 3.002v22.016a4.947 4.947 0 00-3-1.025H8.002V34.006H28c1.654 0 3 1.347 3 3.002z"/><path d="M12.002 39.006H21a1 1 0 100-2h-8.998a1 1 0 100 2zm0 8.004h7a1 1 0 100-2h-7a1 1 0 100 2zm14.998-2h-3.998a1 1 0 100 2H27a1 1 0 100-2zm0-4.002H16.002a1 1 0 100 2H27a1 1 0 100-2zm-14.998 2h1a1 1 0 100-2h-1a1 1 0 100 2zM27 37.006h-2a1 1 0 100 2h2a1 1 0 100-2zM12.002 51.012H22a1 1 0 100-2h-9.998a1 1 0 100 2zm14.998-2h-1a1 1 0 100 2h1a1 1 0 100-2zm-10.998 4.002h-4a1 1 0 100 2h4a1 1 0 100-2zm10.998 0h-6.998a1 1 0 100 2H27a1 1 0 100-2zm16.017-14.016h8.998a1 1 0 100-2h-8.998a1 1 0 100 2zm8.998 6.004h-7a1 1 0 100 2h7a1 1 0 100-2zm-14.998 2h3.998a1 1 0 100-2h-3.998a1 1 0 100 2zm0-4.002h10.998a1 1 0 100-2H37.017a1 1 0 100 2zm14.998-2h-1a1 1 0 100 2h1a1 1 0 100-2zm-14.998-2.002h2a1 1 0 100-2h-2a1 1 0 100 2zm14.998 10.006h-9.998a1 1 0 100 2h9.998a1 1 0 100-2zm-14.998 2h1a1 1 0 100-2h-1a1 1 0 100 2zm14.998 2.002h-4a1 1 0 100 2h4a1 1 0 100-2zm-14.998 2h6.998a1 1 0 100-2h-6.998a1 1 0 100 2zm-5.724-23.299a.997.997 0 001.414 0l1.96-1.96A14.91 14.91 0 0047 15.002c0-8.271-6.729-15-15-15s-15 6.729-15 15a14.91 14.91 0 0012.333 14.745zM19 15.002c0-7.168 5.832-13 13-13s13 5.832 13 13c0 6.431-4.613 11.824-10.97 12.824a1.007 1.007 0 00-.552.281L32 29.586l-1.479-1.479a1.004 1.004 0 00-.552-.281C23.613 26.826 19 21.433 19 15.002z"/><path d="M27.695 11.289a.999.999 0 00-1.414 0l-3 3a.999.999 0 000 1.414l3 3a.997.997 0 001.414 0 .999.999 0 000-1.414l-2.293-2.293 2.293-2.293a.999.999 0 000-1.414zm8.593 7.414a.997.997 0 001.414 0l3-3a.999.999 0 000-1.414l-3-3a.999.999 0 10-1.414 1.414l2.293 2.293-2.293 2.293a.999.999 0 000 1.414zm-5.369 1.666l4.001-10.004a1 1 0 00-1.858-.742l-4.001 10.004a1 1 0 001.858.742z"/></svg>