<svg height="512pt" viewBox="0 -62 512 511" width="512pt" xmlns="http://www.w3.org/2000/svg"><path d="M201.395 226.535h-79.23a7.5 7.5 0 00-7.5 7.5c0 4.145 3.355 7.5 7.5 7.5h79.23a7.5 7.5 0 100-15zm0-34.336h-21.407a7.497 7.497 0 00-7.5 7.5 7.5 7.5 0 007.5 7.5h21.407a7.5 7.5 0 100-15zm-150.11 15h94.504a7.5 7.5 0 100-15H51.285a7.5 7.5 0 100 15zm150.11 88.016H100.098a7.497 7.497 0 00-7.5 7.5 7.5 7.5 0 007.5 7.5h101.297a7.5 7.5 0 100-15zM461.957.5h-12.148c-4.141 0-7.5 3.355-7.5 7.5s3.359 7.5 7.5 7.5h12.148C481.277 15.5 497 31.219 497 50.543v41.703H15V50.543C15 31.223 30.723 15.5 50.043 15.5h364.484c4.145 0 7.5-3.355 7.5-7.5s-3.355-7.5-7.5-7.5H50.043C22.449.5 0 22.95 0 50.543v273.05a7.5 7.5 0 1015 0V107.247h482V336.7c0 19.32-15.723 35.043-35.043 35.043H50.043c-12.422 0-24.031-6.676-30.3-17.422a7.498 7.498 0 00-10.255-2.703 7.502 7.502 0 00-2.703 10.258c8.945 15.34 25.52 24.867 43.258 24.867h411.914c27.594 0 50.043-22.449 50.043-50.043V50.543C512 22.949 489.55.5 461.957.5zM201.395 260.875h-44.676c-4.14 0-7.5 3.355-7.5 7.5s3.36 7.5 7.5 7.5h44.676c4.14 0 7.5-3.355 7.5-7.5s-3.36-7.5-7.5-7.5zm-150.11-88.016h21.406c4.145 0 7.5-3.355 7.5-7.5a7.5 7.5 0 00-7.5-7.5H51.285a7.5 7.5 0 100 15zm150.11-15H106.89a7.5 7.5 0 100 15h94.504a7.5 7.5 0 100-15zm195.168 125.72a7.48 7.48 0 005.304 2.194 7.48 7.48 0 005.305-2.195l44.238-44.238a7.497 7.497 0 000-10.606l-44.238-44.238c-2.93-2.926-7.68-2.926-10.606 0a7.502 7.502 0 000 10.61l38.934 38.933-38.934 38.934a7.5 7.5 0 00-.003 10.605zM347.69 301.96a7.506 7.506 0 007.235-5.55l32.578-120.84c1.078-4-1.29-8.118-5.29-9.196s-8.116 1.29-9.19 5.29l-32.579 120.839a7.5 7.5 0 005.29 9.195 7.512 7.512 0 001.956.262zM115.145 53.87c0 16.281 13.246 29.527 29.527 29.527 16.277 0 29.523-13.246 29.523-29.527 0-16.277-13.246-29.523-29.523-29.523-16.281 0-29.527 13.246-29.527 29.523zm44.05 0c0 8.012-6.515 14.527-14.523 14.527-8.012 0-14.527-6.515-14.527-14.527 0-8.008 6.515-14.523 14.527-14.523 8.008 0 14.523 6.515 14.523 14.523zM96.637 31.414c-2.926-2.926-7.676-2.926-10.606 0L74.18 43.266 62.332 31.414a7.51 7.51 0 00-10.61 0 7.51 7.51 0 000 10.61L63.575 53.87 51.723 65.723c-2.926 2.93-2.926 7.68 0 10.605a7.484 7.484 0 005.304 2.2 7.47 7.47 0 005.301-2.2L74.18 64.48l11.85 11.848a7.468 7.468 0 005.301 2.2c1.922 0 3.84-.735 5.305-2.2a7.497 7.497 0 000-10.605L84.785 53.87l11.852-11.848a7.502 7.502 0 000-10.609zm-45.352 278.8h14.613a7.5 7.5 0 100-15H51.285a7.5 7.5 0 100 15zm278.863-125.718a7.502 7.502 0 00-10.609 0l-44.234 44.238a7.497 7.497 0 000 10.606l44.234 44.238c1.465 1.461 3.387 2.195 5.305 2.195s3.84-.734 5.304-2.195a7.502 7.502 0 000-10.61l-38.933-38.933 38.933-38.933c2.926-2.926 2.926-7.676 0-10.606zM51.285 275.875h71.235c4.144 0 7.5-3.355 7.5-7.5s-3.356-7.5-7.5-7.5H51.285c-4.14 0-7.5 3.355-7.5 7.5s3.36 7.5 7.5 7.5zm0-34.34h36.68a7.5 7.5 0 100-15h-36.68a7.5 7.5 0 100 15zm0 0"/></svg>