<svg id="Capa_1" enable-background="new 0 0 512 512" height="512" viewBox="0 0 512 512" width="512" xmlns="http://www.w3.org/2000/svg"><g><path d="m142.065 482.212c3.878 1.971 8.495 1.611 12.03-.975l24.326-17.791 24.326 17.791c3.525 2.578 8.134 2.952 12.029.975 3.894-1.977 6.314-5.917 6.314-10.285v-86.348h47.671c4.126 0 7.471-3.345 7.471-7.471s-3.344-7.471-7.471-7.471c0 0-138.88 0-143.363 0s-7.734 3.085-7.734 7.471c0 4.126 3.345 7.471 7.471 7.471h10.616v86.348c.001 4.367 2.42 8.308 6.314 10.285zm64.084-96.633v79.635l-23.318-17.053c-2.626-1.921-6.194-1.921-8.82 0l-23.318 17.054v-79.635h55.456z"/><path d="m461.875 22.815c0-12.58-10.234-22.815-22.815-22.815h-225.44c-4.126 0-7.471 3.345-7.471 7.471s3.345 7.471 7.471 7.471h225.44c4.341 0 7.874 3.532 7.874 7.874v296.982h-300.699c-32.402-.265-63.976 17.261-81.16 44.685v-88.809c0-4.126-3.345-7.471-7.471-7.471s-7.471 3.345-7.471 7.471v140.225c.031.995-.096 4.071.129 5.001 2.61 50.675 44.659 91.1 95.972 91.1h305.291c4.071 0 7.777-2.402 9.442-6.12 1.66-3.709.985-8.061-1.719-11.09-7.25-8.115-13.34-17.166-18.105-26.902-1.813-3.706-6.289-5.241-9.993-3.427-3.706 1.814-5.241 6.288-3.427 9.994 3.905 7.981 8.601 15.552 14.014 22.604h-295.502c-44.752 0-81.16-36.408-81.16-81.16 0-44.751 36.408-81.16 81.16-81.16h295.504c-17.814 23.216-27.525 51.674-27.525 81.16 0 6.428.462 12.892 1.375 19.209.589 4.084 4.378 6.921 8.461 6.327 4.084-.589 6.916-4.377 6.327-8.461-.81-5.613-1.221-11.358-1.221-17.074 0-29.151 10.687-57.168 30.093-78.892 2.066-2.314 2.937-5.4 2.497-8.382.081-.442.129-305.811.129-305.811z"/><path d="m57.604 244.912c4.126 0 7.471-3.345 7.471-7.471v-141.995c0-44.391 36.114-80.505 80.505-80.505h29.853c4.126 0 7.471-3.345 7.471-7.471s-3.345-7.47-7.471-7.47h-29.853c-52.63 0-95.447 42.817-95.447 95.446v141.995c0 4.127 3.345 7.471 7.471 7.471z"/><path d="m145.49 166.291 44.96 54.399c1.478 1.788 3.612 2.712 5.763 2.712 1.676 0 3.362-.561 4.755-1.712 3.18-2.629 3.628-7.338 1-10.518l-41.026-49.64 41.026-49.64c2.628-3.18 2.181-7.889-1-10.518-3.181-2.628-7.889-2.18-10.518 1l-44.96 54.399c-2.282 2.762-2.282 6.756 0 9.518z"/><path d="m314.891 221.689c1.393 1.151 3.08 1.713 4.756 1.712 2.151 0 4.285-.924 5.763-2.712l44.959-54.399c2.283-2.762 2.283-6.756 0-9.518l-44.959-54.399c-2.628-3.181-7.338-3.627-10.518-1-3.18 2.628-3.627 7.338-.999 10.518l41.026 49.64-41.026 49.64c-2.63 3.181-2.182 7.89.998 10.518z"/><path d="m232.172 223.403c2.803 0 5.491-1.586 6.764-4.291l51.218-108.798c1.757-3.733.156-8.184-3.578-9.941-3.732-1.759-8.185-.157-9.942 3.577l-51.217 108.798c-1.757 3.733-.156 8.184 3.577 9.941 1.029.485 2.112.714 3.178.714z"/><path d="m303.042 370.637c-4.126 0-7.471 3.345-7.471 7.471s3.344 7.471 7.471 7.471h43.002c4.126 0 7.471-3.345 7.471-7.471s-3.344-7.471-7.471-7.471z"/></g></svg>