<svg id="Capa_1" enable-background="new 0 0 512 512" height="512" viewBox="0 0 512 512" width="512" xmlns="http://www.w3.org/2000/svg"><g><path d="m473.534 60.708h-435.068c-21.21 0-38.466 17.256-38.466 38.466v233.782c0 4.142 3.358 7.5 7.5 7.5s7.5-3.358 7.5-7.5v-171.791h325.376c4.142 0 7.5-3.358 7.5-7.5s-3.358-7.5-7.5-7.5h-325.376v-46.991c0-12.939 10.527-23.466 23.466-23.466h435.068c12.939 0 23.466 10.527 23.466 23.466v46.991h-119.656c-4.142 0-7.5 3.358-7.5 7.5s3.358 7.5 7.5 7.5h119.656v251.662c0 12.939-10.527 23.466-23.466 23.466h-435.068c-12.939-.001-23.466-10.528-23.466-23.467v-44.386c0-4.142-3.358-7.5-7.5-7.5s-7.5 3.358-7.5 7.5v44.386c0 21.21 17.256 38.466 38.466 38.466h435.068c21.21 0 38.466-17.256 38.466-38.466v-313.652c0-21.21-17.256-38.466-38.466-38.466z"/><ellipse cx="63.59" cy="110.936" rx="13.892" ry="13.892" transform="matrix(.707 -.707 .707 .707 -59.819 77.457)"/><ellipse cx="106.326" cy="110.936" rx="13.892" ry="13.892" transform="matrix(.707 -.707 .707 .707 -47.301 107.677)"/><ellipse cx="149.063" cy="110.936" rx="13.892" ry="13.892" transform="matrix(.707 -.707 .707 .707 -34.784 137.896)"/><path d="m94.114 253.081c-3.881-1.449-8.201.523-9.65 4.403-2.691 7.209-4.056 14.798-4.056 22.555 0 35.563 28.933 64.497 64.497 64.497 14.02 0 26.562-4.57 36.27-13.216 1.904-1.695 3.715-3.564 5.384-5.554 2.662-3.173 2.247-7.904-.927-10.566-3.173-2.662-7.904-2.247-10.566.927-1.203 1.435-2.504 2.777-3.868 3.992-7.017 6.249-15.863 9.417-26.293 9.417-27.292 0-49.497-22.204-49.497-49.497 0-5.96 1.046-11.783 3.109-17.308 1.448-3.881-.523-8.201-4.403-9.65z"/><path d="m118.256 238.32c7.947-5.088 17.162-7.777 26.648-7.777 9.92 0 19.488 2.921 27.669 8.449 1.287.87 2.748 1.286 4.192 1.286 2.408 0 4.772-1.157 6.222-3.302 2.319-3.433 1.416-8.095-2.016-10.414-10.671-7.208-23.142-11.019-36.066-11.019-12.359 0-24.371 3.508-34.736 10.145-3.489 2.233-4.506 6.872-2.272 10.36 2.233 3.489 6.872 4.506 10.359 2.272z"/><path d="m258.549 329.535c-13.204 0-25.976-5.396-34.166-14.434-2.781-3.069-7.524-3.303-10.594-.521-3.069 2.782-3.303 7.524-.521 10.594 10.986 12.124 27.914 19.361 45.281 19.361 20.415 0 38.18-13.279 41.324-30.887 2.358-13.205-3.978-30.581-28.83-39.748-15.128-5.58-29.125-11.683-32.117-13.001-4.619-3.244-6.878-8.529-6.057-14.249.984-6.858 6.144-12.33 13.801-14.637 19.807-5.964 37.433 8.361 37.608 8.506 3.171 2.646 7.886 2.231 10.545-.934 2.665-3.17 2.255-7.901-.916-10.567-.961-.809-23.878-19.709-51.564-11.368-13.194 3.975-22.514 14.27-24.323 26.868-1.673 11.658 3.372 22.867 13.167 29.253.332.216.679.405 1.041.566.651.291 16.151 7.19 33.623 13.635 13.933 5.139 20.951 13.536 19.254 23.038-1.602 8.981-11.454 18.525-26.556 18.525z"/><path d="m370.588 329.535c-13.203 0-25.976-5.396-34.167-14.434-2.78-3.068-7.523-3.303-10.594-.521-3.069 2.781-3.302 7.524-.521 10.594 10.987 12.123 27.915 19.361 45.281 19.361 20.414 0 38.18-13.279 41.324-30.887 2.357-13.205-3.978-30.581-28.83-39.748-15.128-5.58-29.125-11.683-32.117-13.001-4.619-3.243-6.878-8.529-6.057-14.249.984-6.858 6.144-12.33 13.801-14.637 19.735-5.941 37.305 8.256 37.606 8.504 3.17 2.647 7.888 2.233 10.548-.932 2.665-3.17 2.255-7.902-.916-10.567-.962-.809-23.879-19.709-51.565-11.368-13.194 3.975-22.514 14.27-24.322 26.868-1.673 11.658 3.372 22.867 13.167 29.253.331.216.679.405 1.04.566.651.291 16.151 7.19 33.623 13.635 13.933 5.139 20.951 13.536 19.254 23.038-1.601 8.981-11.454 18.525-26.555 18.525z"/></g></svg>