<svg id="Capa_1" enable-background="new 0 0 512 512" height="512" viewBox="0 0 512 512" width="512" xmlns="http://www.w3.org/2000/svg"><g><path d="m497 168.452c0-19.647-16.357-35.42-35.97-34.801v-19.048c19.491.442 35.97-15.04 35.97-34.801 0-19.903-16.711-35.662-36.514-34.802-3.651-25.407-25.554-45-51.956-45h-39.825c-4.142 0-7.5 3.358-7.5 7.5s3.358 7.5 7.5 7.5h39.825c20.678 0 37.5 16.822 37.5 37.5v407c0 20.678-16.822 37.5-37.5 37.5h-320.06c-12.407 0-22.5-10.093-22.5-22.5v-7.5h9.749c14.061 0 25.5-11.439 25.5-25.5s-11.439-25.5-25.5-25.5h-9.749v-72.667h9.749c14.061 0 25.5-11.439 25.5-25.5s-11.439-25.5-25.5-25.5h-9.749v-72.667h9.749c14.061 0 25.5-11.439 25.5-25.5s-11.439-25.5-25.5-25.5h-9.749v-72.666h9.749c14.061 0 25.5-11.439 25.5-25.5s-11.439-25.5-25.5-25.5h-9.749v-7.5c0-12.407 10.093-22.5 22.5-22.5h250.235c4.142 0 7.5-3.358 7.5-7.5s-3.358-7.5-7.5-7.5h-250.235c-20.678 0-37.5 16.822-37.5 37.5v7.5h-10.47c-14.061 0-25.5 11.439-25.5 25.5s11.439 25.5 25.5 25.5h10.47v72.667h-10.47c-14.061 0-25.5 11.439-25.5 25.5s11.439 25.5 25.5 25.5h10.47v72.667h-10.47c-14.061 0-25.5 11.439-25.5 25.5s11.439 25.5 25.5 25.5h10.47v72.666h-10.47c-14.061 0-25.5 11.439-25.5 25.5s11.439 25.5 25.5 25.5h10.47v7.5c0 20.678 16.822 37.5 37.5 37.5h320.06c25.632 0 47.018-18.469 51.586-42.794 19.723.715 36.884-14.551 36.884-34.802 0-19.647-16.357-35.421-35.97-34.802v-19.048c19.491.434 35.97-15.035 35.97-34.801 0-19.646-16.357-35.42-35.97-34.801v-19.048c19.491.437 35.97-15.036 35.97-34.802 0-19.647-16.357-35.42-35.97-34.801v-19.048c19.491.44 35.97-15.038 35.97-34.801zm-35.97-108.452c11.207-.79 20.97 8.573 20.97 19.801 0 11.225-9.643 20.507-20.97 19.801zm0 88.651c11.207-.793 20.97 8.575 20.97 19.801 0 11.223-9.643 20.508-20.97 19.801zm-420.53-67.651c-5.79 0-10.5-4.71-10.5-10.5s4.71-10.5 10.5-10.5h35.219c5.79 0 10.5 4.71 10.5 10.5s-4.71 10.5-10.5 10.5zm0 123.667c-5.79 0-10.5-4.71-10.5-10.5s4.71-10.5 10.5-10.5h17.902c.023 0 .045.003.068.003s.045-.003.068-.003h17.181c5.79 0 10.5 4.71 10.5 10.5s-4.71 10.5-10.5 10.5zm0 123.666c-5.79 0-10.5-4.71-10.5-10.5s4.71-10.5 10.5-10.5h35.219c5.79 0 10.5 4.71 10.5 10.5s-4.71 10.5-10.5 10.5h-17.181c-.023 0-.045-.003-.068-.003s-.045.003-.068.003zm0 123.667c-5.79 0-10.5-4.71-10.5-10.5s4.71-10.5 10.5-10.5h35.219c5.79 0 10.5 4.71 10.5 10.5s-4.71 10.5-10.5 10.5zm441.5-17.596c0 11.217-9.643 20.513-20.97 19.801v-39.603c11.254-.719 20.97 8.524 20.97 19.802zm0-88.651c0 11.219-9.643 20.511-20.97 19.801v-39.603c11.207-.797 20.97 8.58 20.97 19.802zm0-88.65c0 11.222-9.643 20.51-20.97 19.802v-39.603c11.207-.796 20.97 8.576 20.97 19.801zm-126.259-212.103h-199.482c-9.098 0-16.5 7.402-16.5 16.5v18c0 9.098 7.402 16.5 16.5 16.5h199.482c9.098 0 16.5-7.402 16.5-16.5v-18c0-9.098-7.402-16.5-16.5-16.5zm1.5 34.5c0 .827-.673 1.5-1.5 1.5h-199.482c-.827 0-1.5-.673-1.5-1.5v-18c0-.827.673-1.5 1.5-1.5h199.482c.827 0 1.5.673 1.5 1.5zm-32.357 340.967c-31.414-6.998-63.646-23.542-93.21-47.843-3.199-2.63-7.925-2.167-10.556 1.032-2.63 3.2-2.168 7.926 1.032 10.556 31.375 25.789 65.772 43.389 99.473 50.896 6.538 1.457 13.108 2.163 19.62 2.162 31.015.14 60.954-16.529 77.251-43.201 6.02-9.765 4.56-22.249-3.552-30.36l-41.716-41.716c-5.362-5.362-12.756-7.936-20.29-7.051-7.532.881-14.135 5.088-18.115 11.544l-10.515 17.055c-2.495 4.046-7.463 5.68-11.814 3.886-20.426-8.426-38.801-20.412-54.615-35.627-17.457-16.795-31.042-36.76-40.378-59.339-1.813-4.384-.189-9.378 3.861-11.875l17.049-10.511c6.455-3.98 10.663-10.583 11.544-18.115s-1.688-14.928-7.051-20.291l-41.722-41.722c-8.11-8.111-20.596-9.571-30.361-3.552-3.759 2.318-7.293 4.889-10.611 7.663-.115.089-.228.183-.339.28-25.517 21.54-37.481 55.731-30.086 88.927 9.35 41.97 34.434 85.02 70.631 121.217 2.929 2.929 7.678 2.929 10.606 0 2.929-2.929 2.929-7.678 0-10.606-34.208-34.208-57.859-74.649-66.597-113.873-5.667-25.442 2.299-51.593 20.147-69.619l54.185 54.185-5.267 3.247c-10.348 6.38-14.491 19.154-9.851 30.375 10.132 24.504 24.882 46.177 43.84 64.417 17.174 16.523 37.124 29.539 59.295 38.684 11.181 4.613 23.928.459 30.302-9.879l3.251-5.273 54.18 54.18c-18.026 17.849-44.176 25.817-69.621 20.147zm-148.705-259.686c.824-.554 1.661-1.093 2.511-1.617 3.821-2.356 8.707-1.785 11.882 1.39l41.723 41.722c2.099 2.099 3.104 4.993 2.759 7.941-.284 2.428-1.462 4.599-3.276 6.163zm172.336 172.336c1.564-1.815 3.735-2.993 6.164-3.277 2.947-.346 5.842.661 7.94 2.759l41.716 41.716c3.164 3.164 3.742 8.028 1.413 11.844-.008.013-.017.027-.025.04-.524.85-1.063 1.686-1.616 2.509z"/></g></svg>