<svg id="Capa_1" height="512" width="512" xmlns="http://www.w3.org/2000/svg"><path d="M142.065 482.212a11.482 11.482 0 0012.03-.975l24.326-17.791 24.326 17.791a11.48 11.48 0 0012.029.975 11.481 11.481 0 006.314-10.285v-86.348h47.671a7.471 7.471 0 000-14.942H125.398c-4.483 0-7.734 3.085-7.734 7.471a7.471 7.471 0 007.471 7.471h10.616v86.348a11.484 11.484 0 006.314 10.285zm64.084-96.633v79.635l-23.318-17.053a7.47 7.47 0 00-8.82 0l-23.318 17.054V385.58h55.456z"/><path d="M461.875 22.815C461.875 10.235 451.641 0 439.06 0H213.62a7.471 7.471 0 000 14.942h225.44c4.341 0 7.874 3.532 7.874 7.874v296.982H146.235c-32.402-.265-63.976 17.261-81.16 44.685v-88.809a7.471 7.471 0 00-14.942 0v140.225c.031.995-.096 4.071.129 5.001 2.61 50.675 44.659 91.1 95.972 91.1h305.291a10.36 10.36 0 009.442-6.12 10.333 10.333 0 00-1.719-11.09 118.704 118.704 0 01-18.105-26.902 7.47 7.47 0 00-13.42 6.567 133.451 133.451 0 0014.014 22.604H146.235c-44.752 0-81.16-36.408-81.16-81.16 0-44.751 36.408-81.16 81.16-81.16h295.504c-17.814 23.216-27.525 51.674-27.525 81.16 0 6.428.462 12.892 1.375 19.209.589 4.084 4.378 6.921 8.461 6.327a7.47 7.47 0 006.327-8.461 119.952 119.952 0 01-1.221-17.074c0-29.151 10.687-57.168 30.093-78.892a10.321 10.321 0 002.497-8.382c.081-.442.129-305.811.129-305.811zM57.604 244.912a7.471 7.471 0 007.471-7.471V95.446c0-44.391 36.114-80.505 80.505-80.505h29.853a7.471 7.471 0 000-14.941H145.58C92.95 0 50.133 42.817 50.133 95.446v141.995a7.47 7.47 0 007.471 7.471z"/><path d="M145.49 166.291l44.96 54.399a7.456 7.456 0 005.763 2.712 7.472 7.472 0 005.755-12.23l-41.026-49.64 41.026-49.64a7.47 7.47 0 00-11.518-9.518l-44.96 54.399a7.472 7.472 0 000 9.518zm169.401 55.398a7.438 7.438 0 004.756 1.712 7.456 7.456 0 005.763-2.712l44.959-54.399a7.47 7.47 0 000-9.518l-44.959-54.399a7.472 7.472 0 00-11.517 9.518l41.026 49.64-41.026 49.64a7.47 7.47 0 00.998 10.518zm-82.719 1.714a7.472 7.472 0 006.764-4.291l51.218-108.798a7.47 7.47 0 00-3.578-9.941 7.47 7.47 0 00-9.942 3.577l-51.217 108.798a7.47 7.47 0 003.577 9.941 7.436 7.436 0 003.178.714zm70.87 147.234a7.471 7.471 0 000 14.942h43.002a7.471 7.471 0 000-14.942z"/></svg>