<svg height="512" viewBox="0 0 60 60" width="512" xmlns="http://www.w3.org/2000/svg"><g id="Page-1" fill="none" fill-rule="evenodd"><g id="066---Contact" fill="#000" fill-rule="nonzero" transform="translate(-1)"><path id="Shape" d="M57 10H21.5l-2.3-7.609A3.383 3.383 0 0015.008.14l-5.093 1.5a3.4 3.4 0 00-1.477.894L2.7 8.477a3.369 3.369 0 00-.86 1.623c-.585 2.7-2.2 12.488 1.63 25.15s10.6 19.976 12.59 21.915a3.389 3.389 0 001.613.884l8.093 1.867a3.389 3.389 0 001.727-.052l2.818-.831 2.271-.67a3.341 3.341 0 002.018-1.629c.424-.78.518-1.696.259-2.545L33.592 50H57a4 4 0 004-4V14a4 4 0 00-4-4zM41.25 29.7l17.627-16.366c.08.213.12.439.123.666v32c-.003.214-.04.427-.111.629zM57 12c.113.002.227.013.338.034L36.4 31.468a2 2 0 01-2.72 0l-14.4-13.331 1.061-.313a3.351 3.351 0 002.015-1.629 3.3 3.3 0 00.257-2.543L22.11 12zM16.734 41.231a24.336 24.336 0 01-4.514-8.577 22.547 22.547 0 01-.509-12.216.179.179 0 01.123-.11l5.207-1.535 11.744 10.868zm16.1 14.551c-.173.321-.469.56-.82.66l-1.326.391-2.435-8.058a1 1 0 10-1.914.579l2.436 8.046-1.846.544a1.4 1.4 0 01-.714.022L18.122 56.1a1.4 1.4 0 01-.664-.366c-1.9-1.855-8.387-8.858-12.074-21.062S3.235 13.1 3.794 10.522c.054-.247.175-.475.35-.658l5.732-5.94a1.39 1.39 0 01.6-.366l1.861-.548 2.435 8.057a1 1 0 101.914-.578l-2.427-8.044 1.314-.387a1.383 1.383 0 011.719.911l3.4 11.26c.104.338.068.703-.1 1.014-.174.321-.47.56-.82.661l-1.327.391-.393-1.3a1 1 0 00-1.914.578l.389 1.288-5.258 1.55a2.18 2.18 0 00-1.487 1.5 24.578 24.578 0 00.525 13.317 24.817 24.817 0 006.948 11.42 2.172 2.172 0 002.065.45l5.271-1.554.393 1.3a1 1 0 101.914-.579l-.389-1.288 1.313-.387a1.387 1.387 0 011.72.911l3.4 11.261c.105.34.068.708-.103 1.02zM32.987 48l-1.532-5.071a3.385 3.385 0 00-4.2-2.251l-8.5 2.506a.2.2 0 01-.178-.032c-.14-.123-.3-.276-.485-.45l12.164-11.68 2.064 1.911a4.014 4.014 0 005.442 0l2.02-1.876 17.607 16.9A1.987 1.987 0 0157 48z"/><path id="Shape" d="M27 16h16a1 1 0 000-2H27a1 1 0 000 2zm29 6a1 1 0 00-1 1v14a1 1 0 002 0V23a1 1 0 00-1-1z"/></g></g></svg>