<svg id="Capa_1" height="512" width="512" xmlns="http://www.w3.org/2000/svg"><path d="M473.534 60.708H38.466C17.256 60.708 0 77.964 0 99.174v233.782a7.5 7.5 0 0015 0V161.165h325.376a7.5 7.5 0 000-15H15V99.174c0-12.939 10.527-23.466 23.466-23.466h435.068c12.939 0 23.466 10.527 23.466 23.466v46.991H377.344a7.5 7.5 0 000 15H497v251.662c0 12.939-10.527 23.466-23.466 23.466H38.466C25.527 436.292 15 425.765 15 412.826V368.44a7.5 7.5 0 00-15 0v44.386c0 21.21 17.256 38.466 38.466 38.466h435.068c21.21 0 38.466-17.256 38.466-38.466V99.174c0-21.21-17.256-38.466-38.466-38.466z"/><circle cx="63.59" cy="110.936" transform="rotate(-45 63.574 110.956)" r="13.892"/><circle cx="106.326" cy="110.936" transform="rotate(-45 106.315 110.964)" r="13.892"/><circle cx="149.063" cy="110.936" transform="rotate(-45 149.054 110.972)" r="13.892"/><path d="M94.114 253.081a7.5 7.5 0 00-9.65 4.403 64.277 64.277 0 00-4.056 22.555c0 35.563 28.933 64.497 64.497 64.497 14.02 0 26.562-4.57 36.27-13.216a53.388 53.388 0 005.384-5.554 7.5 7.5 0 00-.927-10.566 7.5 7.5 0 00-10.566.927 38.376 38.376 0 01-3.868 3.992c-7.017 6.249-15.863 9.417-26.293 9.417-27.292 0-49.497-22.204-49.497-49.497 0-5.96 1.046-11.783 3.109-17.308a7.501 7.501 0 00-4.403-9.65zm24.142-14.761c7.947-5.088 17.162-7.777 26.648-7.777 9.92 0 19.488 2.921 27.669 8.449a7.464 7.464 0 004.192 1.286 7.5 7.5 0 004.206-13.716c-10.671-7.208-23.142-11.019-36.066-11.019-12.359 0-24.371 3.508-34.736 10.145a7.499 7.499 0 00-2.272 10.36 7.498 7.498 0 0010.359 2.272zm140.293 91.215c-13.204 0-25.976-5.396-34.166-14.434a7.5 7.5 0 10-11.115 10.073c10.986 12.124 27.914 19.361 45.281 19.361 20.415 0 38.18-13.279 41.324-30.887 2.358-13.205-3.978-30.581-28.83-39.748-15.128-5.58-29.125-11.683-32.117-13.001-4.619-3.244-6.878-8.529-6.057-14.249.984-6.858 6.144-12.33 13.801-14.637 19.807-5.964 37.433 8.361 37.608 8.506a7.5 7.5 0 009.629-11.501c-.961-.809-23.878-19.709-51.564-11.368-13.194 3.975-22.514 14.27-24.323 26.868-1.673 11.658 3.372 22.867 13.167 29.253.332.216.679.405 1.041.566.651.291 16.151 7.19 33.623 13.635 13.933 5.139 20.951 13.536 19.254 23.038-1.602 8.981-11.454 18.525-26.556 18.525zm112.039 0c-13.203 0-25.976-5.396-34.167-14.434a7.5 7.5 0 00-11.115 10.073c10.987 12.123 27.915 19.361 45.281 19.361 20.414 0 38.18-13.279 41.324-30.887 2.357-13.205-3.978-30.581-28.83-39.748-15.128-5.58-29.125-11.683-32.117-13.001-4.619-3.243-6.878-8.529-6.057-14.249.984-6.858 6.144-12.33 13.801-14.637 19.735-5.941 37.305 8.256 37.606 8.504a7.5 7.5 0 009.632-11.499c-.962-.809-23.879-19.709-51.565-11.368-13.194 3.975-22.514 14.27-24.322 26.868-1.673 11.658 3.372 22.867 13.167 29.253.331.216.679.405 1.04.566.651.291 16.151 7.19 33.623 13.635 13.933 5.139 20.951 13.536 19.254 23.038-1.601 8.981-11.454 18.525-26.555 18.525z"/></svg>