<svg xmlns="http://www.w3.org/2000/svg" viewBox="0 0 64 64" width="512" height="512"><g id="Outline"><path d="M61 25a1 1 0 001-1v-6a1 1 0 00-1-1h-7v-2h3a1 1 0 001-1V8a1 1 0 00-1-1h-3V4h3a1 1 0 000-2H7a1 1 0 00-1 1v4H5a3 3 0 000 6h1v5H5a3 3 0 000 6h6a3 3 0 000-6H8v-5h3a3 3 0 000-6H8V4h40v56H8v-3h3a3 3 0 000-6H8v-2a1 1 0 00-2 0v2H5a3 3 0 000 6h1v4a1 1 0 001 1h50a1 1 0 001-1V48a1 1 0 00-2 0v12h-2V45h7a1 1 0 001-1v-6a1 1 0 00-1-1h-3v-2h3a1 1 0 001-1v-6a1 1 0 00-1-1h-3v-2zm-49-4a1 1 0 01-1 1H5a1 1 0 010-2h6a1 1 0 011 1zm0-11a1 1 0 01-1 1H5a1 1 0 010-2h6a1 1 0 011 1zM4 54a1 1 0 011-1h6a1 1 0 010 2H5a1 1 0 01-1-1zm56-35v4h-6v-4zm-4-6h-6V9h6zm-4-6h-2V4h2zm-2 53V15h2v45zm10-17h-6v-4h6zm0-14v4h-2v-4zm-4 8h-2V25h2z"/><path d="M5 40a3 3 0 000 6h6a3 3 0 000-6H8v-5h3a3 3 0 000-6H8v-2a1 1 0 00-2 0v2H5a3 3 0 000 6h1v5zm-1-8a1 1 0 011-1h6a1 1 0 010 2H5a1 1 0 01-1-1zm8 11a1 1 0 01-1 1H5a1 1 0 010-2h6a1 1 0 011 1zm19-22a3 3 0 013 3 1 1 0 002 0 5 5 0 00-5-5 1 1 0 000 2z"/><path d="M31 17a7 7 0 017 7 1 1 0 002 0 9 9 0 00-9-9 1 1 0 000 2z"/><path d="M31 12a12 12 0 0112 12 1 1 0 002 0 14 14 0 00-14-14 1 1 0 000 2zm-3.89 8.41a3.36 3.36 0 000-4.72L25.46 14a3.42 3.42 0 00-4.72 0l-1.65 1.65a10.35 10.35 0 000 14.62l6.6 6.6a10.36 10.36 0 0014.62 0L42 35.26a3.36 3.36 0 000-4.72l-1.65-1.65a3.42 3.42 0 00-4.72 0l-1.65 1.65a1.33 1.33 0 01-1.88 0A1 1 0 0030.64 32a3.34 3.34 0 004.72 0L37 30.31a1.33 1.33 0 011.88 0L40.54 32a1.33 1.33 0 010 1.88l-1.65 1.65a8.34 8.34 0 01-11.78 0l-6.6-6.6a8.34 8.34 0 010-11.78l1.65-1.65a1.33 1.33 0 011.88 0l1.65 1.65a1.33 1.33 0 010 1.88L24 20.64a3.34 3.34 0 000 4.72l4 4A1 1 0 1029.46 28l-4-4a1.33 1.33 0 010-1.88zM40 47a1 1 0 000-2H20a1 1 0 00-1 1v4a1 1 0 001 1h20a1 1 0 000-2H21v-2zm-19 6a1 1 0 000 2h14a1 1 0 000-2z"/></g></svg>