<svg height="512pt" viewBox="-36 0 512 512" width="512pt" xmlns="http://www.w3.org/2000/svg"><path d="M431.406 147.05c4.2 0 7.606-3.405 7.606-7.605V55.703C439.012 24.988 414.023 0 383.309 0H95.25C64.535 0 39.547 24.988 39.547 55.703v3.102h-8.625C13.872 58.805 0 72.675 0 89.727c0 17.05 13.871 30.925 30.922 30.925h8.625v21.29h-8.625C13.872 141.941 0 155.811 0 172.862s13.871 30.926 30.922 30.926h8.625v21.29h-8.625C13.872 225.078 0 238.948 0 256s13.871 30.922 30.922 30.922h8.625v21.293h-8.625C13.872 308.215 0 322.085 0 339.137s13.871 30.922 30.922 30.922h8.625v21.293h-8.625C13.872 391.352 0 405.222 0 422.273c0 17.051 13.871 30.922 30.922 30.922h8.625v3.102C39.547 487.012 64.535 512 95.25 512h288.059c30.714 0 55.703-24.988 55.703-55.703V169.863a7.606 7.606 0 00-15.211 0v286.434c0 22.328-18.164 40.496-40.492 40.496H95.25c-22.328 0-40.492-18.168-40.492-40.496v-3.102h24.84c17.05 0 30.922-13.87 30.922-30.922 0-17.05-13.872-30.921-30.922-30.921h-24.84v-21.293h24.84c17.05 0 30.922-13.871 30.922-30.922s-13.872-30.922-30.922-30.922h-24.84v-21.293h24.84c17.05 0 30.922-13.871 30.922-30.922s-13.872-30.922-30.922-30.922h-24.84V203.79h24.84c17.05 0 30.922-13.875 30.922-30.926s-13.872-30.922-30.922-30.922h-24.84v-21.289h24.84c17.05 0 30.922-13.875 30.922-30.925 0-17.051-13.872-30.922-30.922-30.922h-24.84v-3.102c0-22.328 18.164-40.496 40.492-40.496h186.172V122.72a7.596 7.596 0 004.078 6.734 7.601 7.601 0 007.86-.488l42.808-29.688 42.809 29.688a7.577 7.577 0 004.332 1.355 7.583 7.583 0 003.527-.867 7.596 7.596 0 004.078-6.734V15.934c18.703 3.57 32.89 20.039 32.89 39.77v83.741a7.601 7.601 0 007.602 7.606zM95.312 422.274c0 8.668-7.05 15.715-15.714 15.715H30.922c-8.664 0-15.715-7.047-15.715-15.715 0-8.664 7.05-15.714 15.715-15.714h48.676c8.664 0 15.715 7.05 15.715 15.714zm0-83.136c0 8.668-7.05 15.715-15.714 15.715H30.922c-8.664 0-15.715-7.047-15.715-15.715 0-8.664 7.05-15.715 15.715-15.715h48.676c8.664 0 15.715 7.05 15.715 15.715zm0-83.137c0 8.668-7.05 15.715-15.714 15.715H30.922c-8.664 0-15.715-7.047-15.715-15.715 0-8.664 7.05-15.715 15.715-15.715h48.676c8.664 0 15.715 7.05 15.715 15.715zm0-83.137c0 8.668-7.05 15.715-15.714 15.715H30.922c-8.664 0-15.715-7.047-15.715-15.715 0-8.664 7.05-15.715 15.715-15.715h48.676c8.664 0 15.715 7.051 15.715 15.715zm0-83.136c0 8.668-7.05 15.714-15.714 15.714H30.922c-8.664 0-15.715-7.046-15.715-15.714 0-8.664 7.05-15.715 15.715-15.715h48.676c8.664 0 15.715 7.05 15.715 15.715zm280.391 18.464L340.5 83.773a7.613 7.613 0 00-8.668 0l-35.203 24.415V16.27h79.078v91.921zm0 0"/><path d="M252.105 353.957l-54.832-54.832a7.604 7.604 0 00-10.753 10.754l54.832 54.832c17.289 17.293 40.543 26.64 64.355 26.637a91.017 91.017 0 0025.129-3.535c14.707-4.231 28.238-12.22 39.121-23.102l14.848-14.852c8.515-8.511 8.515-22.37 0-30.886l-38.77-38.774c-8.515-8.515-22.37-8.515-30.887 0l-19.335 19.332a17.9 17.9 0 01-12.743 5.278 17.913 17.913 0 01-12.742-5.278l-58.012-58.011c-3.402-3.403-5.277-7.93-5.277-12.743s1.875-9.34 5.274-12.738l19.34-19.336c8.515-8.516 8.515-22.375 0-30.89l-38.774-38.766c-8.516-8.516-22.371-8.516-30.89 0l-14.848 14.848c-17.18 17.175-26.637 40.011-26.637 64.3 0 24.293 9.457 47.13 26.637 64.305l16.605 16.605a7.604 7.604 0 0010.754-10.753l-16.605-16.606c-14.305-14.3-22.184-33.32-22.184-53.547 0-17.672 6.016-34.418 17.07-47.906l47.91 47.906c-5.718 6.164-8.859 14.13-8.859 22.578 0 8.88 3.457 17.223 9.73 23.496l58.016 58.016c6.274 6.273 14.617 9.73 23.492 9.73 8.457 0 16.422-3.14 22.578-8.859l47.903 47.902c-7.93 6.477-17.11 11.313-26.918 14.133-26.504 7.61-55.059.239-74.528-19.238zm-69.98-216.156l38.773 38.77c2.586 2.585 2.586 6.792-.003 9.382l-9.473 9.473-48.152-48.153 9.472-9.472a6.64 6.64 0 019.383 0zm153.156 153.152l38.77 38.777a6.64 6.64 0 010 9.38l-9.473 9.472-48.152-48.152 9.476-9.477a6.64 6.64 0 019.38 0zm0 0"/></svg>