<svg version="1.1" id="Capa_1" xmlns="http://www.w3.org/2000/svg" x="0" y="0" viewBox="0 0 215.04 215.04" xml:space="preserve"><path d="M177.495 83.625a3.413 3.413 0 00-3.413 3.413v103.649c0 4.96-4.035 8.992-8.994 8.992H15.821c-4.961 0-8.994-4.035-8.994-8.992V80.213H147.91a3.413 3.413 0 100-6.826H3.413A3.413 3.413 0 000 76.8v113.888c0 8.723 7.098 15.819 15.821 15.819h149.265c8.724 0 15.821-7.096 15.823-15.819V87.038a3.414 3.414 0 00-3.414-3.413z"/><path d="M96.976 169.255l-18.563-3.127c-1.898-.307-3.623.944-3.934 2.801a3.416 3.416 0 002.801 3.934l18.833 3.171c.186.029.377.046.567.046 8.801 0 15.961 6.036 15.961 13.459v10.141H20.48v-10.141c0-7.422 7.161-13.459 15.961-13.459.189 0 .381-.015.567-.046l19.246-3.241a3.415 3.415 0 00-1.133-6.735l-18.976 3.197c-12.428.142-22.49 9.187-22.49 20.284v13.554a3.413 3.413 0 003.413 3.413h98.987a3.413 3.413 0 003.413-3.413v-13.554c-.001-11.097-10.066-20.142-22.492-20.284z"/><path d="M78.56 151.893H54.456a3.413 3.413 0 00-3.413 3.413v12.288c0 1.34.783 2.557 2.004 3.108 4.217 1.91 8.841 2.865 13.461 2.865 4.623 0 9.247-.954 13.462-2.865a3.41 3.41 0 002.004-3.108v-12.288a3.416 3.416 0 00-3.414-3.413zm-3.414 13.398c-5.533 1.947-11.744 1.951-17.277 0v-6.571h17.277v6.571zm72.764-91.904H6.827v-10.24H137.67a3.413 3.413 0 100-6.826H3.413A3.411 3.411 0 000 59.733V76.8a3.413 3.413 0 003.413 3.413H147.91a3.413 3.413 0 100-6.826z"/><path d="M67.381 90.455h-1.746c-15.428 0-27.981 12.553-27.981 27.982v25.586c0 8.103 6.593 14.696 14.696 14.696h28.317c8.103 0 14.696-6.593 14.696-14.696v-25.586c0-15.429-12.552-27.982-27.982-27.982zm21.155 53.567c-.001 4.34-3.53 7.869-7.87 7.869H52.349c-4.34 0-7.869-3.529-7.869-7.869v-25.586c0-11.663 9.491-21.156 21.154-21.156h1.746c11.665 0 21.156 9.491 21.156 21.156v25.586zm68.477-43.329h-40.96a3.413 3.413 0 100 6.826h40.96a3.413 3.413 0 100-6.826zm0 13.654h-40.96a3.413 3.413 0 100 6.826h40.96a3.413 3.413 0 100-6.826zm0 13.653h-40.96a3.413 3.413 0 100 6.826h40.96a3.413 3.413 0 100-6.826zM174.08 8.533c-22.586 0-40.96 18.376-40.96 40.96s18.374 40.96 40.96 40.96 40.96-18.376 40.96-40.96-18.374-40.96-40.96-40.96zm0 75.094c-18.819 0-34.133-15.312-34.133-34.133 0-18.821 15.314-34.134 34.133-34.134 18.819 0 34.133 15.312 34.133 34.133s-15.314 34.134-34.133 34.134z"/><path d="M189.001 29.257a3.423 3.423 0 00-4.437 1.901L172.621 61.02l-13.474-10.778a3.417 3.417 0 00-4.799.532 3.414 3.414 0 00.532 4.797l17.067 13.653a3.415 3.415 0 003.003.634 3.408 3.408 0 002.301-2.031l13.653-34.133a3.415 3.415 0 00-1.903-4.437z"/></svg>