<svg height="512" viewBox="0 0 56 60" width="512" xmlns="http://www.w3.org/2000/svg"><g id="077---Down-Arrow" fill="none"><g id="Icons" transform="translate(0 1)"><path id="Shape" d="m55 14.29c0 .2163702-.0701779.4269038-.2.6l-25.99 34.7c-.1893526.2578105-.490124.410084-.81.410084s-.6206474-.1522735-.81-.410084l-.69-.92-25.3-33.78c-.12982213-.1730962-.2-.3836298-.2-.6-.00194695-.1203285.02192262-.2396764.07-.35.0852581-.2532646.26956812-.461134.5108047-.5760983.24123659-.1149643.51877984-.1271968.7691953-.0339017l16.59 5.86 1.72.61c.3080668.1113951.6511595.0648386.9184011-.1246237s.4247409-.4978032.4215989-.8253763v-17.84c-.0026696-.26694488.1015076-.52387536.2893341-.71358013s.4437077-.29643322.7106659-.29641987h10c.2669582-.00001335.5228394.1067151.7106659.29641987s.2920037.44663525.2893341.71358013v17.84c-.0013027.1160772.0190449.2313801.06.34.0861984.2525795.2706286.4597152.511552.5745303.2409233.114815.5179724.1276029.768448.0354697l16.59-5.86 1.72-.61c.310837-.1116372.6566325-.0640806.925793.1273224s.4276072.5024187.424207.8326776z" fill="#e8edfc"/><path id="Shape" d="m31 1.01v17.84c-.0013027.1160772.0190449.2313801.06.34.0861984.2525795.2706286.4597152.511552.5745303.2409233.114815.5179724.1276029.768448.0354697l1.721-.608c-.0409551-.1086199-.0613027-.2239228-.06-.34v-17.842c.0026715-.26711832-.1016424-.52420163-.2896857-.71393571-.1880434-.18973408-.4441828-.29634478-.7113143-.29606429l-3-.00000055c.2669582-.0000128.5228394.10671565.7106659.29642042s.2920037.44663525.2893341.71358013z" fill="#cad9fc"/><path id="Shape" d="m53.65 13.33-1.72.61c.0438245.1116159.0675242.2301144.07.35 0 .2163702-.0701779.4269038-.2.6l-25.3 33.779.69.92c.1893526.2578105.490124.410084.81.410084s.6206474-.1522735.81-.410084l25.99-34.699c.2661501-.3575815.2672765-.8471212.0027747-1.2059236-.2645019-.3588025-.7324659-.5025383-1.1527747-.3540764z" fill="#cad9fc"/><path id="Shape" d="m28 50v8c-.3195551-.0012567-.6197821-.1532235-.81-.41l-25.99-34.7c-.1908104-.2509479-.25026486-.5779475-.16-.88l-.04-.01v-7.71c0 .2163702.07017787.4269038.2.6l25.99 34.7c.1902179.2567765.4904449.4087433.81.41z" fill="#a4c2f7"/><path id="Shape" d="m55 22-.04.01c.0902649.3020525.0308104.6290521-.16.88l-25.99 34.7c-.1902179.2567765-.4904449.4087433-.81.41v-8c.3195551-.0012567.6197821-.1532235.81-.41l23.19-30.96 2.8-3.74c.1298221-.1730962.2-.3836298.2-.6z" fill="#7facfa"/></g><g id="Layer_3" fill="#fff" transform="translate(0 1)"><path id="Shape" d="m23.66 19.8c.3080668.1113951.6511595.0648386.9184011-.1246237s.4247409-.4978032.4215989-.8253763v-17.84c-.0026696-.26694488.1015076-.52387536.2893341-.71358013s.4437077-.29643322.7106659-.29641987h-3c-.2669582-.00001335-.5228394.1067151-.7106659.29641987s-.2920037.44663525-.2893341.71358013c0 19.176.035 17.9-.064 18.178.142.048-.493-.174 1.724.612z"/><path id="Shape" d="m50.65 13.33-13.65 4.821c0 .767-.015.851.06 1.039l14.869-5.252c-.0856875-.2526558-.2700068-.4598616-.5109581-.574403-.2409514-.1145414-.5180091-.1266609-.7680419-.033597z"/><path id="Shape" d="m54.429 13.372c-.1034641-.053741-.2160665-.0876574-.332-.1.1158642.0126844.2284049.0465822.332.1z"/><path id="Shape" d="m53.65 13.33c.1235158-.0433419.2542551-.0623586.385-.056-.1307619-.0067182-.2615704.0123085-.385.056z"/><path id="Shape" d="m54.466 13.394c.2150744.1200776.3797703.3135243.464.545-.0853109-.2308445-.2497212-.4239557-.464-.545z"/><path id="Shape" d="m1.2 22.89 25.99 34.7c.1902179.2567765.4904449.4087433.81.41.612 0 .78-.37 1.5-1.331l-25.3-33.779c-.305-.407-.2-.165-.2-8.6-.00185667-.1210679.02235797-.2411179.071-.352l-1.721-.608c-.25041546-.0932951-.52795871-.0810626-.7691953.0339017-.24123658.1149643-.4255466.3228337-.5108047.5760983-.1.225-.07-.419-.07 8.06l.04.01c-.09026486.3020525-.0308104.6290521.16.88z"/></g><path id="Rectangle-path" d="m2.598 23.092h2v8h-2z" fill="#fff" transform="matrix(.8 -.599 .599 .8 -15.523 7.565)"/><g fill="#428dff"><path id="Shape" d="m27.866 43.4-3.746-5c-.2143594-.2858125-.5649147-.4355547-.9196152-.3928203-.3547006.0427344-.6596589.2714531-.8.6-.1403412.3285469-.0947442.7070078.1196152.9928203l3.746 5c.3313708.4418278.9581722.5313708 1.4.2s.5313708-.9581722.2-1.4z"/><path id="Shape" d="m11.386 21.4c-.3313709-.4418278-.9581722-.5313708-1.39999998-.2-.4418278.3313709-.53137085.9581722-.20000002 1.4l8.989 12c.3313708.4418278.9581722.5313708 1.4.2s.5313708-.9581722.2-1.4z"/><path id="Shape" d="m26 20c.5522847 0 1-.4477153 1-1v-3c0-.5522847-.4477153-1-1-1s-1 .4477153-1 1v3c0 .5522847.4477153 1 1 1z"/><path id="Shape" d="m26 13c.5522847 0 1-.4477153 1-1v-7c0-.55228475-.4477153-1-1-1s-1 .44771525-1 1v7c0 .5522847.4477153 1 1 1z"/><path id="Shape" d="m3.617 28.092c-.55228475 0-1-.4477153-1-1s.44771525-1 1-1 1 .4477153 1 1-.44771525 1-1 1z"/><path id="Shape" d="m.4 24.49c.32768485.4369173.94709421.5263627 1.385.2.42141513-.3155446.52939982-.9020582.248-1.347 0-.039.008-.331-.015-4.693 26.122 34.866 24.436 32.75 24.982 33.068v4.95l-20.2-26.974c-.21435935-.2858125-.5649147-.4355548-.91961525-.3928203-.35470054.0427344-.65965883.2714531-.80000001.6-.14034119.3285469-.09474411.7070078.11961526.9928203l21.2 28.3c.3770154.511112.9743811.8127722 1.6095.8127722s1.2324846-.3016602 1.6095-.8127722l25.981-34.704c.3287957-.4458638.4721531-1.0017323.4-1.551 0-3.076 0-7.809 0-7.663.0012648-.6528297-.3161686-1.2651886-.8503702-1.6404443s-1.2179279-.4661723-1.8316298-.2435557l-18.318 6.457v-17.835c.0027687-1.10798512-.8920225-2.00903985-2-2.014h-10c-1.1079775.00496015-2.0027687.90601488-2 2.014l-.009 17.842-18.299-6.456c-.61672587-.2248676-1.30453641-.1327768-1.84038569.2464089s-.85150845.9971852-.84461431 1.6535911h-.007c.05 9.157-.07 8.566.4 9.19zm28.6 32.181v-4.952c.565-.329-1.275 1.979 25-33.1 0 5.09-.005 4.414.01 4.514.026.185 1.781-2.233-25.01 33.538zm-8.688-34.933c.6152431.2254112 1.3018807.1351597 1.8379768-.2415834.536096-.376743.8536506-.9921906.8500232-1.6474166v-17.849l10 .014v17.835c-.0037083.6528336.3114436 1.2663871.8442548 1.6436373.5328111.3772502 1.2162102.4707081 1.8307452.2503627l18.311-6.467c0-.1.137-.154-25.99 34.712l-25.982-34.712z"/></g></g></svg>