<svg height="512" viewBox="0 0 51 60" width="512" xmlns="http://www.w3.org/2000/svg"><g id="001---Down-Arrow" transform="translate(0 -1)"><path id="Shape" d="m20.054 60.157c.5813997.8174439 1.6768717 1.0804255 2.566.616l26.674-14.364c.6614893-.3752948 1.0541837-1.0920986 1.0143775-1.8515917-.0398061-.7594931-.5052807-1.431319-1.2023775-1.7354083l-8.1-3.5v-28.642c.0039105-.80159246-.4739851-1.52711057-1.212-1.84l-17.95-7.679c-.5646992-.2459621-1.2117962-.21453168-1.75.085 0 0-7.122 3.954-8.072 4.481-.6311093.35911591-1.0234756 1.02690039-1.03 1.753v18.973c-.4967311-.1325147-1.02529851-.0706458-1.478.173l-7.6 4.228c-.49978261.2737118-.85833622.7484467-.98490246 1.304038-.12656624.5555914-.00901365 1.1387855.32290246 1.601962zm1.631-1.157-17.369-24.383 5.872 2.539c.6201591.2709822 1.335101.2113367 1.901785-.1586604.5666841-.3699971.908863-1.0005628.910215-1.6773396v-26.911l17.009 7.269v28.642c-.0017836.4008835.1166468.7930974.34 1.126.453.659.068.371 8.921 4.2zm17.32-19.608-7 3.882v-27.667l7-3.886zm9.31 5.274-6.8 3.771-8.254-3.573 6.8-3.77zm-27.258-41.666 16.679 7.137-6.789 3.769-16.691-7.133zm-10.567 25.375.5.2v6.742l-7.307-3.16z"/><path id="Shape" d="m16 12c-.5522847 0-1 .4477153-1 1v14c0 .5522847.4477153 1 1 1s1-.4477153 1-1v-14c0-.5522847-.4477153-1-1-1z"/><path id="Shape" d="m16 31c-.5522847 0-1 .4477153-1 1v3c0 .5522847.4477153 1 1 1s1-.4477153 1-1v-3c0-.5522847-.4477153-1-1-1z"/></g></svg>