<svg aria-hidden="true" style="position: absolute; width: 0; height: 0; overflow: hidden;" version="1.1" xmlns="http://www.w3.org/2000/svg" xmlns:xlink="http://www.w3.org/1999/xlink">
<defs>
<symbol id="arrow-up" viewBox="0 0 32 32">
<path fill="#2196f3" style="fill: var(--color1, #2196f3)" d="M32 16c0 8.837-7.163 16-16 16s-16-7.163-16-16 7.163-16 16-16 16 7.163 16 16z"></path>
<path fill="#fafafa" style="fill: var(--color2, #fafafa)" d="M22.565 13.844c-0.207 0.497-0.693 0.823-1.232 0.823h-4v9.333c0 0.736-0.597 1.333-1.333 1.333s-1.333-0.597-1.333-1.333v-9.333h-4c-0.539 0-1.025-0.325-1.232-0.823-0.207-0.499-0.092-1.072 0.29-1.453l5.333-5.333c0.521-0.521 1.364-0.521 1.885 0l5.333 5.333c0.381 0.381 0.496 0.955 0.29 1.453z"></path>
</symbol>
<symbol id="arrow-upbl" viewBox="0 0 32 32">
<path fill="#2196f3" style="fill: var(--color1, #2196f3)" d="M32 16c0 8.837-7.163 16-16 16s-16-7.163-16-16 7.163-16 16-16 16 7.163 16 16z"></path>
<path fill="#000" style="fill: var(--color3, #000)" d="M16 32c-8.823 0-16-7.177-16-16s7.177-16 16-16 16 7.177 16 16-7.177 16-16 16zM16 2c-7.72 0-14 6.28-14 14s6.28 14 14 14 14-6.28 14-14-6.28-14-14-14z"></path>
<path fill="#000" style="fill: var(--color3, #000)" d="M16 25.333c-0.552 0-1-0.448-1-1v-16.666c0-0.552 0.448-1 1-1s1 0.448 1 1v16.666c0 0.552-0.448 1-1 1z"></path>
<path fill="#000" style="fill: var(--color3, #000)" d="M21.333 14c-0.256 0-0.512-0.097-0.707-0.293l-4.627-4.626-4.627 4.627c-0.391 0.391-1.024 0.391-1.415 0s-0.391-1.024 0-1.415l5.333-5.333c0.391-0.391 1.024-0.391 1.415 0l5.333 5.333c0.391 0.391 0.391 1.024 0 1.415-0.195 0.195-0.451 0.292-0.707 0.292z"></path>
</symbol>
<symbol id="book-closed" viewBox="0 0 32 32">
<path d="M27.733 0h-21.867c-1.767 0.002-3.198 1.433-3.2 3.2v23.467c-0.002 0.105 0.003 0.209 0.013 0.313 0.207 1.636 1.589 2.888 3.264 2.888 0.012 0 0.024-0 0.037-0l-0.002 0h2.021v1.067c-0 0.002-0 0.005-0 0.007 0 0.394 0.216 0.737 0.536 0.918l0.005 0.003c0.334 0.192 0.746 0.187 1.074-0.014l1.585-0.951 1.584 0.95c0.157 0.096 0.346 0.152 0.549 0.152 0.589 0 1.066-0.477 1.067-1.066v-1.067h13.333c0.884 0 1.6-0.716 1.6-1.6v0-26.667c0-0.884-0.716-1.6-1.6-1.6v0zM13.333 30.933l-1.585-0.951c-0.157-0.095-0.346-0.152-0.549-0.152s-0.392 0.056-0.553 0.155l0.005-0.003-1.585 0.951v-3.733h4.267zM14.4 27.2h1.6c0.295 0 0.533-0.239 0.533-0.533s-0.239-0.533-0.533-0.533v0h-9.067c-0.295 0-0.533 0.239-0.533 0.533s0.239 0.533 0.533 0.533v0h1.067v1.6h-2.021c-0.012 0-0.027 0-0.041 0-1.125 0-2.054-0.838-2.197-1.924l-0.001-0.011c-0.004-0.043-0.006-0.093-0.006-0.144 0-0.019 0-0.039 0.001-0.058l-0 0.003c0.005-1.176 0.957-2.128 2.133-2.133h19.734c-0.336 0.617-0.534 1.352-0.534 2.133s0.198 1.516 0.546 2.157l-0.012-0.024h-11.2zM27.733 28.8h-0.533c-0.503 0-1.067-0.913-1.067-2.133s0.563-2.133 1.067-2.133h0.533c0.187-0.001 0.371-0.050 0.533-0.143v3.876c0 0.295-0.239 0.533-0.533 0.533v0zM27.733 23.467h-20.8v-0.533c0-0.295-0.239-0.533-0.533-0.533s-0.533 0.239-0.533 0.533v0 0.533c-0 0-0.001 0-0.001 0-0.822 0-1.57 0.312-2.135 0.823l0.003-0.002v-21.087c0-1.178 0.955-2.133 2.133-2.133v0 0.533c0 0.295 0.239 0.533 0.533 0.533s0.533-0.239 0.533-0.533v0-0.533h20.8c0.295 0 0.533 0.239 0.533 0.533v0 20.8c-0.016 0.431-0.22 0.811-0.531 1.065l-0.003 0.002z"></path>
<path d="M6.4 3.2c-0.295 0-0.533 0.239-0.533 0.533v0 1.067c0 0.295 0.239 0.533 0.533 0.533s0.533-0.239 0.533-0.533v0-1.067c0-0.295-0.239-0.533-0.533-0.533v0zM6.4 6.4c-0.295 0-0.533 0.239-0.533 0.533v0 1.067c0 0.295 0.239 0.533 0.533 0.533s0.533-0.239 0.533-0.533v0-1.067c0-0.295-0.239-0.533-0.533-0.533v0zM6.4 9.6c-0.295 0-0.533 0.239-0.533 0.533v0 1.067c0 0.295 0.239 0.533 0.533 0.533s0.533-0.239 0.533-0.533v0-1.067c0-0.295-0.239-0.533-0.533-0.533v0zM6.4 12.8c-0.295 0-0.533 0.239-0.533 0.533v0 1.067c0 0.295 0.239 0.533 0.533 0.533s0.533-0.239 0.533-0.533v0-1.067c0-0.295-0.239-0.533-0.533-0.533v0zM6.4 16c-0.295 0-0.533 0.239-0.533 0.533v0 1.067c0 0.295 0.239 0.533 0.533 0.533s0.533-0.239 0.533-0.533v0-1.067c0-0.295-0.239-0.533-0.533-0.533v0zM6.4 19.2c-0.295 0-0.533 0.239-0.533 0.533v0 1.067c0 0.295 0.239 0.533 0.533 0.533s0.533-0.239 0.533-0.533v0-1.067c0-0.295-0.239-0.533-0.533-0.533v0zM11.707 12.267l2.308-2.692c0.258-0.283 0.416-0.661 0.416-1.077 0-0.884-0.716-1.6-1.6-1.6-0.502 0-0.951 0.232-1.244 0.594l-0.002 0.003-3.2 3.733c-0.24 0.277-0.387 0.641-0.387 1.040s0.147 0.763 0.389 1.042l3.198 3.731c0.295 0.336 0.725 0.548 1.205 0.548 0.884 0 1.6-0.716 1.6-1.6 0-0.394-0.142-0.754-0.378-1.033l0.002 0.002zM13.147 16.405c-0.093 0.080-0.214 0.129-0.348 0.129-0.162 0-0.307-0.072-0.404-0.186l-0.001-0.001-3.2-3.733c-0.080-0.092-0.129-0.214-0.129-0.347s0.049-0.254 0.13-0.347l3.199-3.733c0.099-0.121 0.247-0.197 0.414-0.197 0.295 0 0.533 0.239 0.533 0.533 0 0.138-0.052 0.263-0.138 0.358l0-0-2.605 3.040c-0.080 0.093-0.128 0.214-0.128 0.347s0.048 0.254 0.129 0.347l-0.001-0.001 2.605 3.040c0.080 0.093 0.128 0.214 0.128 0.347 0 0.161-0.072 0.306-0.185 0.404l-0.001 0.001zM23.614 7.492c-0.295-0.336-0.725-0.548-1.205-0.548-0.884 0-1.6 0.716-1.6 1.6 0 0.394 0.142 0.754 0.378 1.033l-0.002-0.002 2.308 2.692-2.308 2.692c-0.258 0.283-0.416 0.661-0.416 1.077 0 0.884 0.716 1.6 1.6 1.6 0.502 0 0.951-0.232 1.244-0.594l0.002-0.003 3.2-3.733c0.517-0.597 0.517-1.485 0-2.083zM26.005 12.612l-3.2 3.733c-0.099 0.121-0.247 0.197-0.414 0.197-0.295 0-0.533-0.239-0.533-0.533 0-0.138 0.052-0.263 0.138-0.358l-0 0 2.605-3.040c0.080-0.093 0.128-0.214 0.128-0.347s-0.048-0.254-0.129-0.347l0.001 0.001-2.605-3.040c-0.072-0.090-0.115-0.206-0.115-0.331 0-0.295 0.239-0.533 0.533-0.533 0.155 0 0.294 0.066 0.391 0.171l0 0 3.2 3.733c0.173 0.199 0.174 0.496 0.001 0.695zM18.396 5.889c-0.079-0.014-0.17-0.022-0.262-0.022-0.791 0-1.447 0.574-1.577 1.327l-0.001 0.010-1.6 9.6c-0.016 0.085-0.025 0.182-0.025 0.282 0 0.884 0.716 1.6 1.6 1.6 0.797 0 1.459-0.583 1.58-1.347l0.001-0.009 1.6-9.6c0.014-0.079 0.022-0.17 0.022-0.263 0-0.791-0.574-1.448-1.328-1.577l-0.009-0.001zM17.059 17.154c-0.037 0.261-0.26 0.46-0.528 0.46-0.295 0-0.533-0.239-0.533-0.533 0-0.036 0.004-0.071 0.010-0.105l-0.001 0.003 1.6-9.6c0.037-0.261 0.26-0.46 0.528-0.46 0.295 0 0.533 0.239 0.533 0.533 0 0.036-0.004 0.071-0.010 0.106l0.001-0.003z"></path>
</symbol>
<symbol id="book-open" viewBox="0 0 32 32">
<path d="M3.001 16.503v1.501h-0.999c-0.276 0-0.5 0.224-0.5 0.5v0 12.995c0 0.276 0.224 0.5 0.5 0.5v0h27.997c0.276 0 0.5-0.224 0.5-0.5v0-12.995c0-0.276-0.224-0.5-0.5-0.5v0h-1v-1.501c0-0.276-0.224-0.5-0.5-0.5v0h-10.499c-0.821 0-1.544 0.403-2 1.016-0.456-0.613-1.179-1.016-2-1.016h-10.499c-0.276 0-0.5 0.224-0.5 0.5v0zM2.502 19.004h0.499v10.495c0 0.276 0.224 0.5 0.5 0.5v0h10.499c0.651 0 1.2 0.419 1.408 1h-12.906zM29.498 19.004v11.995h-12.906c0.211-0.586 0.761-0.998 1.407-1h10.499c0.276 0 0.5-0.224 0.5-0.5v0-10.495zM18 17.003h9.999v11.996h-9.999c-0.565 0-1.081 0.195-1.5 0.512v-11.008c0.001-0.828 0.672-1.5 1.5-1.501h0zM15.5 18.504v11.008c-0.411-0.318-0.933-0.511-1.5-0.512h-9.999v-11.997h9.999c0.827 0 1.5 0.674 1.5 1.501z"></path>
<path d="M6.001 19.503h4.499c0.276 0 0.5-0.224 0.5-0.5s-0.224-0.5-0.5-0.5v0h-4.499c-0.276 0-0.5 0.224-0.5 0.5s0.224 0.5 0.5 0.5v0zM6.001 23.505h3.5c0.276 0 0.5-0.224 0.5-0.5s-0.224-0.5-0.5-0.5v0h-3.5c-0.276 0-0.5 0.224-0.5 0.5s0.224 0.5 0.5 0.5v0zM13.5 22.505h-1.999c-0.276 0-0.5 0.224-0.5 0.5s0.224 0.5 0.5 0.5v0h1.999c0.276 0 0.5-0.224 0.5-0.5s-0.224-0.5-0.5-0.5v0zM13.5 20.504h-5.499c-0.276 0-0.5 0.224-0.5 0.5s0.224 0.5 0.5 0.5v0h5.499c0.276 0 0.5-0.224 0.5-0.5s-0.224-0.5-0.5-0.5v0zM6.001 21.504h0.5c0.276 0 0.5-0.224 0.5-0.5s-0.224-0.5-0.5-0.5v0h-0.5c-0.276 0-0.5 0.224-0.5 0.5s0.224 0.5 0.5 0.5v0zM13.5 18.503h-1c-0.276 0-0.5 0.224-0.5 0.5s0.224 0.5 0.5 0.5v0h1c0.276 0 0.5-0.224 0.5-0.5s-0.224-0.5-0.5-0.5v0zM6.001 25.506h4.999c0.276 0 0.5-0.224 0.5-0.5s-0.224-0.5-0.5-0.5v0h-4.999c-0.276 0-0.5 0.224-0.5 0.5s0.224 0.5 0.5 0.5v0zM13.5 24.506h-0.5c-0.276 0-0.5 0.224-0.5 0.5s0.224 0.5 0.5 0.5v0h0.5c0.276 0 0.5-0.224 0.5-0.5s-0.224-0.5-0.5-0.5v0zM8.001 26.507h-2c-0.276 0-0.5 0.224-0.5 0.5s0.224 0.5 0.5 0.5v0h2c0.276 0 0.5-0.224 0.5-0.5s-0.224-0.5-0.5-0.5v0zM13.5 26.507h-3.499c-0.276 0-0.5 0.224-0.5 0.5s0.224 0.5 0.5 0.5v0h3.499c0.276 0 0.5-0.224 0.5-0.5s-0.224-0.5-0.5-0.5v0zM21.509 19.499h4.499c0.276 0 0.5-0.224 0.5-0.5s-0.224-0.5-0.5-0.5v0h-4.499c-0.276 0-0.5 0.224-0.5 0.5s0.224 0.5 0.5 0.5v0zM26.008 22.501h-3.5c-0.276 0-0.5 0.224-0.5 0.5s0.224 0.5 0.5 0.5v0h3.5c0.276 0 0.5-0.224 0.5-0.5s-0.224-0.5-0.5-0.5v0zM18.509 23.501h1.999c0.276 0 0.5-0.224 0.5-0.5s-0.224-0.5-0.5-0.5v0h-1.999c-0.276 0-0.5 0.224-0.5 0.5s0.224 0.5 0.5 0.5v0zM18.509 21.5h5.499c0.276 0 0.5-0.224 0.5-0.5s-0.224-0.5-0.5-0.5v0h-5.499c-0.276 0-0.5 0.224-0.5 0.5s0.224 0.5 0.5 0.5v0zM26.008 20.5h-0.5c-0.276 0-0.5 0.224-0.5 0.5s0.224 0.5 0.5 0.5v0h0.5c0.276 0 0.5-0.224 0.5-0.5s-0.224-0.5-0.5-0.5v0zM18.509 19.499h1c0.276 0 0.5-0.224 0.5-0.5s-0.224-0.5-0.5-0.5v0h-1c-0.276 0-0.5 0.224-0.5 0.5s0.224 0.5 0.5 0.5v0zM26.008 24.502h-4.999c-0.276 0-0.5 0.224-0.5 0.5s0.224 0.5 0.5 0.5v0h4.999c0.276 0 0.5-0.224 0.5-0.5s-0.224-0.5-0.5-0.5v0zM18.509 25.502h0.5c0.276 0 0.5-0.224 0.5-0.5s-0.224-0.5-0.5-0.5v0h-0.5c-0.276 0-0.5 0.224-0.5 0.5s0.224 0.5 0.5 0.5v0zM26.008 26.503h-2c-0.276 0-0.5 0.224-0.5 0.5s0.224 0.5 0.5 0.5v0h2c0.276 0 0.5-0.224 0.5-0.5s-0.224-0.5-0.5-0.5v0zM18.509 27.503h3.499c0.276 0 0.5-0.224 0.5-0.5s-0.224-0.5-0.5-0.5v0h-3.499c-0.276 0-0.5 0.224-0.5 0.5s0.224 0.5 0.5 0.5v0zM15.646 15.854c0.090 0.091 0.215 0.147 0.354 0.147s0.263-0.056 0.353-0.147l0.98-0.98c3.526-0.636 6.167-3.681 6.167-7.343 0-0.010-0-0.021-0-0.031v0.002c0-4.136-3.364-7.5-7.5-7.5s-7.5 3.365-7.5 7.5c-0 0.009-0 0.019-0 0.030 0 3.662 2.64 6.707 6.121 7.336l0.045 0.007zM9.5 7.501c0-3.584 2.916-6.5 6.5-6.5s6.5 2.916 6.5 6.5c0 3.215-2.306 5.912-5.485 6.412-0.109 0.018-0.203 0.068-0.276 0.14v0l-0.739 0.739-0.739-0.739c-0.073-0.072-0.167-0.123-0.273-0.14l-0.003-0c-3.178-0.5-5.485-3.197-5.485-6.412z"></path>
<path d="M13.848 5.644c-0.090-0.091-0.215-0.147-0.354-0.147s-0.263 0.056-0.354 0.147v0l-1.5 1.5c-0.091 0.090-0.147 0.215-0.147 0.354s0.056 0.263 0.147 0.354v0l1.5 1.5c0.090 0.091 0.215 0.147 0.354 0.147s0.263-0.056 0.353-0.147l0-0c0.091-0.090 0.147-0.215 0.147-0.354s-0.056-0.263-0.147-0.354v0l-1.146-1.146 1.146-1.146c0.091-0.090 0.147-0.215 0.147-0.354s-0.056-0.263-0.147-0.354v0zM18.144 9.351c0.090 0.091 0.215 0.147 0.354 0.147s0.263-0.056 0.353-0.147l1.5-1.5c0.091-0.090 0.147-0.215 0.147-0.354s-0.056-0.263-0.147-0.354v0l-1.5-1.5c-0.090-0.090-0.215-0.146-0.354-0.146-0.276 0-0.5 0.224-0.5 0.5 0 0.138 0.056 0.263 0.146 0.354l1.146 1.147-1.146 1.146c-0.091 0.090-0.147 0.215-0.147 0.354s0.056 0.263 0.147 0.354v0zM15.46 10.184l2.001-5.002c0.023-0.055 0.036-0.119 0.036-0.186 0-0.276-0.224-0.5-0.5-0.5-0.209 0-0.389 0.129-0.463 0.311l-0.001 0.003-2.001 5.002c-0.023 0.055-0.036 0.119-0.036 0.185 0 0.276 0.224 0.5 0.5 0.5 0.209 0 0.389-0.129 0.463-0.311l0.001-0.003z"></path>
</symbol>
<symbol id="code" viewBox="0 0 32 32">
<path d="M12.587 18.065h-4.952c-0.259 0-0.469 0.21-0.469 0.469v0c0 0.259 0.21 0.469 0.469 0.469h4.952c0.259 0 0.469-0.21 0.469-0.469s-0.21-0.469-0.469-0.469v0zM12.587 15.919h-1.338c-0 0-0 0-0 0-0.259 0-0.469 0.21-0.469 0.469 0 0 0 0 0 0v0c0 0.259 0.21 0.469 0.469 0.469v0h1.338c0.259 0 0.469-0.21 0.469-0.469s-0.21-0.469-0.469-0.469v0zM3.205 16.856h5.906c0.259 0 0.469-0.21 0.469-0.469s-0.21-0.469-0.469-0.469v0h-5.907c-0.259 0-0.469 0.21-0.469 0.469s0.21 0.469 0.469 0.469v0zM12.587 22.357h-6.331c-0 0-0 0-0 0-0.259 0-0.469 0.21-0.469 0.469 0 0 0 0 0 0v0c0 0.259 0.21 0.469 0.469 0.469v0h6.331c0.259 0 0.469-0.21 0.469-0.469s-0.21-0.469-0.469-0.469v0zM28.872 3.938h-0.759c-0.259 0-0.469 0.21-0.469 0.469s0.21 0.469 0.469 0.469h0.759c1.207 0 2.19 0.982 2.19 2.19v2.606h-30.125v-2.606c0-1.207 0.983-2.19 2.19-2.19h22.78c0.259 0 0.469-0.21 0.469-0.469s-0.21-0.469-0.469-0.469h-22.78c-1.725 0-3.128 1.403-3.128 3.128v17.066c0 0.259 0.21 0.469 0.469 0.469s0.469-0.21 0.469-0.469v0-13.522h30.125v14.341c0 1.207-0.983 2.19-2.19 2.19h-25.745c-0.776 0-1.502-0.417-1.894-1.089-0.083-0.14-0.233-0.233-0.405-0.233-0.087 0-0.168 0.024-0.238 0.065l0.002-0.001c-0.14 0.083-0.233 0.233-0.233 0.405 0 0.087 0.024 0.168 0.065 0.238l-0.001-0.002c0.559 0.959 1.595 1.554 2.704 1.554h25.745c1.725 0 3.128-1.403 3.128-3.128v-17.885c0-1.725-1.403-3.128-3.128-3.128zM12.587 20.211h-2.792c-0.259 0-0.469 0.21-0.469 0.469s0.21 0.469 0.469 0.469h2.792c0.259 0 0.469-0.21 0.469-0.469s-0.21-0.469-0.469-0.469zM3.205 14.71h1.338c0.259 0 0.469-0.21 0.469-0.469s-0.21-0.469-0.469-0.469v0h-1.338c-0.259 0-0.469 0.21-0.469 0.469s0.21 0.469 0.469 0.469v0zM12.587 13.772h-5.907c-0.259 0-0.469 0.21-0.469 0.469s0.21 0.469 0.469 0.469v0h5.906c0.259 0 0.469-0.21 0.469-0.469s-0.21-0.469-0.469-0.469v0zM24.785 21.63c0.085 0.085 0.202 0.137 0.331 0.137 0 0 0 0 0.001 0h-0c0 0 0 0 0.001 0 0.129 0 0.246-0.052 0.331-0.137v0l2.765-2.765c0.085-0.085 0.137-0.202 0.137-0.331s-0.052-0.247-0.137-0.331l-2.765-2.765c-0.183-0.183-0.48-0.183-0.663 0-0.085 0.085-0.137 0.202-0.137 0.332s0.052 0.247 0.137 0.332l2.433 2.433-2.433 2.433c-0.085 0.085-0.137 0.202-0.137 0.331s0.052 0.247 0.137 0.331v0zM21.731 22.779c0.215-0 0.397-0.146 0.451-0.344l0.001-0.003 2.036-7.553c0.067-0.25-0.081-0.507-0.331-0.575s-0.507 0.081-0.574 0.331l-2.036 7.552c-0.010 0.037-0.016 0.079-0.016 0.122 0 0.215 0.145 0.397 0.343 0.452l0.003 0.001c0.037 0.010 0.079 0.016 0.122 0.016h0zM7.197 7.273c0 1.018 0.828 1.845 1.845 1.845s1.845-0.828 1.845-1.845c0-1.017-0.828-1.845-1.845-1.845s-1.845 0.828-1.845 1.845zM9.95 7.273c0 0.501-0.407 0.908-0.908 0.908s-0.908-0.407-0.908-0.908c0-0.5 0.407-0.908 0.908-0.908s0.908 0.407 0.908 0.908zM6.040 5.87c-0.183-0.183-0.48-0.183-0.663 0l-0.741 0.741-0.74-0.741c-0.085-0.085-0.202-0.137-0.332-0.137s-0.247 0.052-0.332 0.137v0c-0.085 0.085-0.137 0.202-0.137 0.332s0.052 0.247 0.137 0.332v0l0.741 0.74-0.741 0.741c-0.183 0.183-0.183 0.48 0 0.663 0.085 0.085 0.202 0.137 0.331 0.137 0 0 0 0 0 0v0c0.12 0 0.24-0.046 0.331-0.137l0.741-0.74 0.741 0.74c0.085 0.085 0.202 0.137 0.331 0.137 0 0 0 0 0 0h-0c0.12 0 0.24-0.046 0.332-0.137 0.085-0.085 0.137-0.202 0.137-0.331s-0.052-0.247-0.137-0.331l-0.741-0.741 0.741-0.74c0.085-0.085 0.137-0.202 0.137-0.332s-0.052-0.247-0.137-0.332v0zM3.205 23.295h0.913c0.259 0 0.469-0.21 0.469-0.469s-0.21-0.469-0.469-0.469v0h-0.913c-0.259 0-0.469 0.21-0.469 0.469s0.21 0.469 0.469 0.469v0zM20.634 15.437c-0.085-0.085-0.202-0.137-0.332-0.137s-0.247 0.052-0.332 0.137l-2.765 2.765c-0.085 0.085-0.137 0.202-0.137 0.331s0.052 0.247 0.137 0.331l2.765 2.765c0.092 0.091 0.212 0.137 0.332 0.137s0.24-0.046 0.331-0.137c0.085-0.085 0.137-0.202 0.137-0.332s-0.052-0.247-0.137-0.332l-2.433-2.433 2.433-2.433c0.183-0.183 0.183-0.48 0-0.663zM3.205 21.148h4.452c0.259 0 0.469-0.21 0.469-0.469s-0.21-0.469-0.469-0.469h-4.452c-0.259 0-0.469 0.21-0.469 0.469s0.21 0.469 0.469 0.469zM3.205 19.002h2.293c0.259 0 0.469-0.21 0.469-0.469s-0.21-0.469-0.469-0.469v0h-2.292c-0.259 0-0.469 0.21-0.469 0.469s0.21 0.469 0.469 0.469v0z"></path>
</symbol>
<symbol id="down-arrow" viewBox="0 0 32 32">
<path fill="#e8edfc" style="fill: var(--color4, #e8edfc)" d="M30.4 8.155c0 0.121-0.040 0.232-0.108 0.321l0.001-0.001-13.861 18.507c-0.099 0.133-0.255 0.219-0.432 0.219s-0.333-0.085-0.431-0.217l-0.001-0.001-0.368-0.491-13.493-18.016c-0.067-0.088-0.107-0.199-0.107-0.32v0c-0-0.002-0-0.005-0-0.007 0-0.065 0.014-0.127 0.039-0.182l-0.001 0.003c0.072-0.21 0.268-0.358 0.499-0.358 0.066 0 0.129 0.012 0.187 0.034l-0.004-0.001 9.765 3.451c0.054 0.020 0.116 0.032 0.181 0.032 0.295 0 0.533-0.239 0.533-0.533 0-0.002 0-0.004-0-0.005v0-9.515c-0-0.002-0-0.003-0-0.005 0-0.295 0.239-0.533 0.533-0.533 0 0 0 0 0 0h5.333c0 0 0 0 0 0 0.295 0 0.533 0.239 0.533 0.533 0 0.002 0 0.004-0 0.006v-0 9.515c-0 0.002-0 0.004-0 0.006 0 0.063 0.012 0.124 0.033 0.179l-0.001-0.003c0.073 0.21 0.269 0.358 0.5 0.358 0.066 0 0.128-0.012 0.186-0.034l-0.004 0.001 9.765-3.451c0.054-0.020 0.117-0.032 0.182-0.032 0.297 0 0.538 0.241 0.538 0.538 0 0.002 0 0.004-0 0.006v-0z"></path>
<path fill="#cad9fc" style="fill: var(--color5, #cad9fc)" d="M17.6 1.072v9.515c-0 0.002-0 0.004-0 0.006 0 0.063 0.012 0.124 0.033 0.179l-0.001-0.003c0.073 0.21 0.269 0.358 0.5 0.358 0.066 0 0.128-0.012 0.186-0.034l-0.004 0.001 0.918-0.324c-0.020-0.052-0.032-0.113-0.032-0.176 0-0.002 0-0.004 0-0.006v0-9.516c0-0.002 0-0.003 0-0.005 0-0.295-0.239-0.533-0.533-0.533-0 0-0 0-0.001 0h-1.6c0 0 0 0 0 0 0.295 0 0.533 0.239 0.533 0.533 0 0.002 0 0.004-0 0.006v-0zM29.68 7.643l-0.917 0.325c0.023 0.060 0.036 0.123 0.037 0.187 0 0.121-0.040 0.232-0.108 0.321l0.001-0.001-13.493 18.015 0.368 0.491c0.099 0.133 0.255 0.219 0.432 0.219s0.333-0.085 0.431-0.217l0.001-0.001 13.861-18.506c0.067-0.089 0.107-0.201 0.107-0.323 0-0.298-0.242-0.54-0.54-0.54-0.064 0-0.126 0.011-0.184 0.032l0.004-0.001z"></path>
<path fill="#a4c2f7" style="fill: var(--color6, #a4c2f7)" d="M16 27.2v4.267c-0.176-0.001-0.333-0.086-0.431-0.217l-0.001-0.001-13.861-18.507c-0.067-0.087-0.107-0.198-0.107-0.319 0-0.054 0.008-0.106 0.023-0.154l-0.001 0.004-0.021-0.005v-4.112c0 0.121 0.040 0.232 0.108 0.321l-0.001-0.001 13.861 18.507c0.101 0.137 0.261 0.218 0.432 0.219z"></path>
<path fill="#7facfa" style="fill: var(--color7, #7facfa)" d="M30.4 12.267l-0.021 0.005c0.048 0.161 0.016 0.336-0.085 0.469l-13.861 18.507c-0.101 0.137-0.261 0.218-0.432 0.219v-4.267c0.171-0.001 0.331-0.082 0.432-0.219l13.861-18.507c0.067-0.088 0.107-0.199 0.107-0.32v0z"></path>
<path fill="#fff" style="fill: var(--color8, #fff)" d="M13.685 11.093c0.054 0.020 0.116 0.032 0.181 0.032 0.295 0 0.533-0.239 0.533-0.533 0-0.002 0-0.004-0-0.005v0-9.515c-0-0.002-0-0.003-0-0.005 0-0.295 0.239-0.533 0.533-0.533 0 0 0 0 0 0h-1.6c0 0-0 0-0 0-0.295 0-0.533 0.239-0.533 0.533 0 0.002 0 0.004 0 0.006v-0c0 10.227 0.019 9.547-0.034 9.695 0.076 0.026-0.263-0.093 0.919 0.326zM28.080 7.643l-7.28 2.571c0 0.409-0.008 0.454 0.032 0.554l7.93-2.801c-0.073-0.21-0.268-0.357-0.498-0.357-0.066 0-0.129 0.012-0.187 0.034l0.004-0.001zM1.707 12.741l13.861 18.507c0.101 0.137 0.261 0.218 0.432 0.219 0.326 0 0.416-0.197 0.8-0.71l-13.493-18.015c-0.163-0.217-0.107-0.088-0.107-4.587-0-0.002-0-0.004-0-0.007 0-0.065 0.014-0.128 0.039-0.184l-0.001 0.003-0.918-0.324c-0.055-0.021-0.118-0.033-0.184-0.033-0.231 0-0.427 0.148-0.498 0.355l-0.001 0.004c-0.053 0.12-0.037-0.223-0.037 4.299l0.021 0.005c-0.048 0.161-0.016 0.336 0.085 0.469z"></path>
<path fill="#fff" style="fill: var(--color8, #fff)" d="M1.274 13.057l0.853-0.639 2.556 3.413-0.853 0.639z"></path>
<path fill="#428dff" style="fill: var(--color9, #428dff)" d="M15.929 23.147l-1.998-2.667c-0.098-0.13-0.253-0.213-0.427-0.213-0.295 0-0.533 0.239-0.533 0.533 0 0.121 0.040 0.232 0.108 0.321l-0.001-0.001 1.998 2.667c0.098 0.13 0.253 0.213 0.427 0.213 0.295 0 0.533-0.239 0.533-0.533 0-0.121-0.040-0.232-0.108-0.321l0.001 0.001zM7.139 11.413c-0.098-0.13-0.253-0.213-0.427-0.213-0.295 0-0.533 0.239-0.533 0.533 0 0.121 0.040 0.232 0.108 0.321l-0.001-0.001 4.794 6.4c0.098 0.13 0.253 0.213 0.427 0.213 0.295 0 0.533-0.239 0.533-0.533 0-0.121-0.040-0.232-0.108-0.321l0.001 0.001zM14.933 10.667c0.295 0 0.533-0.239 0.533-0.533v0-1.6c0-0.295-0.239-0.533-0.533-0.533s-0.533 0.239-0.533 0.533v0 1.6c0 0.295 0.239 0.533 0.533 0.533v0zM14.933 6.933c0.295 0 0.533-0.239 0.533-0.533v0-3.733c0-0.295-0.239-0.533-0.533-0.533s-0.533 0.239-0.533 0.533v0 3.733c0 0.295 0.239 0.533 0.533 0.533v0zM2.996 14.982c-0.295 0-0.533-0.239-0.533-0.533s0.239-0.533 0.533-0.533v0c0.295 0 0.533 0.239 0.533 0.533s-0.239 0.533-0.533 0.533v0z"></path>
<path fill="#428dff" style="fill: var(--color9, #428dff)" d="M1.28 13.061c0.097 0.129 0.25 0.211 0.423 0.211 0.119 0 0.229-0.039 0.317-0.106l-0.001 0.001c0.225-0.169 0.283-0.481 0.132-0.718 0-0.021 0.004-0.177-0.008-2.503 13.932 18.595 13.033 17.467 13.324 17.636v2.64l-10.773-14.386c-0.098-0.13-0.253-0.213-0.427-0.213-0.295 0-0.533 0.239-0.533 0.533 0 0.121 0.040 0.232 0.108 0.321l-0.001-0.001 11.307 15.093c0.196 0.264 0.508 0.433 0.858 0.433s0.662-0.169 0.856-0.431l0.002-0.003 13.857-18.509c0.139-0.187 0.223-0.423 0.223-0.678 0-0.053-0.004-0.104-0.010-0.155l0.001 0.006v-4.087c0-0.001 0-0.001 0-0.002 0-0.589-0.478-1.067-1.067-1.067-0.131 0-0.256 0.023-0.371 0.066l0.007-0.002-9.77 3.444v-9.512c0-0.001 0-0.002 0-0.003 0-0.59-0.477-1.069-1.066-1.071h-5.334c-0.59 0.003-1.067 0.481-1.067 1.071 0 0.001 0 0.002 0 0.003v-0l-0.005 9.516-9.759-3.443c-0.109-0.041-0.234-0.065-0.365-0.065-0.589 0-1.067 0.478-1.067 1.067 0 0.004 0 0.008 0 0.012v-0.001h-0.004c0.027 4.884-0.037 4.569 0.213 4.901zM16.533 30.225v-2.641c0.301-0.175-0.68 1.055 13.333-17.653 0 2.715-0.003 2.354 0.005 2.407 0.014 0.099 0.95-1.191-13.339 17.887zM11.9 11.594c0.109 0.041 0.235 0.065 0.367 0.065 0.589 0 1.067-0.478 1.067-1.067 0-0.002 0-0.004-0-0.006v0-9.519l5.333 0.007v9.512c0 0.002-0 0.004-0 0.006 0 0.589 0.478 1.067 1.067 1.067 0.129 0 0.253-0.023 0.367-0.065l-0.007 0.002 9.766-3.449c0-0.053 0.073-0.082-13.861 18.513l-13.857-18.513z"></path>
</symbol>
<symbol id="down-arrow1" viewBox="0 0 32 32">
<path fill="#0ba4e0" style="fill: var(--color10, #0ba4e0)" d="M32 16c0 8.837-7.163 16-16 16s-16-7.163-16-16c0-8.837 7.163-16 16-16s16 7.163 16 16z"></path>
<path fill="#fff" style="fill: var(--color8, #fff)" d="M16 25.097l-4.779-6.422 0.802-0.598 3.977 5.344 3.977-5.344 0.802 0.598z"></path>
<path fill="#fff" style="fill: var(--color8, #fff)" d="M15.5 6.903h1v17.356h-1z"></path>
</symbol>
<symbol id="down-arrow2" viewBox="0 0 32 32">
<path fill="#ffdc00" style="fill: var(--color11, #ffdc00)" d="M28.379 22.795l-4.645-2.005 0.005-15.627c0-0.001 0-0.003 0-0.004 0-0.111-0.036-0.213-0.097-0.296l0.001 0.001c-0.056-0.085-0.134-0.151-0.226-0.191l-0.003-0.001-9.573-4.096c-0.062-0.028-0.134-0.044-0.21-0.044-0.093 0-0.181 0.024-0.256 0.067l0.003-0.001c-0.795 0.443-3.445 1.915-4.304 2.389-0.082 0.045-0.147 0.11-0.191 0.19l-0.001 0.002c-0.050 0.076-0.080 0.17-0.080 0.27 0 0.002 0 0.005 0 0.007v-0l-0.005 10.613v0.283l-0.597-0.245c-0.060-0.025-0.13-0.040-0.204-0.040-0.095 0-0.185 0.025-0.263 0.068l0.003-0.001-4.053 2.256c-0.146 0.079-0.249 0.223-0.272 0.392l-0 0.003v0.005c-0.002 0.019-0.004 0.041-0.004 0.064 0 0.116 0.037 0.224 0.101 0.311l-0.001-0.002 10.027 14.080c0.098 0.137 0.256 0.226 0.436 0.226 0.090 0 0.175-0.022 0.25-0.062l-0.003 0.001 10.357-5.515 3.856-2.139c0.164-0.094 0.273-0.268 0.273-0.468 0-0.219-0.13-0.407-0.318-0.491l-0.003-0.001z"></path>
<path fill="#ff9801" style="fill: var(--color12, #ff9801)" d="M8.795 14.352v3.952c0 0.001 0 0.001 0 0.002 0 0.295-0.239 0.533-0.533 0.533-0.077 0-0.15-0.016-0.217-0.046l0.003 0.001-4.64-2.005v-0.005c0.023-0.172 0.126-0.315 0.269-0.393l0.003-0.001 4.053-2.256c0.075-0.042 0.165-0.066 0.26-0.066 0.073 0 0.143 0.015 0.207 0.041l-0.004-0.001zM23.643 4.864l-4.704 2.613-0.091-0.037-9.968-4.261c0.045-0.082 0.11-0.147 0.19-0.191l0.002-0.001c0.565-0.315 1.904-1.056 2.981-1.653 0.56-0.309 1.051-0.581 1.323-0.736 0.073-0.041 0.161-0.065 0.254-0.065 0.076 0 0.148 0.016 0.214 0.045l-0.003-0.001 9.573 4.096c0.094 0.039 0.174 0.107 0.229 0.192z"></path>
<path fill="#ff9801" style="fill: var(--color12, #ff9801)" d="M23.739 5.163l-0.005 15.627-4.709 2.613c-0.015-0.020-0.027-0.043-0.037-0.067l-0.001-0.002c-0.034-0.064-0.053-0.14-0.053-0.221 0-0.003 0-0.006 0-0.009v0l0.005-15.627 3.147-1.744v-0.005l1.557-0.864c0.060 0.081 0.096 0.184 0.096 0.294 0 0.002 0 0.003-0 0.005v-0z"></path>
<path fill="#f57c00" style="fill: var(--color13, #f57c00)" d="M23.643 4.864l-1.504 0.835-0.005 15.091-3.2 1.775v0.539c-0 0.003-0 0.005-0 0.008 0 0.081 0.020 0.157 0.055 0.224l-0.001-0.003c0.009 0.025 0.021 0.048 0.037 0.069l4.709-2.613 0.005-15.627c0-0.001 0-0.003 0-0.004 0-0.111-0.036-0.213-0.097-0.296l0.001 0.001z"></path>
<path fill="#ff9801" style="fill: var(--color12, #ff9801)" d="M28.427 23.755l-1.349 0.752-2.507 1.387-5.317-2.299c-0.045-0.020-0.084-0.045-0.118-0.075l0 0c-0.044-0.033-0.081-0.072-0.111-0.116l-0.001-0.002 4.709-2.613 4.645 2.005c0.191 0.085 0.321 0.273 0.321 0.492 0 0.2-0.109 0.374-0.27 0.467l-0.003 0.001z"></path>
<path fill="#000" style="fill: var(--color3, #000)" d="M13.095 31.55c0.197 0.274 0.514 0.45 0.873 0.45 0.181 0 0.352-0.045 0.502-0.125l-0.006 0.003 14.226-7.661c0.326-0.188 0.542-0.534 0.542-0.931 0-0.437-0.261-0.812-0.636-0.979l-0.007-0.003-4.32-1.867v-15.276c0-0.002 0-0.003 0-0.005 0-0.436-0.263-0.811-0.64-0.974l-0.007-0.003-9.573-4.095c-0.124-0.055-0.269-0.088-0.421-0.088-0.188 0-0.365 0.049-0.518 0.136l0.005-0.003-4.305 2.39c-0.328 0.189-0.546 0.536-0.549 0.934v10.119c-0.083-0.023-0.179-0.036-0.278-0.036-0.187 0-0.363 0.048-0.516 0.132l0.006-0.003-4.053 2.255c-0.331 0.184-0.552 0.532-0.552 0.931 0 0.232 0.075 0.447 0.201 0.622l-0.002-0.003zM13.965 30.933l-9.263-13.004 3.132 1.354c0.126 0.057 0.274 0.090 0.429 0.090 0.591 0 1.070-0.478 1.071-1.069v-14.353l9.071 3.877v15.276c-0.001 0.213 0.062 0.423 0.181 0.601 0.242 0.351 0.036 0.198 4.758 2.24zM23.203 20.476l-3.733 2.070v-14.756l3.733-2.073zM28.168 23.289l-3.627 2.011-4.402-1.906 3.627-2.011zM13.63 1.067l8.895 3.806-3.621 2.010-8.902-3.804zM7.995 14.6l0.267 0.107v3.596l-3.897-1.685z"></path>
<path fill="#000" style="fill: var(--color3, #000)" d="M10.933 5.867c-0.295 0-0.533 0.239-0.533 0.533v0 7.467c0 0.295 0.239 0.533 0.533 0.533s0.533-0.239 0.533-0.533v0-7.467c0-0.295-0.239-0.533-0.533-0.533v0zM10.933 16c-0.295 0-0.533 0.239-0.533 0.533v0 1.6c0 0.295 0.239 0.533 0.533 0.533s0.533-0.239 0.533-0.533v0-1.6c0-0.295-0.239-0.533-0.533-0.533v0z"></path>
</symbol>
<symbol id="down-arrow3" viewBox="0 0 32 32">
<path d="M13.095 31.55c0.197 0.274 0.514 0.45 0.873 0.45 0.181 0 0.352-0.045 0.502-0.125l-0.006 0.003 14.226-7.661c0.326-0.188 0.542-0.534 0.542-0.931 0-0.437-0.261-0.812-0.636-0.979l-0.007-0.003-4.32-1.867v-15.276c0-0.002 0-0.003 0-0.005 0-0.436-0.263-0.811-0.64-0.974l-0.007-0.003-9.573-4.095c-0.124-0.055-0.269-0.088-0.421-0.088-0.188 0-0.365 0.049-0.518 0.136l0.005-0.003-4.305 2.39c-0.328 0.189-0.546 0.536-0.549 0.934v10.119c-0.083-0.023-0.179-0.036-0.278-0.036-0.187 0-0.363 0.048-0.516 0.132l0.006-0.003-4.053 2.255c-0.331 0.184-0.552 0.532-0.552 0.931 0 0.232 0.075 0.447 0.201 0.622l-0.002-0.003zM13.965 30.933l-9.263-13.004 3.132 1.354c0.126 0.057 0.274 0.090 0.429 0.090 0.591 0 1.070-0.478 1.071-1.069v-14.353l9.071 3.877v15.276c-0.001 0.213 0.062 0.423 0.181 0.601 0.242 0.351 0.036 0.198 4.758 2.24zM23.203 20.476l-3.733 2.070v-14.756l3.733-2.073zM28.168 23.289l-3.627 2.011-4.402-1.906 3.627-2.011zM13.63 1.067l8.895 3.806-3.621 2.010-8.902-3.804zM7.995 14.6l0.267 0.107v3.596l-3.897-1.685z"></path>
<path d="M10.933 5.867c-0.295 0-0.533 0.239-0.533 0.533v0 7.467c0 0.295 0.239 0.533 0.533 0.533s0.533-0.239 0.533-0.533v0-7.467c0-0.295-0.239-0.533-0.533-0.533v0zM10.933 16c-0.295 0-0.533 0.239-0.533 0.533v0 1.6c0 0.295 0.239 0.533 0.533 0.533s0.533-0.239 0.533-0.533v0-1.6c0-0.295-0.239-0.533-0.533-0.533v0z"></path>
</symbol>
<symbol id="facebook" viewBox="0 0 32 32">
<path fill="#4267b2" style="fill: var(--color14, #4267b2)" d="M30.234 0h-28.469c-0.975 0.001-1.765 0.791-1.765 1.766v28.469c0.001 0.975 0.791 1.765 1.766 1.765h28.467c0.975 0 1.766-0.79 1.766-1.766v-28.47c-0-0.975-0.791-1.765-1.766-1.765z"></path>
<path fill="#fff" style="fill: var(--color8, #fff)" d="M22.094 32v-12.375h4.172l0.625-4.844h-4.797v-3.085c0-1.399 0.388-2.352 2.395-2.352h2.543v-4.321c-0.442-0.059-1.96-0.19-3.726-0.19-3.688 0-6.211 2.25-6.211 6.384v3.565h-4.156v4.844h4.156v12.375z"></path>
</symbol>
<symbol id="folder-closed" viewBox="0 0 32 32">
<path d="M30.661 11.467h-1.328v-3.733h-1.067v-2.133h-14.887l-1.905-2.667h-10.018c-0.804 0.001-1.456 0.653-1.457 1.457v23.3h0.003c-0.003 0.3 0.091 0.594 0.278 0.84 0.251 0.327 0.641 0.537 1.081 0.537 0.002 0 0.004 0 0.005 0h23.871c0.617 0 1.159-0.415 1.307-0.967l5.454-14.954v-0.094c0-0.918-0.563-1.585-1.339-1.585zM28.267 11.467h-4.267v-0.533c0-0.295-0.239-0.533-0.533-0.533s-0.533 0.239-0.533 0.533v0 0.533h-2.667v-0.533c0-0.295-0.239-0.533-0.533-0.533s-0.533 0.239-0.533 0.533v0 0.533h-2.667v-0.533c0-0.295-0.239-0.533-0.533-0.533s-0.533 0.239-0.533 0.533v0 0.533h-2.667v-0.533c0-0.295-0.239-0.533-0.533-0.533s-0.533 0.239-0.533 0.533v0 0.533h-2.667v-0.533c0-0.295-0.239-0.533-0.533-0.533s-0.533 0.239-0.533 0.533v0 0.533h-1.21c-0.356 0.002-0.68 0.138-0.924 0.36l0.001-0.001v-3.026h22.4v2.667zM2.667 20.156v-8.156h3.037c-0.098 0.122-0.174 0.267-0.219 0.425l-0.002 0.009-0.169 0.464-2.647 7.259zM4.8 10.933h-1.379l1.379-1.379v1.379zM27.2 6.667v1.067h-22.087l-1.379 1.379v-2.446h23.467zM1.067 4.39c0-0.215 0.175-0.39 0.39-0.39h9.468l1.143 1.6h-9.402v4.579l-1.067 1.067v11.779l-0.533 1.455v-20.089zM25.53 27.778c-0.036 0.129-0.152 0.222-0.291 0.222h-23.871c-0.001 0-0.002 0-0.003 0-0.096 0-0.182-0.046-0.235-0.118l-0.001-0.001c-0.034-0.044-0.085-0.137-0.066-0.218l5.422-14.865 0.014-0.044c0.036-0.129 0.152-0.222 0.291-0.222h23.871c0.203 0 0.254 0.291 0.268 0.437l-5.399 14.807z"></path>
</symbol>
<symbol id="folder-open" viewBox="0 0 32 32">
<path d="M30.661 14.4h-1.861v-3.343c-0.001-0.804-0.653-1.456-1.457-1.457h-1.743v-1.287l-0.264-0.264-0.001-0.001-8.048-8.047h-13.021v5.867h-2.81c-0.804 0.001-1.456 0.653-1.457 1.457v23.3h0.003c-0.003 0.3 0.091 0.594 0.278 0.84 0.251 0.327 0.641 0.537 1.081 0.537 0.002 0 0.004 0 0.005 0h23.871c0.617 0 1.159-0.415 1.307-0.967l5.454-14.954v-0.094c0-0.918-0.563-1.585-1.339-1.585zM27.343 10.667c0.215 0 0.39 0.175 0.39 0.39v3.343h-2.133v-3.733h1.743zM17.6 1.821l6.179 6.179h-6.179v-6.179zM5.333 1.067h11.2v8h8v5.333h-17.743c-0.076 0-0.151 0.006-0.225 0.019-0.519 0.086-0.953 0.465-1.082 0.948l-0.15 0.412v-14.712zM1.067 7.324c0-0.215 0.175-0.39 0.39-0.39h2.81v11.752l-3.2 8.727v-20.089zM25.53 30.711c-0.036 0.129-0.152 0.222-0.291 0.222h-23.871c-0.001 0-0.002 0-0.003 0-0.096 0-0.182-0.046-0.235-0.118l-0.001-0.001c-0.034-0.044-0.085-0.137-0.066-0.218l5.436-14.908c0.036-0.129 0.152-0.222 0.291-0.222h23.871c0.203 0 0.254 0.291 0.268 0.437l-5.399 14.807z"></path>
<path d="M8.533 9.067h5.333c0.295 0 0.533-0.239 0.533-0.533s-0.239-0.533-0.533-0.533v0h-5.333c-0.295 0-0.533 0.239-0.533 0.533s0.239 0.533 0.533 0.533v0zM8.533 5.333h5.333c0.295 0 0.533-0.239 0.533-0.533s-0.239-0.533-0.533-0.533v0h-5.333c-0.295 0-0.533 0.239-0.533 0.533s0.239 0.533 0.533 0.533v0zM8.533 12.8h12.8c0.295 0 0.533-0.239 0.533-0.533s-0.239-0.533-0.533-0.533v0h-12.8c-0.295 0-0.533 0.239-0.533 0.533s0.239 0.533 0.533 0.533v0z"></path>
</symbol>
<symbol id="github" viewBox="0 0 32 32">
<path d="M0.245 13.949c-1.039 6.541 1.868 14.431 10.831 17.341 0.16 0.029 0.308 0.043 0.447 0.043 1.043 0 1.76-0.776 1.76-1.733-0.129-0.697 0.511-3.523-1.227-3.143-3.359 0.715-3.761-1.161-4.273-2.143 1.448 1.859 3.624 1.812 5.265 1.092 0.911-0.4 0.435-1.419 0.867-1.791 0.213-0.184 0.348-0.456 0.348-0.758 0-0.514-0.387-0.937-0.886-0.994l-0.005-0c-3.085-0.34-5.943-1.335-5.943-6.269 0-2.891 2.007-3.149 1.453-4.359-0.020-0.044-0.444-1.005-0.060-2.465 1.892 0.349 2.763 1.707 3.671 1.463 2.249-0.613 4.725-0.613 6.973 0 0.939 0.252 1.609-1.068 3.651-1.471 0.588 2.205-0.631 2.744 0.137 3.569 0.843 0.907 1.271 2.004 1.271 3.263 0 7.419-6.289 5.276-6.801 6.96-0.028 0.087-0.044 0.187-0.044 0.291 0 0.306 0.138 0.58 0.355 0.763l0.002 0.001c0.813 0.684 0.707 2.44 0.62 3.852-0.089 1.464-0.167 2.727 0.643 3.439 0.285 0.253 0.793 0.524 1.712 0.337 8.845-2.841 11.773-10.696 10.751-17.223-2.795-17.824-28.701-17.803-31.517-0.067zM11.272 28.587l0.005 0.673c-0.781-0.27-1.43-0.551-2.055-0.872l0.089 0.041c0.567 0.145 1.217 0.208 1.961 0.157zM11.765 23.653l-0.020 0.107c-1.137 0.336-2.012 0.001-2.609-1.003l-0.001-0.003c0.907 0.485 1.841 0.747 2.631 0.899zM16 2.667c15.777 0 19.336 21.689 4.625 26.588-0.051-0.396-0.004-1.143 0.028-1.669 0.077-1.268 0.168-2.745-0.284-3.98 6.784-1.412 7.351-8.861 4.739-12.18 0.324-1.269 0.193-4.252-0.972-4.617-0.275-0.087-1.74-0.405-4.583 1.383-1.074-0.265-2.306-0.417-3.574-0.417s-2.5 0.152-3.68 0.438l0.106-0.022c-1.419-0.889-4.616-2.336-5.229-0.8-0.712 1.789-0.543 3.236-0.331 4.040-2.319 2.939-1.624 7.859 0.712 10.168-1.324-0.633-3.148-0.849-3.541 0.419-0.431 1.383 1.216 1.215 2.239 3.739 0.097 0.315 0.277 0.684 0.553 1.051-9.081-7.42-4.7-24.14 9.192-24.14z"></path>
</symbol>
<symbol id="gmail" viewBox="0 0 32 32">
<path fill="#eceff1" style="fill: var(--color15, #eceff1)" d="M4 4h24v24h-24z"></path>
<path fill="#cfd8dc" style="fill: var(--color16, #cfd8dc)" d="M16 18.524l12 9.476v-18.708z"></path>
<path fill="#f44336" style="fill: var(--color17, #f44336)" d="M29 4h-1l-12 9.476-12-9.476h-1c-1.656 0-3 1.344-3 3v18c0 1.656 1.344 3 3 3h1v-18.708l12 9.23 12-9.232v18.71h1c1.656 0 3-1.344 3-3v-18c0-1.656-1.344-3-3-3z"></path>
</symbol>
<symbol id="hacker" viewBox="0 0 32 32">
<path fill="#78777f" style="fill: var(--color18, #78777f)" d="M26.053 29.519l2.889-0.765c1.772-0.469 2.863-2.241 2.483-4.035l-1.346-6.354c-0.781-3.687-3.754-6.494-7.467-7.074-0.442-0.069-12.78-0.069-13.223 0-3.712 0.58-6.685 3.387-7.467 7.074l-1.347 6.354c-0.38 1.793 0.711 3.565 2.483 4.035l2.889 0.765h20.105z"></path>
<path fill="#464550" style="fill: var(--color19, #464550)" d="M31.424 24.719l-1.346-6.354c-0.781-3.687-3.754-6.494-7.467-7.074-0.221-0.034-3.416-0.052-6.611-0.052v18.28h10.053l2.889-0.765c1.772-0.469 2.863-2.242 2.483-4.035z"></path>
<path fill="#3c3a41" style="fill: var(--color20, #3c3a41)" d="M11.731 16.253h8.538c2.694-3.113 3.603-5.779 3.645-5.905 0.030-0.088 0.048-0.19 0.048-0.296 0-0.104-0.017-0.205-0.049-0.299l0.002 0.007c-0.032-0.096-0.789-2.387-2.068-4.713-3.701-6.733-7.998-6.725-11.694 0-1.279 2.326-2.036 4.617-2.068 4.713-0.063 0.191-0.063 0.397 0.001 0.588 0.042 0.127 0.95 2.793 3.645 5.905z"></path>
<path fill="#2b292c" style="fill: var(--color21, #2b292c)" d="M23.915 9.76c-1.179-3.556-4.105-9.76-7.915-9.76v16.253h4.269c2.694-3.113 3.603-5.779 3.645-5.905 0.030-0.088 0.048-0.19 0.048-0.296 0-0.104-0.017-0.205-0.049-0.299l0.002 0.007z"></path>
<path fill="#feb655" style="fill: var(--color22, #feb655)" d="M11.319 8.083c-0.025 0.215-0.047 0.022 0.741 3.703 0.395 1.846 2.052 3.185 3.94 3.185s3.545-1.34 3.94-3.185c0.789-3.689 0.766-3.489 0.741-3.702-2.447-0.731-6.911-0.732-9.361-0z"></path>
<path fill="#fd9a2b" style="fill: var(--color23, #fd9a2b)" d="M20.681 8.083c-1.224-0.366-2.952-0.549-4.681-0.549v7.437c1.888 0 3.545-1.34 3.94-3.185 0.789-3.689 0.766-3.489 0.741-3.702z"></path>
<path fill="#7a86e8" style="fill: var(--color24, #7a86e8)" d="M5.25 27.876v1.937c0 1.208 0.979 2.187 2.188 2.187h17.125c1.208 0 2.188-0.979 2.188-2.187v-1.937h-21.5z"></path>
<path fill="#4b5add" style="fill: var(--color25, #4b5add)" d="M16 27.876v4.124h8.563c1.208 0 2.188-0.979 2.188-2.187v-1.937h-10.75z"></path>
<path fill="#e1e4f9" style="fill: var(--color26, #e1e4f9)" d="M25.188 15.941h-18.375c-0.863 0-1.563 0.699-1.563 1.562v10.685h21.5v-10.685c0-0.863-0.7-1.562-1.563-1.562z"></path>
<path fill="#d6daf6" style="fill: var(--color27, #d6daf6)" d="M26.75 17.503c0-0.863-0.7-1.562-1.563-1.562h-9.188v12.248h10.75v-10.685z"></path>
<path fill="#7a86e8" style="fill: var(--color24, #7a86e8)" d="M17.625 21.127h-3.25c-0.518 0-0.938 0.42-0.938 0.937s0.42 0.937 0.938 0.937h3.25c0.518 0 0.938-0.42 0.938-0.937s-0.42-0.937-0.938-0.937z"></path>
<path fill="#4b5add" style="fill: var(--color25, #4b5add)" d="M17.625 21.127h-1.625v1.875h1.625c0.518 0 0.938-0.42 0.938-0.937s-0.42-0.937-0.938-0.937z"></path>
<path fill="#78777f" style="fill: var(--color18, #78777f)" d="M23.501 11.348c-0.457-3.061-4.017-3.409-7.501-3.521-3.483 0.112-7.044 0.461-7.501 3.522-0.462-0.995-0.526-1.248-0.414-1.588 0.032-0.096 0.789-2.387 2.068-4.713 3.696-6.725 7.993-6.733 11.694 0 1.279 2.326 2.036 4.617 2.068 4.713 0.109 0.333 0.057 0.574-0.414 1.588z"></path>
<path fill="#464550" style="fill: var(--color19, #464550)" d="M23.915 9.76c-1.179-3.556-4.105-9.76-7.915-9.76v7.827c3.483 0.112 7.044 0.461 7.501 3.521 0.471-1.014 0.523-1.255 0.414-1.588z"></path>
</symbol>
<symbol id="link" viewBox="0 0 32 32">
<path d="M29.628 2.522l-0.151-0.151c-3.162-3.162-8.307-3.162-11.469 0l-5.427 5.427c-0.804 0.805-1.441 1.777-1.852 2.859l-0.019 0.056c-1.063 0.393-2.059 1.015-2.911 1.867l-5.427 5.427c-3.162 3.162-3.162 8.307 0 11.469l0.151 0.151c1.581 1.581 3.658 2.372 5.734 2.372s4.154-0.791 5.735-2.372l5.427-5.427c0.804-0.805 1.44-1.777 1.852-2.859l0.019-0.056c1.063-0.393 2.059-1.015 2.912-1.867l5.427-5.427c3.162-3.162 3.162-8.307 0-11.469zM18.096 22.879l-5.427 5.428c-2.433 2.433-6.391 2.433-8.824 0l-0.151-0.151c-2.433-2.433-2.433-6.392 0-8.824l5.427-5.427c2.433-2.433 6.391-2.433 8.824-0l0.151 0.151c0.523 0.524 0.955 1.14 1.267 1.821l0.016 0.039c-0.27 0.107-0.583 0.168-0.911 0.168-0.001 0-0.001 0-0.002 0h0c-0.681 0-1.322-0.265-1.803-0.747-0.029-0.029-0.060-0.056-0.093-0.081l-0.002-0.002c-0.824-0.779-1.896-1.208-3.034-1.208-1.181 0-2.291 0.46-3.126 1.295l-5.276 5.276c-0.835 0.835-1.295 1.945-1.295 3.126s0.46 2.291 1.295 3.126c0.835 0.835 1.945 1.295 3.126 1.295s2.291-0.46 3.126-1.295l5.28-5.28c0.542 0.128 1.164 0.202 1.804 0.202h0c0.169 0 0.339-0.006 0.508-0.016-0.263 0.417-0.553 0.779-0.879 1.105l0-0zM20.88 14.726c-0.403-0.765-0.89-1.422-1.462-1.994l-0.151-0.151c-0.572-0.572-1.228-1.059-1.95-1.44l-0.044-0.021 4.666-4.666c0.482-0.482 1.122-0.747 1.803-0.747s1.322 0.265 1.803 0.747c0.48 0.481 0.745 1.121 0.745 1.803s-0.264 1.323-0.745 1.803zM11.12 17.274c0.403 0.765 0.89 1.422 1.462 1.994l0.151 0.151c0.572 0.572 1.228 1.059 1.95 1.44l0.044 0.021-4.666 4.666c-0.482 0.482-1.122 0.747-1.803 0.747s-1.322-0.265-1.803-0.747c-0.482-0.482-0.747-1.122-0.747-1.803s0.265-1.322 0.747-1.803zM28.306 12.669l-5.428 5.427c-2.433 2.433-6.391 2.433-8.824 0l-0.151-0.151c-0.523-0.524-0.955-1.14-1.267-1.821l-0.016-0.039c0.27-0.107 0.583-0.168 0.911-0.168 0.001 0 0.001 0 0.002 0h-0c0.681 0 1.321 0.265 1.803 0.747 0.030 0.030 0.063 0.057 0.096 0.082 0.824 0.779 1.896 1.208 3.035 1.208 1.181 0 2.291-0.46 3.125-1.295l5.277-5.276c0.834-0.834 1.293-1.944 1.293-3.126s-0.459-2.292-1.293-3.126c-0.835-0.835-1.945-1.295-3.125-1.295s-2.291 0.46-3.126 1.295l-5.281 5.28c-0.542-0.128-1.165-0.202-1.804-0.202-0.179 0-0.356 0.006-0.531 0.017l0.024-0.001c0.263-0.417 0.553-0.779 0.879-1.105l5.427-5.427c2.433-2.433 6.391-2.433 8.824 0l0.151 0.151c2.433 2.433 2.433 6.391 0 8.824z"></path>
</symbol>
<symbol id="linkedin" viewBox="0 0 32 32">
<path d="M16 0c-8.835 0-16 7.165-16 16s7.165 16 16 16 16-7.165 16-16-7.165-16-16-16zM11.351 24.188h-3.897v-11.723h3.897zM9.402 10.863h-0.025c-1.308 0-2.153-0.9-2.153-2.025 0-1.15 0.872-2.026 2.205-2.026s2.153 0.875 2.179 2.026c0 1.125-0.846 2.025-2.205 2.025zM25.401 24.188h-3.896v-6.272c0-1.576-0.564-2.651-1.974-2.651-1.076 0-1.718 0.725-1.999 1.425-0.103 0.25-0.128 0.601-0.128 0.951v6.547h-3.896s0.051-10.624 0-11.723h3.896v1.66c0.518-0.799 1.444-1.935 3.512-1.935 2.564 0 4.486 1.675 4.486 5.276z"></path>
</symbol>
<symbol id="phone" viewBox="0 0 32 32">
<path d="M27.055 4.547c-6.277-6.063-16.23-6.063-22.507 0-6.215 6.435-6.037 16.69 0.398 22.905 6.277 6.063 16.23 6.063 22.507 0 6.215-6.435 6.037-16.69-0.398-22.905zM26.691 26.691l-0.005-0.005c-5.907 5.902-15.48 5.897-21.382-0.010s-5.897-15.48 0.010-21.382 15.48-5.897 21.382 0.010c2.733 2.736 4.423 6.513 4.423 10.686 0 0.003 0 0.007 0 0.010v-0.001c0 0 0 0.001 0 0.001 0 4.175-1.692 7.954-4.428 10.69v0z"></path>
<path d="M25.098 20.611l-3.035-3.024c-0.689-0.69-1.807-0.692-2.497-0.003l-1.742 1.742c-0.069 0.070-0.165 0.113-0.271 0.113-0.082 0-0.159-0.026-0.221-0.070l0.001 0.001c-0.991-0.697-1.861-1.432-2.662-2.235l-0.001-0c-0.717-0.716-1.38-1.486-1.981-2.305l-0.039-0.055c-0.046-0.062-0.073-0.14-0.073-0.224 0-0.105 0.042-0.199 0.111-0.268v0l1.782-1.782c0.688-0.689 0.688-1.805 0-2.495l-3.035-3.035c-0.699-0.669-1.801-0.669-2.5 0l-0.961 0.961c-1.452 1.435-1.97 3.566-1.339 5.508 0.513 1.528 1.183 2.854 2.012 4.062l-0.036-0.055c0.794 1.181 1.647 2.213 2.591 3.153l0.001 0.001c1.028 1.035 2.165 1.959 3.393 2.754l0.079 0.048c1.29 0.854 2.786 1.538 4.384 1.973l0.108 0.025c0.374 0.096 0.803 0.151 1.245 0.151 0.003 0 0.006 0 0.008 0h-0c1.506-0.009 2.867-0.627 3.85-1.619l0.827-0.827c0.688-0.689 0.688-1.805-0-2.495zM24.334 22.369l-0.002 0.002 0.005-0.016-0.826 0.826c-0.784 0.793-1.871 1.284-3.074 1.284-0.356 0-0.702-0.043-1.033-0.124l0.030 0.006c-1.584-0.431-2.972-1.071-4.221-1.901l0.053 0.033c-1.238-0.798-2.315-1.672-3.287-2.65l-0.001-0.001c-0.896-0.889-1.704-1.864-2.413-2.912l-0.044-0.068c-0.741-1.075-1.367-2.312-1.815-3.63l-0.031-0.106c-0.133-0.398-0.21-0.856-0.21-1.332 0-1.205 0.494-2.295 1.29-3.079l0.962-0.962c0.267-0.268 0.701-0.269 0.97-0.002l3.037 3.037c0.268 0.267 0.269 0.701 0.002 0.97l-1.784 1.784c-0.511 0.506-0.576 1.309-0.151 1.89 0.675 0.921 1.375 1.734 2.132 2.489l0.001 0.001c0.845 0.849 1.762 1.624 2.743 2.316l0.065 0.044c0.58 0.405 1.366 0.336 1.868-0.162l1.722-1.75c0.267-0.268 0.701-0.269 0.97-0.002l0.002 0.002 3.040 3.045c0.268 0.267 0.269 0.701 0.002 0.97z"></path>
</symbol>
<symbol id="phone-book" viewBox="0 0 32 32">
<path d="M29.213 9.191c0.262 0 0.475-0.213 0.475-0.475v-5.234c0-1.92-1.562-3.481-3.481-3.481h-18.004c-1.92 0-3.481 1.562-3.481 3.481v0.194h-0.539c-1.066 0-1.933 0.867-1.933 1.933s0.867 1.933 1.933 1.933h0.539v1.331h-0.539c-1.066-0-1.933 0.867-1.933 1.933s0.867 1.933 1.933 1.933h0.539v1.331h-0.539c-1.066 0-1.933 0.867-1.933 1.933s0.867 1.933 1.933 1.933h0.539v1.331h-0.539c-1.066 0-1.933 0.867-1.933 1.933s0.867 1.933 1.933 1.933h0.539v1.331h-0.539c-1.066 0-1.933 0.867-1.933 1.933s0.867 1.933 1.933 1.933h0.539v0.194c0 1.92 1.562 3.481 3.481 3.481h18.004c1.92 0 3.481-1.562 3.481-3.481v-17.902c0-0.262-0.213-0.475-0.475-0.475s-0.475 0.213-0.475 0.475v17.902c0 1.395-1.135 2.531-2.531 2.531h-18.004c-1.396 0-2.531-1.136-2.531-2.531v-0.194h1.553c1.066 0 1.933-0.867 1.933-1.933s-0.867-1.933-1.933-1.933h-1.553v-1.331h1.553c1.066 0 1.933-0.867 1.933-1.933s-0.867-1.933-1.933-1.933h-1.553v-1.331h1.553c1.066 0 1.933-0.867 1.933-1.933s-0.867-1.933-1.933-1.933h-1.553v-1.331h1.553c1.066 0 1.933-0.867 1.933-1.933s-0.867-1.933-1.933-1.933h-1.553v-1.331h1.553c1.066 0 1.933-0.867 1.933-1.933s-0.867-1.933-1.933-1.933h-1.553v-0.194c0-1.395 1.135-2.531 2.531-2.531h11.636v6.72c0 0 0 0 0 0 0 0.182 0.102 0.34 0.252 0.42l0.003 0.001c0.064 0.034 0.14 0.054 0.22 0.054 0.101 0 0.195-0.032 0.272-0.086l-0.002 0.001 2.675-1.856 2.676 1.856c0.075 0.053 0.169 0.085 0.27 0.085 0 0 0 0 0.001 0h-0c0 0 0 0 0 0 0.080 0 0.156-0.020 0.223-0.055l-0.003 0.001c0.153-0.081 0.255-0.239 0.255-0.421 0-0 0-0 0-0v0-6.674c1.169 0.223 2.056 1.252 2.056 2.486v5.234c0 0 0 0 0 0 0 0.262 0.213 0.475 0.475 0.475 0 0 0 0 0 0v0zM8.207 26.392c0 0.542-0.441 0.982-0.982 0.982h-3.042c-0.542 0-0.982-0.44-0.982-0.982s0.441-0.982 0.982-0.982h3.042c0.542 0 0.982 0.441 0.982 0.982zM8.207 21.196c0 0.542-0.441 0.982-0.982 0.982h-3.042c-0.542 0-0.982-0.44-0.982-0.982s0.441-0.982 0.982-0.982h3.042c0.542 0 0.982 0.441 0.982 0.982zM8.207 16c0 0.542-0.441 0.982-0.982 0.982h-3.042c-0.542 0-0.982-0.44-0.982-0.982s0.441-0.982 0.982-0.982h3.042c0.542 0 0.982 0.441 0.982 0.982zM8.207 10.804c0 0.542-0.441 0.982-0.982 0.982h-3.042c-0.542 0-0.982-0.44-0.982-0.982s0.441-0.982 0.982-0.982h3.042c0.542 0 0.982 0.441 0.982 0.982zM8.207 5.608c0 0.542-0.441 0.982-0.982 0.982h-3.042c-0.542 0-0.982-0.44-0.982-0.982s0.441-0.982 0.982-0.982h3.042c0.542 0 0.982 0.441 0.982 0.982zM25.731 6.762l-2.2-1.526c-0.076-0.053-0.17-0.085-0.271-0.085s-0.195 0.032-0.272 0.086l0.002-0.001-2.2 1.526v-5.745h4.942v5.745z"></path>
<path d="M18.007 22.122l-3.427-3.427c-0.186-0.186-0.487-0.186-0.672 0s-0.186 0.487 0 0.672l3.427 3.427c1.081 1.081 2.534 1.665 4.022 1.665 0 0 0 0 0.001 0 0.559 0 1.1-0.081 1.61-0.231l-0.040 0.010c0.919-0.264 1.765-0.764 2.445-1.444l0.928-0.928c0.532-0.532 0.532-1.398 0-1.93l-2.423-2.423c-0.532-0.532-1.398-0.532-1.93 0l-1.208 1.208c-0.203 0.204-0.483 0.33-0.793 0.33-0.001 0-0.002 0-0.003 0h0c-0.001 0-0.002 0-0.003 0-0.31 0-0.591-0.126-0.794-0.33l-3.626-3.626c-0.213-0.213-0.33-0.496-0.33-0.796s0.117-0.584 0.33-0.796l1.209-1.208c0.532-0.532 0.532-1.398 0-1.931l-2.423-2.423c-0.532-0.532-1.398-0.532-1.931 0l-0.928 0.928c-1.074 1.073-1.665 2.501-1.665 4.019s0.591 2.946 1.665 4.019l1.038 1.038c0.186 0.186 0.487 0.186 0.672 0s0.186-0.487 0-0.672l-1.038-1.038c-0.894-0.894-1.386-2.082-1.386-3.347 0-1.104 0.376-2.151 1.067-2.994l2.994 2.994c-0.357 0.385-0.554 0.883-0.554 1.411 0 0.555 0.216 1.076 0.608 1.469l3.626 3.626c0.392 0.392 0.914 0.608 1.468 0.608 0.529 0 1.026-0.196 1.411-0.554l2.994 2.994c-0.496 0.405-1.069 0.707-1.682 0.883-1.657 0.476-3.441 0.015-4.658-1.202zM13.633 8.613l2.423 2.423c0.162 0.162 0.162 0.425-0 0.586l-0.592 0.592-3.009-3.010 0.592-0.592c0.075-0.075 0.179-0.121 0.293-0.121s0.218 0.046 0.293 0.121v0zM23.205 18.185l2.423 2.424c0.075 0.075 0.121 0.179 0.121 0.293s-0.046 0.218-0.121 0.293v0l-0.592 0.592-3.009-3.009 0.592-0.592c0.075-0.075 0.179-0.121 0.293-0.121s0.218 0.046 0.293 0.121v0z"></path>
</symbol>
<symbol id="phonebook-open" viewBox="0 0 32 32">
<path d="M30.5 12.5c0.276 0 0.5-0.224 0.5-0.5v0-3c0-0.276-0.224-0.5-0.5-0.5v0h-3.5v-1h1.5c0.276 0 0.5-0.224 0.5-0.5v0-3c0-0.276-0.224-0.5-0.5-0.5v0h-1.5v-1.5h1.5c0.276 0 0.5-0.224 0.5-0.5s-0.224-0.5-0.5-0.5v0h-25c-0.276 0-0.5 0.224-0.5 0.5v0 2h-0.5c-0.828 0-1.5 0.672-1.5 1.5s0.672 1.5 1.5 1.5v0h0.5v2.5h-0.5c-0.828 0-1.5 0.672-1.5 1.5s0.672 1.5 1.5 1.5v0h3c0.828 0 1.5-0.672 1.5-1.5s-0.672-1.5-1.5-1.5v0h-1.5v-2.5h1.5c0.828 0 1.5-0.672 1.5-1.5s-0.672-1.5-1.5-1.5v0h-1.5v-1.5h20v28h-20v-1.5h1.5c0.828 0 1.5-0.672 1.5-1.5s-0.672-1.5-1.5-1.5v0h-1.5v-1c0-0.276-0.224-0.5-0.5-0.5s-0.5 0.224-0.5 0.5v0 1h-0.5c-0.828 0-1.5 0.672-1.5 1.5s0.672 1.5 1.5 1.5v0h0.5v2c0 0.276 0.224 0.5 0.5 0.5v0h25c0.276 0 0.5-0.224 0.5-0.5v0-6.5c0-0.276-0.224-0.5-0.5-0.5s-0.5 0.224-0.5 0.5v0 6h-1v-7.5h3.5c0.276 0 0.5-0.224 0.5-0.5v0-3c0-0.276-0.224-0.5-0.5-0.5v0h-1.5v-1h1.5c0.276 0 0.5-0.224 0.5-0.5v0-3c0-0.276-0.224-0.5-0.5-0.5v0h-1.5v-1zM6 10.5c0 0.276-0.224 0.5-0.5 0.5v0h-3c-0.276 0-0.5-0.224-0.5-0.5s0.224-0.5 0.5-0.5v0h3c0.276 0 0.5 0.224 0.5 0.5v0zM6 5c0 0.276-0.224 0.5-0.5 0.5v0h-3c-0.276 0-0.5-0.224-0.5-0.5s0.224-0.5 0.5-0.5v0h3c0.276 0 0.5 0.224 0.5 0.5v0zM2 27c0-0.276 0.224-0.5 0.5-0.5v0h3c0.276 0 0.5 0.224 0.5 0.5s-0.224 0.5-0.5 0.5v0h-3c-0.276 0-0.5-0.224-0.5-0.5v0zM30 9.5v2h-3v-2zM28 6.5h-3v-2h3zM26 3.5h-1v-1.5h1zM25 30v-22.5h1v22.5zM30 21.5h-3v-2h3zM30 14.5v2h-1v-2zM28 18.5h-1v-6h1z"></path>
<path d="M2.5 20c-0.828 0-1.5 0.672-1.5 1.5s0.672 1.5 1.5 1.5v0h3c0.828 0 1.5-0.672 1.5-1.5s-0.672-1.5-1.5-1.5v0h-1.5v-2.5h1.5c0.828 0 1.5-0.672 1.5-1.5s-0.672-1.5-1.5-1.5v0h-1.5v-1c0-0.276-0.224-0.5-0.5-0.5s-0.5 0.224-0.5 0.5v0 1h-0.5c-0.828 0-1.5 0.672-1.5 1.5s0.672 1.5 1.5 1.5v0h0.5v2.5zM2 16c0-0.276 0.224-0.5 0.5-0.5v0h3c0.276 0 0.5 0.224 0.5 0.5s-0.224 0.5-0.5 0.5v0h-3c-0.276 0-0.5-0.224-0.5-0.5v0zM6 21.5c0 0.276-0.224 0.5-0.5 0.5v0h-3c-0.276 0-0.5-0.224-0.5-0.5s0.224-0.5 0.5-0.5v0h3c0.276 0 0.5 0.224 0.5 0.5v0zM15.5 10.5c0.828 0 1.5 0.672 1.5 1.5v0c0 0.276 0.224 0.5 0.5 0.5s0.5-0.224 0.5-0.5v0c0-1.381-1.119-2.5-2.5-2.5v0c-0.276 0-0.5 0.224-0.5 0.5s0.224 0.5 0.5 0.5v0z"></path>
<path d="M15.5 8.5c1.933 0 3.5 1.567 3.5 3.5v0c0 0.276 0.224 0.5 0.5 0.5s0.5-0.224 0.5-0.5v0c0-2.485-2.015-4.5-4.5-4.5v0c-0.276 0-0.5 0.224-0.5 0.5s0.224 0.5 0.5 0.5v0z"></path>
<path d="M15.5 6c3.314 0 6 2.686 6 6v0c0 0.276 0.224 0.5 0.5 0.5s0.5-0.224 0.5-0.5v0c0-3.866-3.134-7-7-7v0c-0.276 0-0.5 0.224-0.5 0.5s0.224 0.5 0.5 0.5v0zM13.555 10.205c0.299-0.303 0.484-0.72 0.484-1.18s-0.185-0.877-0.484-1.18l0 0-0.825-0.845c-0.306-0.292-0.722-0.472-1.18-0.472s-0.874 0.18-1.181 0.473l0.001-0.001-0.825 0.825c-0.934 0.936-1.511 2.228-1.511 3.655s0.578 2.719 1.512 3.655l3.3 3.3c0.937 0.933 2.228 1.509 3.655 1.509s2.718-0.577 3.655-1.51l-0 0 0.845-0.805c0.299-0.303 0.484-0.72 0.484-1.18s-0.185-0.877-0.484-1.18l-0.825-0.825c-0.306-0.292-0.722-0.472-1.18-0.472s-0.874 0.18-1.181 0.473l0.001-0.001-0.825 0.825c-0.12 0.12-0.286 0.195-0.47 0.195s-0.35-0.074-0.47-0.195v0c-0.093-0.093-0.222-0.151-0.365-0.151-0.285 0-0.516 0.231-0.516 0.516 0 0.143 0.058 0.272 0.151 0.365v0c0.302 0.302 0.719 0.488 1.18 0.488s0.878-0.187 1.18-0.488l-0 0 0.82-0.845c0.12-0.12 0.286-0.195 0.47-0.195s0.35 0.074 0.47 0.195v0l0.83 0.845c0.12 0.12 0.195 0.286 0.195 0.47s-0.074 0.35-0.195 0.47v0l-0.825 0.825c-0.754 0.752-1.795 1.218-2.945 1.218s-2.191-0.465-2.945-1.218l-3.3-3.3c-0.752-0.754-1.218-1.795-1.218-2.945s0.465-2.191 1.218-2.945l0.825-0.825c0.12-0.12 0.286-0.195 0.47-0.195s0.35 0.074 0.47 0.195v0l0.825 0.825c0.12 0.12 0.195 0.286 0.195 0.47s-0.074 0.35-0.195 0.47v0l-0.845 0.805c-0.302 0.302-0.488 0.719-0.488 1.18s0.187 0.878 0.488 1.18l2 2c0.092 0.113 0.232 0.185 0.388 0.185 0.276 0 0.5-0.224 0.5-0.5 0-0.144-0.061-0.274-0.158-0.365l-0-0-2-2c-0.12-0.12-0.195-0.286-0.195-0.47s0.074-0.35 0.195-0.47v0zM20 23.5c0.276 0 0.5-0.224 0.5-0.5s-0.224-0.5-0.5-0.5v0h-10c-0.276 0-0.5 0.224-0.5 0.5v0 2c0 0.276 0.224 0.5 0.5 0.5v0h10c0.276 0 0.5-0.224 0.5-0.5s-0.224-0.5-0.5-0.5v0h-9.5v-1zM10.5 26.5c-0.276 0-0.5 0.224-0.5 0.5s0.224 0.5 0.5 0.5v0h7c0.276 0 0.5-0.224 0.5-0.5s-0.224-0.5-0.5-0.5v0z"></path>
</symbol>
<symbol id="place" viewBox="0 0 32 32">
<path d="M22.563 10.375c0-3.628-2.945-6.625-6.563-6.625-3.613 0-6.563 2.993-6.563 6.625 0 3.619 2.944 6.563 6.563 6.563s6.563-2.944 6.563-6.563zM11.313 10.375c0-2.619 2.103-4.75 4.688-4.75s4.688 2.131 4.688 4.75c0 2.585-2.103 4.688-4.688 4.688s-4.688-2.103-4.688-4.688z"></path>
<path d="M26.313 10.375c0-5.688-4.618-10.375-10.313-10.375-5.376 0-10.313 4.295-10.313 10.375 0 3.791 3.712 9.519 5.915 12.667-2.45 0.492-5.915 1.764-5.915 4.27 0 3.584 6.676 4.688 10.313 4.688s10.313-1.103 10.313-4.688c0-2.507-3.466-3.778-5.915-4.27 2.192-3.132 5.915-8.872 5.915-12.667zM7.563 10.375c0-5.25 4.38-8.5 8.438-8.5 4.652 0 8.438 3.813 8.438 8.5 0 3.97-5.548 11.796-8.438 15.447-2.89-3.649-8.437-11.474-8.437-15.447zM24.438 27.313c0 1.566-4.591 2.813-8.438 2.813-3.841 0-8.438-1.247-8.438-2.813 0-0.746 1.675-2.040 5.255-2.58 1.367 1.855 2.397 3.101 2.461 3.178 0.173 0.208 0.432 0.339 0.722 0.339s0.549-0.131 0.721-0.338l0.001-0.002c0.064-0.077 1.093-1.323 2.461-3.178 3.58 0.54 5.255 1.834 5.255 2.58z"></path>
</symbol>
<symbol id="up-arrow" viewBox="0 0 32 32">
<path d="M31.609 22.391l-14.666-14.666c-0.521-0.521-1.364-0.521-1.885 0l-14.666 14.666c-0.521 0.521-0.521 1.364 0 1.885s1.364 0.521 1.885 0l13.724-13.724 13.724 13.724c0.26 0.26 0.601 0.391 0.943 0.391s0.683-0.131 0.943-0.391c0.521-0.521 0.521-1.364 0-1.885z"></path>
</symbol>
<symbol id="viber" viewBox="0 0 32 32">
<path fill="#665cac" style="fill: var(--color28, #665cac)" d="M19.2 0h-6.401c-6.177 0-11.201 5.025-11.201 11.201v4.801c0 4.336 2.501 8.271 6.401 10.123v5.346c0 0.464 0.581 0.707 0.911 0.377l4.644-4.644h5.646c6.177 0 11.201-5.025 11.201-11.201v-4.801c0-6.177-5.025-11.201-11.201-11.201z"></path>
<path fill="#523494" style="fill: var(--color29, #523494)" d="M9.599 26.125c-3.9-1.851-6.401-5.786-6.401-10.123v-4.801c0-6.176 5.025-11.201 11.201-11.201h-1.6c-6.177 0-11.201 5.025-11.201 11.201v4.801c0 4.336 2.501 8.271 6.401 10.123v5.346c0 0.464 0.581 0.707 0.911 0.377l0.69-0.69v-5.034z"></path>
<path fill="#fff" style="fill: var(--color8, #fff)" d="M24.053 19.881l-0.48-2.598c-0.041-0.215-0.206-0.382-0.416-0.426l-0.003-0.001-3.772-0.754c-0.031-0.007-0.068-0.010-0.105-0.010-0.147 0-0.281 0.060-0.377 0.156l-1.532 1.532c-2.582-1.157-4.015-2.593-5.275-5.285l1.527-1.527c0.097-0.097 0.156-0.23 0.156-0.377 0-0.037-0.004-0.073-0.011-0.108l0.001 0.003-0.754-3.772c-0.044-0.214-0.211-0.379-0.423-0.419l-0.003-0.001-2.598-0.479c-0.029-0.006-0.063-0.009-0.097-0.009-0.042 0-0.083 0.005-0.122 0.014l0.004-0.001c-0.713 0.165-1.328 0.517-1.81 1l-0 0c-0.863 0.863-1.192 2.121-0.953 3.64 0.401 2.55 1.651 6.1 3.956 8.414l0.031 0.031c2.313 2.304 5.862 3.553 8.413 3.955 0.321 0.051 0.631 0.076 0.927 0.076 1.106 0 2.032-0.349 2.713-1.029 0.483-0.483 0.834-1.097 0.995-1.785l0.005-0.025c0.008-0.035 0.013-0.076 0.013-0.118 0-0.034-0.003-0.068-0.009-0.101l0.001 0.003z"></path>
<path fill="#e5e5e5" style="fill: var(--color30, #e5e5e5)" d="M13.098 11.49l0.522-0.522-0.522 0.522zM18.373 16.775l0.527-0.527-0.527 0.527z"></path>
<path fill="#e5e5e5" style="fill: var(--color30, #e5e5e5)" d="M21.342 21.929c-0.297 0-0.606-0.025-0.927-0.076-2.55-0.401-6.1-1.651-8.413-3.955l-0.031-0.031c-2.305-2.315-3.555-5.864-3.956-8.414-0.193-1.227-0.015-2.284 0.516-3.1-0.213 0.143-0.399 0.296-0.569 0.466l0-0c-0.863 0.863-1.192 2.121-0.953 3.64 0.401 2.55 1.651 6.1 3.956 8.414l0.031 0.031c2.313 2.304 5.862 3.553 8.413 3.955 0.321 0.051 0.631 0.076 0.927 0.076 1.106 0 2.032-0.349 2.713-1.029 0.169-0.17 0.323-0.356 0.457-0.555l0.008-0.013c-0.602 0.392-1.336 0.592-2.173 0.592z"></path>
<path fill="#fff" style="fill: var(--color8, #fff)" d="M17.067 9.068c-0.295 0-0.533 0.239-0.533 0.533s0.239 0.533 0.533 0.533v0c1.177 0 2.134 0.957 2.134 2.134 0 0.291 0.243 0.533 0.533 0.533s0.533-0.243 0.533-0.533c0-1.765-1.436-3.2-3.2-3.2z"></path>
<path fill="#fff" style="fill: var(--color8, #fff)" d="M17.067 6.934c-0.197 0-0.396 0.011-0.592 0.032-0.293 0.032-0.504 0.296-0.472 0.589s0.296 0.504 0.589 0.472c0.142-0.017 0.308-0.026 0.475-0.026h0c2.353 0 4.267 1.914 4.267 4.267 0 0.158-0.009 0.318-0.026 0.475-0.032 0.289 0.183 0.557 0.472 0.589s0.557-0.183 0.589-0.472c0.022-0.195 0.032-0.395 0.032-0.592 0-2.941-2.393-5.334-5.334-5.334z"></path>
<path fill="#fff" style="fill: var(--color8, #fff)" d="M17.067 4.801c-0.191 0-0.384 0.007-0.574 0.022-0.277 0.022-0.493 0.252-0.493 0.532 0 0.014 0.001 0.028 0.002 0.042l-0-0.002c0.022 0.294 0.279 0.514 0.572 0.492 0.163-0.012 0.329-0.019 0.493-0.019 3.529 0 6.401 2.871 6.401 6.401 0 0.499-0.058 0.996-0.171 1.477-0.065 0.276 0.105 0.562 0.378 0.637 0.288 0.079 0.592-0.102 0.66-0.392 0.127-0.517 0.2-1.11 0.2-1.72 0-0.001 0-0.002 0-0.003v0c0-4.118-3.35-7.468-7.468-7.468z"></path>
</symbol>
<symbol id="whatsapp" viewBox="0 0 32 32">
<path fill="#e5e5e5" style="fill: var(--color30, #e5e5e5)" d="M0.743 32c-0.376-0-0.681-0.305-0.681-0.681 0-0.064 0.009-0.126 0.025-0.184l-0.001 0.005 2.080-7.597c-1.295-2.342-1.978-4.991-1.977-7.681 0.004-8.746 7.121-15.862 15.867-15.862 4.242 0.002 8.228 1.654 11.224 4.652s4.644 6.984 4.643 11.222c-0.004 8.747-7.122 15.863-15.867 15.863h-0.007c-2.554-0.001-5.087-0.624-7.342-1.803l-7.792 2.043c-0.057 0.015-0.115 0.022-0.173 0.022z"></path>
<path fill="#64b161" style="fill: var(--color31, #64b161)" d="M1.272 30.789l2.080-7.595c-1.283-2.223-1.958-4.744-1.957-7.327 0.003-8.081 6.58-14.655 14.66-14.655 3.922 0.002 7.603 1.528 10.37 4.298s4.291 6.453 4.29 10.369c-0.003 8.081-6.58 14.656-14.659 14.656-0.001 0 0 0 0 0h-0.007c-2.453-0.001-4.864-0.617-7.005-1.784z"></path>
<path fill="#fff" style="fill: var(--color8, #fff)" d="M0.743 31.319l2.154-7.867c-1.329-2.303-2.028-4.914-2.027-7.59 0.003-8.371 6.815-15.181 15.186-15.181 4.062 0.002 7.875 1.583 10.742 4.452s4.445 6.684 4.444 10.741c-0.004 8.371-6.817 15.182-15.186 15.182-0 0 0 0 0 0h-0.007c-2.541-0.001-5.039-0.638-7.257-1.848zM9.167 26.46l0.461 0.273c1.938 1.15 4.159 1.758 6.424 1.759h0.005c6.957 0 12.619-5.661 12.622-12.619 0.001-3.372-1.31-6.543-3.693-8.928s-5.552-3.699-8.924-3.701c-6.962 0-12.624 5.66-12.627 12.618-0.001 2.384 0.666 4.706 1.93 6.715l0.3 0.477-1.275 4.656z"></path>
<path fill="#fff" style="fill: var(--color8, #fff)" d="M12.261 9.515c-0.284-0.632-0.584-0.645-0.854-0.655-0.221-0.010-0.474-0.009-0.727-0.009s-0.664 0.095-1.012 0.475c-0.348 0.38-1.328 1.298-1.328 3.165s1.36 3.671 1.55 3.925c0.19 0.253 2.625 4.207 6.482 5.728 3.205 1.264 3.858 1.013 4.553 0.95s2.245-0.918 2.561-1.804c0.316-0.886 0.316-1.645 0.221-1.804-0.095-0.158-0.348-0.253-0.727-0.443s-2.245-1.108-2.593-1.234c-0.348-0.127-0.601-0.19-0.854 0.19s-0.98 1.234-1.201 1.487c-0.221 0.254-0.443 0.285-0.822 0.095s-1.602-0.591-3.051-1.883c-1.128-1.006-1.89-2.248-2.111-2.628s-0.004-0.567 0.167-0.774c0.307-0.373 0.822-1.044 0.948-1.297s0.063-0.475-0.031-0.665c-0.095-0.19-0.832-2.066-1.17-2.817z"></path>
</symbol>
<symbol id="zoom" viewBox="0 0 32 32">
<path fill="#4fbfa8" style="fill: var(--color32, #4fbfa8)" d="M24.048 21.953l-2.093 2.093-2.204-2.204 2.093-2.093z"></path>
<path fill="#65c5b8" style="fill: var(--color33, #65c5b8)" d="M21.466 3.68c-4.9-4.906-12.88-4.906-17.786 0-4.9 4.9-4.9 12.88 0 17.786 4.9 4.9 12.88 4.9 17.786 0s4.9-12.886 0-17.786z"></path>
<path fill="#41596b" style="fill: var(--color34, #41596b)" d="M31.046 26.435l-3.968-3.968c-1.272-1.272-3.332-1.272-4.604 0s-1.272 3.332 0 4.604l3.968 3.968c1.272 1.272 3.332 1.272 4.604 0 1.266-1.266 1.266-3.332 0-4.604z"></path>
<path fill="#334a5e" style="fill: var(--color35, #334a5e)" d="M31.046 31.046c-1.272 1.272-3.332 1.272-4.604 0l4.604-4.604c1.266 1.266 1.266 3.332 0 4.604z"></path>
<path fill="#fff" style="fill: var(--color8, #fff)" d="M19.589 19.589c-3.867 3.867-10.165 3.873-14.033 0-3.867-3.867-3.867-10.165 0-14.039 3.867-3.867 10.165-3.867 14.033 0 3.867 3.873 3.867 10.165 0 14.039z"></path>
<path fill="#41596b" style="fill: var(--color34, #41596b)" d="M9.701 15.993l-3.477-3.477 3.477-3.477 0.869 0.869-2.607 2.607 2.607 2.607zM15.445 15.993l-0.875-0.869 2.607-2.607-2.607-2.607 0.875-0.869 3.477 3.477zM12.145 16.704l-1.195-0.308 2.051-7.958 1.195 0.308z"></path>
</symbol>
</defs>
</svg>
