<svg aria-hidden="true" style="position:absolute;width:0;height:0" xmlns="http://www.w3.org/2000/svg" overflow="hidden"><defs><symbol id="arrow-up" viewBox="0 0 32 32"><path fill="var(--color1, #2196f3)" d="M32 16c0 8.837-7.163 16-16 16S0 24.837 0 16 7.163 0 16 0s16 7.163 16 16z"/><path fill="var(--color2, #fafafa)" d="M22.565 13.844a1.336 1.336 0 01-1.232.823h-4V24a1.333 1.333 0 01-2.666 0v-9.333h-4a1.33 1.33 0 01-.942-2.276l5.333-5.333a1.332 1.332 0 011.885 0l5.333 5.333c.381.381.496.955.29 1.453z"/></symbol><symbol id="arrow-upbl" viewBox="0 0 32 32"><path fill="var(--color1, #2196f3)" d="M32 16c0 8.837-7.163 16-16 16S0 24.837 0 16 7.163 0 16 0s16 7.163 16 16z"/><path fill="var(--color3, #000)" d="M16 32C7.177 32 0 24.823 0 16S7.177 0 16 0s16 7.177 16 16-7.177 16-16 16zm0-30C8.28 2 2 8.28 2 16s6.28 14 14 14 14-6.28 14-14S23.72 2 16 2z"/><path fill="var(--color3, #000)" d="M16 25.333a1 1 0 01-1-1V7.667a1 1 0 012 0v16.666a1 1 0 01-1 1z"/><path fill="var(--color3, #000)" d="M21.333 14a.993.993 0 01-.707-.293l-4.627-4.626-4.627 4.627a1 1 0 11-1.415-1.415L15.29 6.96a1 1 0 011.415 0l5.333 5.333A1 1 0 0121.331 14z"/></symbol><symbol id="book-closed" viewBox="0 0 32 32"><path d="M27.733 0H5.866a3.203 3.203 0 00-3.2 3.2v23.467c-.002.105.003.209.013.313a3.293 3.293 0 003.264 2.888h.037-.002 2.021v1.074c0 .394.216.737.536.918l.005.003c.334.192.746.187 1.074-.014l1.585-.951 1.584.95a1.067 1.067 0 001.616-.914v-1.067h13.333a1.6 1.6 0 001.6-1.6V1.6a1.6 1.6 0 00-1.6-1.6zm-14.4 30.933l-1.585-.951a1.06 1.06 0 00-1.102.003l.005-.003-1.585.951V27.2h4.267zM14.4 27.2H16a.533.533 0 100-1.066H6.933a.533.533 0 100 1.066H8v1.6H5.938a2.216 2.216 0 01-2.197-1.924l-.001-.011a1.597 1.597 0 01-.005-.202v.003a2.142 2.142 0 012.133-2.133h19.734c-.336.617-.534 1.352-.534 2.133s.198 1.516.546 2.157l-.012-.024h-11.2zm13.333 1.6H27.2c-.503 0-1.067-.913-1.067-2.133s.563-2.133 1.067-2.133h.533c.187-.001.371-.05.533-.143v3.876a.533.533 0 01-.533.533zm0-5.333h-20.8v-.533a.533.533 0 10-1.066 0v.533h-.001c-.822 0-1.57.312-2.135.823l.003-.002V3.201c0-1.178.955-2.133 2.133-2.133v.533a.533.533 0 101.066 0v-.533h20.8c.295 0 .533.239.533.533v20.8a1.44 1.44 0 01-.531 1.065l-.003.002z"/><path d="M6.4 3.2a.533.533 0 00-.533.533V4.8a.533.533 0 101.066 0V3.733A.533.533 0 006.4 3.2zm0 3.2a.533.533 0 00-.533.533V8a.533.533 0 101.066 0V6.933A.533.533 0 006.4 6.4zm0 3.2a.533.533 0 00-.533.533V11.2a.533.533 0 101.066 0v-1.067A.533.533 0 006.4 9.6zm0 3.2a.533.533 0 00-.533.533V14.4a.533.533 0 101.066 0v-1.067A.533.533 0 006.4 12.8zm0 3.2a.533.533 0 00-.533.533V17.6a.533.533 0 101.066 0v-1.067A.533.533 0 006.4 16zm0 3.2a.533.533 0 00-.533.533V20.8a.533.533 0 101.066 0v-1.067A.533.533 0 006.4 19.2zm5.307-6.933l2.308-2.692a1.6 1.6 0 10-2.428-2.083l-.002.003-3.2 3.733c-.24.277-.387.641-.387 1.04s.147.763.389 1.042l3.198 3.731a1.599 1.599 0 002.427-2.085l.002.002zm1.44 4.138a.53.53 0 01-.752-.057l-.001-.001-3.2-3.733a.528.528 0 01.001-.694l3.199-3.733a.532.532 0 01.947.336.53.53 0 01-.138.358l-2.605 3.04a.53.53 0 00.001.694l-.001-.001 2.605 3.04a.534.534 0 01-.057.751l-.001.001zm10.467-8.913a1.599 1.599 0 00-2.427 2.085l-.002-.002 2.308 2.692-2.308 2.692a1.6 1.6 0 102.428 2.083l.002-.003 3.2-3.733a1.593 1.593 0 000-2.083zm2.391 5.12l-3.2 3.733a.532.532 0 01-.947-.336.53.53 0 01.138-.358l2.605-3.04a.53.53 0 00-.001-.694l.001.001-2.605-3.04a.533.533 0 01.809-.693l3.2 3.733a.53.53 0 01.001.695zm-7.609-6.723a1.601 1.601 0 00-1.839 1.305l-.001.01-1.6 9.6a1.6 1.6 0 103.155.535l.001-.009 1.6-9.6a1.6 1.6 0 00-1.306-1.84l-.009-.001zm-1.337 11.265a.534.534 0 01-1.061-.073c0-.036.004-.071.01-.105l-.001.003 1.6-9.6a.534.534 0 011.061.073.624.624 0 01-.01.106l.001-.003z"/></symbol><symbol id="book-open" viewBox="0 0 32 32"><path d="M3.001 16.503v1.501h-.999a.5.5 0 00-.5.5v12.995a.5.5 0 00.5.5h27.997a.5.5 0 00.5-.5V18.504a.5.5 0 00-.5-.5h-1v-1.501a.5.5 0 00-.5-.5H18a2.49 2.49 0 00-2 1.016 2.49 2.49 0 00-2-1.016H3.501a.5.5 0 00-.5.5zm-.499 2.501h.499v10.495a.5.5 0 00.5.5H14c.651 0 1.2.419 1.408 1H2.502zm26.996 0v11.995H16.592a1.5 1.5 0 011.407-1h10.499a.5.5 0 00.5-.5V19.004zM18 17.003h9.999v11.996H18c-.565 0-1.081.195-1.5.512V18.503c.001-.828.672-1.5 1.5-1.501zm-2.5 1.501v11.008A2.454 2.454 0 0014 29H4.001V17.003H14c.827 0 1.5.674 1.5 1.501z"/><path d="M6.001 19.503H10.5a.5.5 0 000-1H6.001a.5.5 0 000 1zm0 4.002h3.5a.5.5 0 000-1h-3.5a.5.5 0 000 1zm7.499-1h-1.999a.5.5 0 000 1H13.5a.5.5 0 000-1zm0-2.001H8.001a.5.5 0 000 1H13.5a.5.5 0 000-1zm-7.499 1h.5a.5.5 0 000-1h-.5a.5.5 0 000 1zm7.499-3.001h-1a.5.5 0 000 1h1a.5.5 0 000-1zm-7.499 7.003H11a.5.5 0 000-1H6.001a.5.5 0 000 1zm7.499-1H13a.5.5 0 000 1h.5a.5.5 0 000-1zm-5.499 2.001h-2a.5.5 0 000 1h2a.5.5 0 000-1zm5.499 0h-3.499a.5.5 0 000 1H13.5a.5.5 0 000-1zm8.009-7.008h4.499a.5.5 0 000-1h-4.499a.5.5 0 000 1zm4.499 3.002h-3.5a.5.5 0 000 1h3.5a.5.5 0 000-1zm-7.499 1h1.999a.5.5 0 000-1h-1.999a.5.5 0 000 1zm0-2.001h5.499a.5.5 0 000-1h-5.499a.5.5 0 000 1zm7.499-1h-.5a.5.5 0 000 1h.5a.5.5 0 000-1zm-7.499-1.001h1a.5.5 0 000-1h-1a.5.5 0 000 1zm7.499 5.003h-4.999a.5.5 0 000 1h4.999a.5.5 0 000-1zm-7.499 1h.5a.5.5 0 000-1h-.5a.5.5 0 000 1zm7.499 1.001h-2a.5.5 0 000 1h2a.5.5 0 000-1zm-7.499 1h3.499a.5.5 0 000-1h-3.499a.5.5 0 000 1zm-2.863-11.649a.495.495 0 00.707 0l.98-.98c3.526-.636 6.167-3.681 6.167-7.343V7.5v.002c0-4.136-3.364-7.5-7.5-7.5s-7.5 3.365-7.5 7.5v.03a7.457 7.457 0 006.121 7.336l.045.007zM9.5 7.501c0-3.584 2.916-6.5 6.5-6.5s6.5 2.916 6.5 6.5a6.46 6.46 0 01-5.485 6.412.507.507 0 00-.276.14l-.739.739-.739-.739a.502.502 0 00-.273-.14h-.003A6.462 6.462 0 019.5 7.501z"/><path d="M13.848 5.644a.497.497 0 00-.708 0l-1.5 1.5a.497.497 0 000 .708l1.5 1.5a.495.495 0 00.707 0 .497.497 0 000-.708l-1.146-1.146 1.146-1.146a.497.497 0 000-.708zm4.296 3.707a.495.495 0 00.707 0l1.5-1.5a.497.497 0 000-.708l-1.5-1.5a.5.5 0 00-.708.708l1.146 1.147-1.146 1.146a.497.497 0 000 .708zm-2.684.833l2.001-5.002a.5.5 0 00-.927-.375l-.001.003-2.001 5.002a.5.5 0 00.927.374l.001-.003z"/></symbol><symbol id="code" viewBox="0 0 32 32"><path d="M12.587 18.065H7.635a.469.469 0 000 .938h4.952a.469.469 0 000-.938zm0-2.146h-1.338a.469.469 0 000 .938h1.338a.469.469 0 000-.938zm-9.382.937h5.906a.469.469 0 000-.938H3.204a.469.469 0 000 .938zm9.382 5.501H6.256a.469.469 0 000 .938h6.331a.469.469 0 000-.938zM28.872 3.938h-.759a.469.469 0 000 .938h.759c1.207 0 2.19.982 2.19 2.19v2.606H.937V7.066c0-1.207.983-2.19 2.19-2.19h22.78a.469.469 0 000-.938H3.127A3.131 3.131 0 00-.001 7.066v17.066a.469.469 0 00.938 0V10.61h30.125v14.341c0 1.207-.983 2.19-2.19 2.19H3.127a2.2 2.2 0 01-1.894-1.089.47.47 0 00-.643-.168l.002-.001a.47.47 0 00-.168.643l-.001-.002a3.14 3.14 0 002.704 1.554h25.745A3.131 3.131 0 0032 24.95V7.065a3.131 3.131 0 00-3.128-3.128zM12.587 20.211H9.795a.469.469 0 000 .938h2.792a.469.469 0 000-.938zM3.205 14.71h1.338a.469.469 0 000-.938H3.205a.469.469 0 000 .938zm9.382-.938H6.68a.469.469 0 000 .938h5.906a.469.469 0 000-.938zm12.198 7.858a.466.466 0 00.331.137h.002a.466.466 0 00.331-.137l2.765-2.765a.466.466 0 000-.662l-2.765-2.765a.469.469 0 10-.663.664l2.433 2.433-2.433 2.433a.466.466 0 000 .662zm-3.054 1.149a.468.468 0 00.451-.344l.001-.003 2.036-7.553a.468.468 0 10-.905-.244l-2.036 7.552a.47.47 0 00.327.574l.003.001c.037.01.079.016.122.016zM7.197 7.273c0 1.018.828 1.845 1.845 1.845s1.845-.828 1.845-1.845-.828-1.845-1.845-1.845-1.845.828-1.845 1.845zm2.753 0a.909.909 0 11-1.817-.001.909.909 0 011.817.001zM6.04 5.87a.469.469 0 00-.663 0l-.741.741-.74-.741a.467.467 0 00-.664 0 .467.467 0 000 .664l.741.74-.741.741a.469.469 0 00.331.8c.12 0 .24-.046.331-.137l.741-.74.741.74a.471.471 0 00.8-.331.465.465 0 00-.137-.331l-.741-.741.741-.74a.467.467 0 000-.664zM3.205 23.295h.913a.469.469 0 000-.938h-.913a.469.469 0 000 .938zm17.429-7.858a.467.467 0 00-.664 0l-2.765 2.765a.466.466 0 000 .662l2.765 2.765a.471.471 0 00.663 0 .467.467 0 000-.664L18.2 18.532l2.433-2.433a.469.469 0 000-.663zM3.205 21.148h4.452a.469.469 0 000-.938H3.205a.469.469 0 000 .938zm0-2.146h2.293a.469.469 0 000-.938H3.206a.469.469 0 000 .938z"/></symbol><symbol id="down-arrow" viewBox="0 0 32 32"><path fill="var(--color4, #e8edfc)" d="M30.4 8.155c0 .121-.04.232-.108.321l.001-.001-13.861 18.507a.537.537 0 01-.863.002l-.001-.001-.368-.491L1.707 8.476a.526.526 0 01-.107-.32v-.007a.44.44 0 01.039-.182l-.001.003a.527.527 0 01.686-.324l-.004-.001 9.765 3.451a.533.533 0 00.714-.501V1.07c0-.295.239-.533.533-.533h5.333c.295 0 .533.239.533.533v9.527c0 .063.012.124.033.179l-.001-.003a.529.529 0 00.686.324l-.004.001 9.765-3.451a.538.538 0 01.72.506v.006z"/><path fill="var(--color5, #cad9fc)" d="M17.6 1.072v9.521c0 .063.012.124.033.179l-.001-.003a.529.529 0 00.686.324l-.004.001.918-.324a.496.496 0 01-.032-.176V1.067a.533.533 0 00-.533-.533h-1.601c.295 0 .533.239.533.533v.006zm12.08 6.571l-.917.325a.526.526 0 01-.071.508l.001-.001L15.2 26.49l.368.491a.537.537 0 00.863.002l.001-.001L30.293 8.476a.54.54 0 00-.617-.831l.004-.001z"/><path fill="var(--color6, #a4c2f7)" d="M16 27.2v4.267a.542.542 0 01-.431-.217l-.001-.001L1.707 12.742a.521.521 0 01-.084-.473l-.001.004-.021-.005V8.156c0 .121.04.232.108.321l-.001-.001 13.861 18.507a.54.54 0 00.432.219z"/><path fill="var(--color7, #7facfa)" d="M30.4 12.267l-.021.005a.528.528 0 01-.085.469L16.433 31.248a.54.54 0 01-.432.219V27.2a.54.54 0 00.432-.219L30.294 8.474a.526.526 0 00.107-.32z"/><path fill="var(--color8, #fff)" d="M13.685 11.093a.533.533 0 00.714-.501V1.067c0-.295.239-.533.533-.533h-1.6a.533.533 0 00-.533.533v.006c0 10.227.019 9.547-.034 9.695l.919.326zm14.395-3.45l-7.28 2.571c0 .409-.008.454.032.554l7.93-2.801a.527.527 0 00-.685-.323l.004-.001zM1.707 12.741l13.861 18.507a.54.54 0 00.432.219c.326 0 .416-.197.8-.71L3.307 12.742c-.163-.217-.107-.088-.107-4.587v-.007c0-.065.014-.128.039-.184l-.001.003-.918-.324a.526.526 0 00-.682.322l-.001.004c-.053.12-.037-.223-.037 4.299l.021.005a.528.528 0 00.085.469z"/><path fill="var(--color8, #fff)" d="M1.274 13.057l.853-.639 2.556 3.413-.853.639z"/><path fill="var(--color9, #428dff)" d="M15.929 23.147l-1.998-2.667a.533.533 0 10-.852.641l-.001-.001 1.998 2.667a.533.533 0 10.852-.641l.001.001zm-8.79-11.734a.533.533 0 10-.852.641l-.001-.001 4.794 6.4a.533.533 0 10.852-.641l.001.001zm7.794-.746a.533.533 0 00.533-.533v-1.6a.533.533 0 10-1.066 0v1.6c0 .295.239.533.533.533zm0-3.734a.533.533 0 00.533-.533V2.667a.533.533 0 10-1.066 0V6.4c0 .295.239.533.533.533zM2.996 14.982a.533.533 0 110-1.066.533.533 0 110 1.066z"/><path fill="var(--color9, #428dff)" d="M1.28 13.061a.527.527 0 00.74.105l-.001.001a.537.537 0 00.132-.718c0-.021.004-.177-.008-2.503 13.932 18.595 13.033 17.467 13.324 17.636v2.64L4.694 15.836a.533.533 0 10-.852.641l-.001-.001 11.307 15.093a1.066 1.066 0 001.714.002l.002-.003 13.857-18.509a1.136 1.136 0 00.213-.833l.001.006V8.143a1.067 1.067 0 00-1.438-1.001l.007-.002-9.77 3.444V1.069a1.07 1.07 0 00-1.066-1.071h-5.334a1.071 1.071 0 00-1.067 1.071v.003l-.005 9.516-9.759-3.443a1.067 1.067 0 00-1.432 1.002v.012-.001h-.004c.027 4.884-.037 4.569.213 4.901zm15.253 17.164v-2.641c.301-.175-.68 1.055 13.333-17.653 0 2.715-.003 2.354.005 2.407.014.099.95-1.191-13.339 17.887zM11.9 11.594a1.067 1.067 0 001.434-1.002V1.067l5.333.007v9.518a1.067 1.067 0 001.434 1.002l-.007.002 9.766-3.449c0-.053.073-.082-13.861 18.513L2.142 8.147z"/></symbol><symbol id="down-arrow1" viewBox="0 0 32 32"><path fill="var(--color10, #0ba4e0)" d="M32 16c0 8.837-7.163 16-16 16S0 24.837 0 16 7.163 0 16 0s16 7.163 16 16z"/><path fill="var(--color8, #fff)" d="M16 25.097l-4.779-6.422.802-.598L16 23.421l3.977-5.344.802.598z"/><path fill="var(--color8, #fff)" d="M15.5 6.903h1v17.356h-1z"/></symbol><symbol id="down-arrow2" viewBox="0 0 32 32"><path fill="var(--color11, #ffdc00)" d="M28.379 22.795l-4.645-2.005.005-15.627v-.004a.497.497 0 00-.097-.296l.001.001a.517.517 0 00-.226-.191l-.003-.001L13.841.576a.514.514 0 00-.466.023l.003-.001c-.795.443-3.445 1.915-4.304 2.389a.478.478 0 00-.191.19l-.001.002a.493.493 0 00-.08.27v.007l-.005 10.613v.283l-.597-.245a.534.534 0 00-.467.028l.003-.001-4.053 2.256a.527.527 0 00-.272.392v.008a.523.523 0 00.097.375l-.001-.002 10.027 14.08a.534.534 0 00.686.164l-.003.001 10.357-5.515 3.856-2.139a.538.538 0 00-.045-.959l-.003-.001z"/><path fill="var(--color12, #ff9801)" d="M8.795 14.352v3.954a.533.533 0 01-.75.487l.003.001-4.64-2.005v-.005a.525.525 0 01.269-.393l.003-.001 4.053-2.256a.534.534 0 01.467-.025l-.004-.001zm14.848-9.488l-4.704 2.613-.091-.037L8.88 3.179a.478.478 0 01.19-.191l.002-.001c.565-.315 1.904-1.056 2.981-1.653.56-.309 1.051-.581 1.323-.736a.52.52 0 01.468-.02l-.003-.001 9.573 4.096a.505.505 0 01.229.192z"/><path fill="var(--color12, #ff9801)" d="M23.739 5.163l-.005 15.627-4.709 2.613a.31.31 0 01-.037-.067l-.001-.002a.472.472 0 01-.053-.221v-.009l.005-15.627 3.147-1.744v-.005l1.557-.864c.06.081.096.184.096.294v.005z"/><path fill="var(--color13, #f57c00)" d="M23.643 4.864l-1.504.835-.005 15.091-3.2 1.775v.547c0 .081.02.157.055.224l-.001-.003a.255.255 0 00.037.069l4.709-2.613.005-15.627v-.004a.497.497 0 00-.097-.296l.001.001z"/><path fill="var(--color12, #ff9801)" d="M28.427 23.755l-1.349.752-2.507 1.387-5.317-2.299a.457.457 0 01-.118-.075.488.488 0 01-.111-.116l-.001-.002 4.709-2.613 4.645 2.005a.537.537 0 01.051.959l-.003.001z"/><path fill="var(--color3, #000)" d="M13.095 31.55a1.071 1.071 0 001.375.325l-.006.003 14.226-7.661a1.072 1.072 0 00-.094-1.91l-.007-.003-4.32-1.867V5.156a1.06 1.06 0 00-.64-.974l-.007-.003L14.049.084a1.046 1.046 0 00-.939.048l.005-.003-4.305 2.39a1.086 1.086 0 00-.549.934v10.119a1.07 1.07 0 00-.794.096l.006-.003L3.42 15.92a1.064 1.064 0 00-.351 1.553l-.002-.003zm.87-.617L4.702 17.929l3.132 1.354a1.07 1.07 0 001.5-.979V3.951l9.071 3.877v15.276c-.001.213.062.423.181.601.242.351.036.198 4.758 2.24zm9.238-10.457l-3.733 2.07V7.79l3.733-2.073zm4.965 2.813L24.541 25.3l-4.402-1.906 3.627-2.011zM13.63 1.067l8.895 3.806-3.621 2.01-8.902-3.804zM7.995 14.6l.267.107v3.596l-3.897-1.685z"/><path fill="var(--color3, #000)" d="M10.933 5.867a.533.533 0 00-.533.533v7.467a.533.533 0 101.066 0V6.4a.533.533 0 00-.533-.533zm0 10.133a.533.533 0 00-.533.533v1.6a.533.533 0 101.066 0v-1.6a.533.533 0 00-.533-.533z"/></symbol><symbol id="down-arrow3" viewBox="0 0 32 32"><path d="M13.095 31.55a1.071 1.071 0 001.375.325l-.006.003 14.226-7.661a1.072 1.072 0 00-.094-1.91l-.007-.003-4.32-1.867V5.156a1.06 1.06 0 00-.64-.974l-.007-.003L14.049.084a1.046 1.046 0 00-.939.048l.005-.003-4.305 2.39a1.086 1.086 0 00-.549.934v10.119a1.07 1.07 0 00-.794.096l.006-.003L3.42 15.92a1.064 1.064 0 00-.351 1.553l-.002-.003zm.87-.617L4.702 17.929l3.132 1.354a1.07 1.07 0 001.5-.979V3.951l9.071 3.877v15.276c-.001.213.062.423.181.601.242.351.036.198 4.758 2.24zm9.238-10.457l-3.733 2.07V7.79l3.733-2.073zm4.965 2.813L24.541 25.3l-4.402-1.906 3.627-2.011zM13.63 1.067l8.895 3.806-3.621 2.01-8.902-3.804zM7.995 14.6l.267.107v3.596l-3.897-1.685z"/><path d="M10.933 5.867a.533.533 0 00-.533.533v7.467a.533.533 0 101.066 0V6.4a.533.533 0 00-.533-.533zm0 10.133a.533.533 0 00-.533.533v1.6a.533.533 0 101.066 0v-1.6a.533.533 0 00-.533-.533z"/></symbol><symbol id="facebook" viewBox="0 0 32 32"><path fill="var(--color14, #4267b2)" d="M30.234 0H1.765A1.766 1.766 0 000 1.766v28.469A1.766 1.766 0 001.766 32h28.467c.975 0 1.766-.79 1.766-1.766V1.764c0-.975-.791-1.765-1.766-1.765z"/><path fill="var(--color8, #fff)" d="M22.094 32V19.625h4.172l.625-4.844h-4.797v-3.085c0-1.399.388-2.352 2.395-2.352h2.543V5.023c-.442-.059-1.96-.19-3.726-.19-3.688 0-6.211 2.25-6.211 6.384v3.565h-4.156v4.844h4.156v12.375z"/></symbol><symbol id="folder-closed" viewBox="0 0 32 32"><path d="M30.661 11.467h-1.328V7.734h-1.067V5.601H13.379l-1.905-2.667H1.456A1.46 1.46 0 00-.001 4.391v23.3h.003a1.36 1.36 0 001.359 1.377h23.876c.617 0 1.159-.415 1.307-.967l5.454-14.954v-.094c0-.918-.563-1.585-1.339-1.585zm-2.394 0H24v-.533a.533.533 0 10-1.066 0v.533h-2.667v-.533a.533.533 0 10-1.066 0v.533h-2.667v-.533a.533.533 0 10-1.066 0v.533h-2.667v-.533a.533.533 0 10-1.066 0v.533H9.068v-.533a.533.533 0 10-1.066 0v.533h-1.21a1.38 1.38 0 00-.924.36l.001-.001V8.8h22.4v2.667zm-25.6 8.689V12h3.037a1.21 1.21 0 00-.219.425l-.002.009-.169.464-2.647 7.259zM4.8 10.933H3.421L4.8 9.554v1.379zm22.4-4.266v1.067H5.113L3.734 9.113V6.667h23.467zM1.067 4.39a.39.39 0 01.39-.39h9.468l1.143 1.6H2.666v4.579l-1.067 1.067v11.779l-.533 1.455V4.391zM25.53 27.778a.302.302 0 01-.291.222H1.365a.291.291 0 01-.235-.118l-.001-.001c-.034-.044-.085-.137-.066-.218l5.422-14.865.014-.044a.302.302 0 01.291-.222h23.871c.203 0 .254.291.268.437L25.53 27.776z"/></symbol><symbol id="folder-open" viewBox="0 0 32 32"><path d="M30.661 14.4H28.8v-3.343A1.46 1.46 0 0027.343 9.6H25.6V8.313l-.264-.264-.001-.001L17.287.001H4.266v5.867h-2.81A1.46 1.46 0 00-.001 7.325v23.3h.003a1.36 1.36 0 001.359 1.377h23.876c.617 0 1.159-.415 1.307-.967l5.454-14.954v-.094c0-.918-.563-1.585-1.339-1.585zm-3.318-3.733a.39.39 0 01.39.39V14.4H25.6v-3.733h1.743zM17.6 1.821L23.779 8H17.6V1.821zM5.333 1.067h11.2v8h8V14.4H6.79c-.076 0-.151.006-.225.019-.519.086-.953.465-1.082.948l-.15.412V1.067zM1.067 7.324a.39.39 0 01.39-.39h2.81v11.752l-3.2 8.727V7.324zM25.53 30.711a.302.302 0 01-.291.222H1.365a.291.291 0 01-.235-.118l-.001-.001c-.034-.044-.085-.137-.066-.218l5.436-14.908a.302.302 0 01.291-.222h23.871c.203 0 .254.291.268.437L25.53 30.71z"/><path d="M8.533 9.067h5.333a.533.533 0 100-1.066H8.533a.533.533 0 100 1.066zm0-3.734h5.333a.533.533 0 100-1.066H8.533a.533.533 0 100 1.066zm0 7.467h12.8a.533.533 0 100-1.066h-12.8a.533.533 0 100 1.066z"/></symbol><symbol id="github" viewBox="0 0 32 32"><path d="M.245 13.949C-.794 20.49 2.113 28.38 11.076 31.29c.16.029.308.043.447.043 1.043 0 1.76-.776 1.76-1.733-.129-.697.511-3.523-1.227-3.143-3.359.715-3.761-1.161-4.273-2.143 1.448 1.859 3.624 1.812 5.265 1.092.911-.4.435-1.419.867-1.791a1 1 0 00-.538-1.752h-.005c-3.085-.34-5.943-1.335-5.943-6.269 0-2.891 2.007-3.149 1.453-4.359-.02-.044-.444-1.005-.06-2.465 1.892.349 2.763 1.707 3.671 1.463a13.45 13.45 0 016.973 0c.939.252 1.609-1.068 3.651-1.471.588 2.205-.631 2.744.137 3.569.843.907 1.271 2.004 1.271 3.263 0 7.419-6.289 5.276-6.801 6.96a.996.996 0 00.311 1.054l.002.001c.813.684.707 2.44.62 3.852-.089 1.464-.167 2.727.643 3.439.285.253.793.524 1.712.337 8.845-2.841 11.773-10.696 10.751-17.223C28.968-3.81 3.062-3.789.246 13.947zm11.027 14.638l.005.673c-.781-.27-1.43-.551-2.055-.872l.089.041a6.174 6.174 0 001.961.157zm.493-4.934l-.02.107c-1.137.336-2.012.001-2.609-1.003l-.001-.003c.907.485 1.841.747 2.631.899zM16 2.667c15.777 0 19.336 21.689 4.625 26.588-.051-.396-.004-1.143.028-1.669.077-1.268.168-2.745-.284-3.98 6.784-1.412 7.351-8.861 4.739-12.18.324-1.269.193-4.252-.972-4.617-.275-.087-1.74-.405-4.583 1.383-1.074-.265-2.306-.417-3.574-.417s-2.5.152-3.68.438l.106-.022c-1.419-.889-4.616-2.336-5.229-.8-.712 1.789-.543 3.236-.331 4.04-2.319 2.939-1.624 7.859.712 10.168-1.324-.633-3.148-.849-3.541.419-.431 1.383 1.216 1.215 2.239 3.739.097.315.277.684.553 1.051-9.081-7.42-4.7-24.14 9.192-24.14z"/></symbol><symbol id="gmail" viewBox="0 0 32 32"><path fill="var(--color15, #eceff1)" d="M4 4h24v24H4z"/><path fill="var(--color16, #cfd8dc)" d="M16 18.524L28 28V9.292z"/><path fill="var(--color17, #f44336)" d="M29 4h-1l-12 9.476L4 4H3C1.344 4 0 5.344 0 7v18c0 1.656 1.344 3 3 3h1V9.292l12 9.23L28 9.29V28h1c1.656 0 3-1.344 3-3V7c0-1.656-1.344-3-3-3z"/></symbol><symbol id="hacker" viewBox="0 0 32 32"><path fill="var(--color18, #78777f)" d="M26.053 29.519l2.889-.765a3.435 3.435 0 002.483-4.035l-1.346-6.354a9.056 9.056 0 00-7.467-7.074c-.442-.069-12.78-.069-13.223 0a9.059 9.059 0 00-7.467 7.074L.575 24.719a3.436 3.436 0 002.483 4.035l2.889.765h20.105z"/><path fill="var(--color19, #464550)" d="M31.424 24.719l-1.346-6.354a9.056 9.056 0 00-7.467-7.074c-.221-.034-3.416-.052-6.611-.052v18.28h10.053l2.889-.765a3.435 3.435 0 002.483-4.035z"/><path fill="var(--color20, #3c3a41)" d="M11.731 16.253h8.538c2.694-3.113 3.603-5.779 3.645-5.905a.928.928 0 00-.001-.595l.002.007c-.032-.096-.789-2.387-2.068-4.713-3.701-6.733-7.998-6.725-11.694 0C8.874 7.373 8.117 9.664 8.085 9.76a.931.931 0 00.001.588c.042.127.95 2.793 3.645 5.905z"/><path fill="var(--color21, #2b292c)" d="M23.915 9.76C22.736 6.204 19.81 0 16 0v16.253h4.269c2.694-3.113 3.603-5.779 3.645-5.905a.928.928 0 00-.001-.595l.002.007z"/><path fill="var(--color22, #feb655)" d="M11.319 8.083c-.025.215-.047.022.741 3.703.395 1.846 2.052 3.185 3.94 3.185s3.545-1.34 3.94-3.185c.789-3.689.766-3.489.741-3.702-2.447-.731-6.911-.732-9.361 0z"/><path fill="var(--color23, #fd9a2b)" d="M20.681 8.083c-1.224-.366-2.952-.549-4.681-.549v7.437a4.05 4.05 0 003.94-3.185c.789-3.689.766-3.489.741-3.702z"/><path fill="var(--color24, #7a86e8)" d="M5.25 27.876v1.937c0 1.208.979 2.187 2.188 2.187h17.125a2.188 2.188 0 002.188-2.187v-1.937h-21.5z"/><path fill="var(--color25, #4b5add)" d="M16 27.876V32h8.563a2.188 2.188 0 002.188-2.187v-1.937h-10.75z"/><path fill="var(--color26, #e1e4f9)" d="M25.188 15.941H6.813c-.863 0-1.563.699-1.563 1.562v10.685h21.5V17.503c0-.863-.7-1.562-1.563-1.562z"/><path fill="var(--color27, #d6daf6)" d="M26.75 17.503c0-.863-.7-1.562-1.563-1.562h-9.188v12.248h10.75V17.504z"/><path fill="var(--color24, #7a86e8)" d="M17.625 21.127h-3.25a.938.938 0 100 1.874h3.25a.938.938 0 100-1.874z"/><path fill="var(--color25, #4b5add)" d="M17.625 21.127H16v1.875h1.625a.938.938 0 100-1.874z"/><path fill="var(--color18, #78777f)" d="M23.501 11.348C23.044 8.287 19.484 7.939 16 7.827c-3.483.112-7.044.461-7.501 3.522-.462-.995-.526-1.248-.414-1.588.032-.096.789-2.387 2.068-4.713 3.696-6.725 7.993-6.733 11.694 0 1.279 2.326 2.036 4.617 2.068 4.713.109.333.057.574-.414 1.588z"/><path fill="var(--color19, #464550)" d="M23.915 9.76C22.736 6.204 19.81 0 16 0v7.827c3.483.112 7.044.461 7.501 3.521.471-1.014.523-1.255.414-1.588z"/></symbol><symbol id="link" viewBox="0 0 32 32"><path d="M29.628 2.522l-.151-.151c-3.162-3.162-8.307-3.162-11.469 0l-5.427 5.427a8.14 8.14 0 00-1.852 2.859l-.019.056a8.06 8.06 0 00-2.911 1.867l-5.427 5.427c-3.162 3.162-3.162 8.307 0 11.469l.151.151c1.581 1.581 3.658 2.372 5.734 2.372s4.154-.791 5.735-2.372l5.427-5.427a8.155 8.155 0 001.852-2.859l.019-.056a8.073 8.073 0 002.912-1.867l5.427-5.427c3.162-3.162 3.162-8.307 0-11.469zM18.096 22.879l-5.427 5.428a6.246 6.246 0 01-8.824 0l-.151-.151a6.246 6.246 0 010-8.824l5.427-5.427a6.246 6.246 0 018.824 0l.151.151a6.29 6.29 0 011.267 1.821l.016.039a2.49 2.49 0 01-.911.168h-.002a2.53 2.53 0 01-1.803-.747.9.9 0 00-.093-.081l-.002-.002a4.39 4.39 0 00-3.034-1.208c-1.181 0-2.291.46-3.126 1.295l-5.276 5.276c-.835.835-1.295 1.945-1.295 3.126s.46 2.291 1.295 3.126 1.945 1.295 3.126 1.295 2.291-.46 3.126-1.295l5.28-5.28a7.97 7.97 0 001.804.202c.169 0 .339-.006.508-.016a6.29 6.29 0 01-.879 1.105zm2.784-8.153a8.183 8.183 0 00-1.462-1.994l-.151-.151a8.114 8.114 0 00-1.95-1.44l-.044-.021 4.666-4.666c.482-.482 1.122-.747 1.803-.747s1.322.265 1.803.747c.48.481.745 1.121.745 1.803s-.264 1.323-.745 1.803zm-9.76 2.548c.403.765.89 1.422 1.462 1.994l.151.151a8.114 8.114 0 001.95 1.44l.044.021-4.666 4.666c-.482.482-1.122.747-1.803.747s-1.322-.265-1.803-.747c-.482-.482-.747-1.122-.747-1.803s.265-1.322.747-1.803zm17.186-4.605l-5.428 5.427a6.246 6.246 0 01-8.824 0l-.151-.151a6.29 6.29 0 01-1.267-1.821l-.016-.039a2.49 2.49 0 01.911-.168h.002c.681 0 1.321.265 1.803.747.03.03.063.057.096.082a4.39 4.39 0 003.035 1.208c1.181 0 2.291-.46 3.125-1.295l5.277-5.276c.834-.834 1.293-1.944 1.293-3.126s-.459-2.292-1.293-3.126c-.835-.835-1.945-1.295-3.125-1.295s-2.291.46-3.126 1.295l-5.281 5.28a7.976 7.976 0 00-2.335-.185l.024-.001a6.29 6.29 0 01.879-1.105l5.427-5.427a6.246 6.246 0 018.824 0l.151.151a6.246 6.246 0 010 8.824z"/></symbol><symbol id="linkedin" viewBox="0 0 32 32"><path d="M16 0C7.165 0 0 7.165 0 16s7.165 16 16 16 16-7.165 16-16S24.835 0 16 0zm-4.649 24.188H7.454V12.465h3.897zM9.402 10.863h-.025c-1.308 0-2.153-.9-2.153-2.025 0-1.15.872-2.026 2.205-2.026s2.153.875 2.179 2.026c0 1.125-.846 2.025-2.205 2.025zm15.999 13.325h-3.896v-6.272c0-1.576-.564-2.651-1.974-2.651-1.076 0-1.718.725-1.999 1.425-.103.25-.128.601-.128.951v6.547h-3.896s.051-10.624 0-11.723h3.896v1.66c.518-.799 1.444-1.935 3.512-1.935 2.564 0 4.486 1.675 4.486 5.276z"/></symbol><symbol id="phone" viewBox="0 0 32 32"><path d="M27.055 4.547c-6.277-6.063-16.23-6.063-22.507 0-6.215 6.435-6.037 16.69.398 22.905 6.277 6.063 16.23 6.063 22.507 0 6.215-6.435 6.037-16.69-.398-22.905zm-.364 22.144l-.005-.005c-5.907 5.902-15.48 5.897-21.382-.01s-5.897-15.48.01-21.382 15.48-5.897 21.382.01a15.072 15.072 0 014.423 10.686V16v-.001V16a15.07 15.07 0 01-4.428 10.69z"/><path d="M25.098 20.611l-3.035-3.024a1.766 1.766 0 00-2.497-.003l-1.742 1.742a.38.38 0 01-.492.043l.001.001a19.836 19.836 0 01-2.662-2.235h-.001a19.88 19.88 0 01-1.981-2.305l-.039-.055a.376.376 0 01.038-.492l1.782-1.782a1.766 1.766 0 000-2.495l-3.035-3.035a1.808 1.808 0 00-2.5 0l-.961.961a5.398 5.398 0 00-1.339 5.508 16.179 16.179 0 002.012 4.062l-.036-.055a20.69 20.69 0 002.591 3.153l.001.001a20.436 20.436 0 003.393 2.754l.079.048a15.242 15.242 0 004.384 1.973l.108.025a5.08 5.08 0 001.245.151h.008a5.45 5.45 0 003.85-1.619l.827-.827a1.766 1.766 0 000-2.495zm-.764 1.758l-.002.002.005-.016-.826.826a4.308 4.308 0 01-3.074 1.284c-.356 0-.702-.043-1.033-.124l.03.006a14.335 14.335 0 01-4.221-1.901l.053.033a19.403 19.403 0 01-3.287-2.65l-.001-.001a19.47 19.47 0 01-2.413-2.912l-.044-.068a14.875 14.875 0 01-1.815-3.63l-.031-.106a4.246 4.246 0 01-.21-1.332c0-1.205.494-2.295 1.29-3.079l.962-.962a.687.687 0 01.97-.002l3.037 3.037a.687.687 0 01.002.97l-1.784 1.784a1.452 1.452 0 00-.151 1.89 21.053 21.053 0 002.132 2.489l.001.001a20.723 20.723 0 002.743 2.316l.065.044c.58.405 1.366.336 1.868-.162l1.722-1.75a.687.687 0 01.97-.002l.002.002 3.04 3.045a.687.687 0 01.002.97z"/></symbol><symbol id="phone-book" viewBox="0 0 32 32"><path d="M29.213 9.191a.475.475 0 00.475-.475V3.482A3.485 3.485 0 0026.207.001H8.203a3.485 3.485 0 00-3.481 3.481v.194h-.539c-1.066 0-1.933.867-1.933 1.933s.867 1.933 1.933 1.933h.539v1.331h-.539c-1.066 0-1.933.867-1.933 1.933s.867 1.933 1.933 1.933h.539v1.331h-.539c-1.066 0-1.933.867-1.933 1.933s.867 1.933 1.933 1.933h.539v1.331h-.539c-1.066 0-1.933.867-1.933 1.933s.867 1.933 1.933 1.933h.539v1.331h-.539c-1.066 0-1.933.867-1.933 1.933s.867 1.933 1.933 1.933h.539v.194a3.485 3.485 0 003.481 3.481h18.004a3.485 3.485 0 003.481-3.481V10.622a.475.475 0 00-.95 0v17.902a2.534 2.534 0 01-2.531 2.531H8.203a2.534 2.534 0 01-2.531-2.531v-.194h1.553c1.066 0 1.933-.867 1.933-1.933s-.867-1.933-1.933-1.933H5.672v-1.331h1.553c1.066 0 1.933-.867 1.933-1.933s-.867-1.933-1.933-1.933H5.672v-1.331h1.553c1.066 0 1.933-.867 1.933-1.933s-.867-1.933-1.933-1.933H5.672v-1.331h1.553c1.066 0 1.933-.867 1.933-1.933s-.867-1.933-1.933-1.933H5.672V7.542h1.553c1.066 0 1.933-.867 1.933-1.933s-.867-1.933-1.933-1.933H5.672v-.194A2.534 2.534 0 018.203.951h11.636v6.72c0 .182.102.34.252.42l.003.001a.471.471 0 00.492-.032l-.002.001 2.675-1.856 2.676 1.856a.468.468 0 00.27.085h.001a.48.48 0 00.223-.055l-.003.001a.475.475 0 00.255-.421V.997a2.535 2.535 0 012.056 2.486v5.234c0 .262.213.475.475.475zM8.207 26.392a.983.983 0 01-.982.982H4.183a.982.982 0 010-1.964h3.042c.542 0 .982.441.982.982zm0-5.196a.983.983 0 01-.982.982H4.183a.982.982 0 010-1.964h3.042c.542 0 .982.441.982.982zm0-5.196a.983.983 0 01-.982.982H4.183a.982.982 0 010-1.964h3.042c.542 0 .982.441.982.982zm0-5.196a.983.983 0 01-.982.982H4.183a.982.982 0 010-1.964h3.042c.542 0 .982.441.982.982zm0-5.196a.983.983 0 01-.982.982H4.183a.982.982 0 010-1.964h3.042c.542 0 .982.441.982.982zm17.524 1.154l-2.2-1.526a.474.474 0 00-.543.001l.002-.001-2.2 1.526V1.017h4.942v5.745z"/><path d="M18.007 22.122l-3.427-3.427a.474.474 0 10-.672.672l3.427 3.427a5.687 5.687 0 004.022 1.665h.001c.559 0 1.1-.081 1.61-.231l-.04.01a5.692 5.692 0 002.445-1.444l.928-.928a1.366 1.366 0 000-1.93l-2.423-2.423a1.366 1.366 0 00-1.93 0l-1.208 1.208c-.203.204-.483.33-.793.33h-.006c-.31 0-.591-.126-.794-.33l-3.626-3.626c-.213-.213-.33-.496-.33-.796s.117-.584.33-.796l1.209-1.208a1.368 1.368 0 000-1.931l-2.423-2.423a1.368 1.368 0 00-1.931 0l-.928.928c-1.074 1.073-1.665 2.501-1.665 4.019s.591 2.946 1.665 4.019l1.038 1.038a.474.474 0 10.672-.672l-1.038-1.038a4.7 4.7 0 01-1.386-3.347c0-1.104.376-2.151 1.067-2.994l2.994 2.994a2.064 2.064 0 00-.554 1.411c0 .555.216 1.076.608 1.469l3.626 3.626c.392.392.914.608 1.468.608.529 0 1.026-.196 1.411-.554l2.994 2.994a4.726 4.726 0 01-6.34-.319zM13.633 8.613l2.423 2.423a.414.414 0 010 .586l-.592.592-3.009-3.01.592-.592a.413.413 0 01.586 0zm9.572 9.572l2.423 2.424a.413.413 0 010 .586l-.592.592-3.009-3.009.592-.592a.413.413 0 01.586 0z"/></symbol><symbol id="phonebook-open" viewBox="0 0 32 32"><path d="M30.5 12.5a.5.5 0 00.5-.5V9a.5.5 0 00-.5-.5H27v-1h1.5A.5.5 0 0029 7V4a.5.5 0 00-.5-.5H27V2h1.5a.5.5 0 000-1h-25a.5.5 0 00-.5.5v2h-.5a1.5 1.5 0 000 3H3V9h-.5a1.5 1.5 0 000 3h3a1.5 1.5 0 000-3H4V6.5h1.5a1.5 1.5 0 000-3H4V2h20v28H4v-1.5h1.5a1.5 1.5 0 000-3H4v-1a.5.5 0 00-1 0v1h-.5a1.5 1.5 0 000 3H3v2a.5.5 0 00.5.5h25a.5.5 0 00.5-.5V24a.5.5 0 00-1 0v6h-1v-7.5h3.5a.5.5 0 00.5-.5v-3a.5.5 0 00-.5-.5H29v-1h1.5a.5.5 0 00.5-.5v-3a.5.5 0 00-.5-.5H29v-1zM6 10.5a.5.5 0 01-.5.5h-3a.5.5 0 010-1h3a.5.5 0 01.5.5zM6 5a.5.5 0 01-.5.5h-3a.5.5 0 010-1h3A.5.5 0 016 5zM2 27a.5.5 0 01.5-.5h3a.5.5 0 010 1h-3A.5.5 0 012 27zM30 9.5v2h-3v-2zm-2-3h-3v-2h3zm-2-3h-1V2h1zM25 30V7.5h1V30zm5-8.5h-3v-2h3zm0-7v2h-1v-2zm-2 4h-1v-6h1z"/><path d="M2.5 20a1.5 1.5 0 000 3h3a1.5 1.5 0 000-3H4v-2.5h1.5a1.5 1.5 0 000-3H4v-1a.5.5 0 00-1 0v1h-.5a1.5 1.5 0 000 3H3V20zM2 16a.5.5 0 01.5-.5h3a.5.5 0 010 1h-3A.5.5 0 012 16zm4 5.5a.5.5 0 01-.5.5h-3a.5.5 0 010-1h3a.5.5 0 01.5.5zm9.5-11A1.5 1.5 0 0117 12a.5.5 0 001 0 2.5 2.5 0 00-2.5-2.5.5.5 0 000 1z"/><path d="M15.5 8.5A3.5 3.5 0 0119 12a.5.5 0 001 0 4.5 4.5 0 00-4.5-4.5.5.5 0 000 1z"/><path d="M15.5 6a6 6 0 016 6 .5.5 0 001 0 7 7 0 00-7-7 .5.5 0 000 1zm-1.945 4.205c.299-.303.484-.72.484-1.18s-.185-.877-.484-1.18L12.73 7c-.306-.292-.722-.472-1.18-.472s-.874.18-1.181.473L10.37 7l-.825.825c-.934.936-1.511 2.228-1.511 3.655s.578 2.719 1.512 3.655l3.3 3.3c.937.933 2.228 1.509 3.655 1.509s2.718-.577 3.655-1.51l.845-.805c.299-.303.484-.72.484-1.18s-.185-.877-.484-1.18l-.825-.825c-.306-.292-.722-.472-1.18-.472s-.874.18-1.181.473l.001-.001-.825.825a.663.663 0 01-.94 0 .515.515 0 00-.881.365c0 .143.058.272.151.365a1.667 1.667 0 002.36 0l.82-.845a.663.663 0 01.94 0l.83.845a.663.663 0 010 .94l-.825.825c-.754.752-1.795 1.218-2.945 1.218s-2.191-.465-2.945-1.218l-3.3-3.3c-.752-.754-1.218-1.795-1.218-2.945s.465-2.191 1.218-2.945l.825-.825a.663.663 0 01.94 0l.825.825a.663.663 0 010 .94l-.845.805a1.667 1.667 0 000 2.36l2 2a.5.5 0 10.73-.68l-2-2a.663.663 0 010-.94zM20 23.5a.5.5 0 000-1H10a.5.5 0 00-.5.5v2a.5.5 0 00.5.5h10a.5.5 0 000-1h-9.5v-1zm-9.5 3a.5.5 0 000 1h7a.5.5 0 000-1z"/></symbol><symbol id="place" viewBox="0 0 32 32"><path d="M22.563 10.375c0-3.628-2.945-6.625-6.563-6.625-3.613 0-6.563 2.993-6.563 6.625 0 3.619 2.944 6.563 6.563 6.563s6.563-2.944 6.563-6.563zm-11.25 0c0-2.619 2.103-4.75 4.688-4.75s4.688 2.131 4.688 4.75c0 2.585-2.103 4.688-4.688 4.688s-4.688-2.103-4.688-4.688z"/><path d="M26.313 10.375C26.313 4.687 21.695 0 16 0 10.624 0 5.687 4.295 5.687 10.375c0 3.791 3.712 9.519 5.915 12.667-2.45.492-5.915 1.764-5.915 4.27C5.687 30.896 12.363 32 16 32s10.313-1.103 10.313-4.688c0-2.507-3.466-3.778-5.915-4.27 2.192-3.132 5.915-8.872 5.915-12.667zm-18.75 0c0-5.25 4.38-8.5 8.438-8.5 4.652 0 8.438 3.813 8.438 8.5 0 3.97-5.548 11.796-8.438 15.447-2.89-3.649-8.437-11.474-8.437-15.447zm16.875 16.938c0 1.566-4.591 2.813-8.438 2.813-3.841 0-8.438-1.247-8.438-2.813 0-.746 1.675-2.04 5.255-2.58a76.646 76.646 0 002.461 3.178.935.935 0 001.443.001l.001-.002a77.689 77.689 0 002.461-3.178c3.58.54 5.255 1.834 5.255 2.58z"/></symbol><symbol id="up-arrow" viewBox="0 0 32 32"><path d="M31.609 22.391L16.943 7.725a1.332 1.332 0 00-1.885 0L.392 22.391a1.332 1.332 0 101.885 1.885l13.724-13.724 13.724 13.724a1.33 1.33 0 001.886 0 1.332 1.332 0 000-1.885z"/></symbol><symbol id="viber" viewBox="0 0 32 32"><path fill="var(--color28, #665cac)" d="M19.2 0h-6.401C6.622 0 1.598 5.025 1.598 11.201v4.801c0 4.336 2.501 8.271 6.401 10.123v5.346c0 .464.581.707.911.377l4.644-4.644H19.2c6.177 0 11.201-5.025 11.201-11.201v-4.801C30.401 5.025 25.376.001 19.2.001z"/><path fill="var(--color29, #523494)" d="M9.599 26.125a11.206 11.206 0 01-6.401-10.123v-4.801C3.198 5.025 8.223 0 14.399 0h-1.6C6.622 0 1.598 5.025 1.598 11.201v4.801c0 4.336 2.501 8.271 6.401 10.123v5.346c0 .464.581.707.911.377l.69-.69v-5.034z"/><path fill="var(--color8, #fff)" d="M24.053 19.881l-.48-2.598a.537.537 0 00-.416-.426l-.003-.001-3.772-.754a.533.533 0 00-.482.146l-1.532 1.532c-2.582-1.157-4.015-2.593-5.275-5.285l1.527-1.527a.53.53 0 00.145-.485l.001.003-.754-3.772a.534.534 0 00-.423-.419l-.003-.001-2.598-.479a.492.492 0 00-.219.005l.004-.001a3.726 3.726 0 00-1.81 1c-.863.863-1.192 2.121-.953 3.64.401 2.55 1.651 6.1 3.956 8.414l.031.031c2.313 2.304 5.862 3.553 8.413 3.955.321.051.631.076.927.076 1.106 0 2.032-.349 2.713-1.029a3.724 3.724 0 00.995-1.785l.005-.025a.54.54 0 00.004-.219l.001.003z"/><path fill="var(--color30, #e5e5e5)" d="M13.098 11.49l.522-.522-.522.522zm5.275 5.285l.527-.527-.527.527zm2.969 5.154c-.297 0-.606-.025-.927-.076-2.55-.401-6.1-1.651-8.413-3.955l-.031-.031c-2.305-2.315-3.555-5.864-3.956-8.414-.193-1.227-.015-2.284.516-3.1a3.754 3.754 0 00-.569.466c-.863.863-1.192 2.121-.953 3.64.401 2.55 1.651 6.1 3.956 8.414l.031.031c2.313 2.304 5.862 3.553 8.413 3.955.321.051.631.076.927.076 1.106 0 2.032-.349 2.713-1.029a3.8 3.8 0 00.457-.555l.008-.013c-.602.392-1.336.592-2.173.592z"/><path fill="var(--color8, #fff)" d="M17.067 9.068a.533.533 0 100 1.066c1.177 0 2.134.957 2.134 2.134 0 .291.243.533.533.533s.533-.243.533-.533c0-1.765-1.436-3.2-3.2-3.2z"/><path fill="var(--color8, #fff)" d="M17.067 6.934c-.197 0-.396.011-.592.032a.534.534 0 00.117 1.061 4.272 4.272 0 014.716 4.716c-.032.289.183.557.472.589s.557-.183.589-.472a5.34 5.34 0 00-5.302-5.926z"/><path fill="var(--color8, #fff)" d="M17.067 4.801c-.191 0-.384.007-.574.022a.534.534 0 00-.493.532l.002.042v-.002a.534.534 0 00.572.492 6.408 6.408 0 016.723 7.859.539.539 0 00.378.637.538.538 0 00.66-.392c.127-.517.2-1.11.2-1.72v-.003c0-4.118-3.35-7.468-7.468-7.468z"/></symbol><symbol id="whatsapp" viewBox="0 0 32 32"><path fill="var(--color30, #e5e5e5)" d="M.743 32a.681.681 0 01-.656-.865l-.001.005 2.08-7.597a15.878 15.878 0 01-1.977-7.681C.193 7.116 7.31 0 16.056 0c4.242.002 8.228 1.654 11.224 4.652s4.644 6.984 4.643 11.222c-.004 8.747-7.122 15.863-15.867 15.863h-.007a15.904 15.904 0 01-7.342-1.803L.915 31.977a.678.678 0 01-.173.022z"/><path fill="var(--color31, #64b161)" d="M1.272 30.789l2.08-7.595a14.628 14.628 0 01-1.957-7.327c.003-8.081 6.58-14.655 14.66-14.655 3.922.002 7.603 1.528 10.37 4.298s4.291 6.453 4.29 10.369c-.003 8.081-6.58 14.656-14.659 14.656-.001 0 0 0 0 0h-.007a14.658 14.658 0 01-7.005-1.784z"/><path fill="var(--color8, #fff)" d="M.743 31.319l2.154-7.867a15.153 15.153 0 01-2.027-7.59C.873 7.491 7.685.681 16.056.681c4.062.002 7.875 1.583 10.742 4.452s4.445 6.684 4.444 10.741c-.004 8.371-6.817 15.182-15.186 15.182h-.007a15.173 15.173 0 01-7.257-1.848zm8.424-4.859l.461.273a12.603 12.603 0 006.424 1.759h.005c6.957 0 12.619-5.661 12.622-12.619.001-3.372-1.31-6.543-3.693-8.928s-5.552-3.699-8.924-3.701c-6.962 0-12.624 5.66-12.627 12.618a12.58 12.58 0 001.93 6.715l.3.477L4.39 27.71z"/><path fill="var(--color8, #fff)" d="M12.261 9.515c-.284-.632-.584-.645-.854-.655-.221-.01-.474-.009-.727-.009s-.664.095-1.012.475-1.328 1.298-1.328 3.165 1.36 3.671 1.55 3.925c.19.253 2.625 4.207 6.482 5.728 3.205 1.264 3.858 1.013 4.553.95s2.245-.918 2.561-1.804c.316-.886.316-1.645.221-1.804-.095-.158-.348-.253-.727-.443s-2.245-1.108-2.593-1.234c-.348-.127-.601-.19-.854.19s-.98 1.234-1.201 1.487c-.221.254-.443.285-.822.095s-1.602-.591-3.051-1.883c-1.128-1.006-1.89-2.248-2.111-2.628s-.004-.567.167-.774c.307-.373.822-1.044.948-1.297s.063-.475-.031-.665c-.095-.19-.832-2.066-1.17-2.817z"/></symbol><symbol id="zoom" viewBox="0 0 32 32"><path fill="var(--color32, #4fbfa8)" d="M24.048 21.953l-2.093 2.093-2.204-2.204 2.093-2.093z"/><path fill="var(--color33, #65c5b8)" d="M21.466 3.68c-4.9-4.906-12.88-4.906-17.786 0-4.9 4.9-4.9 12.88 0 17.786 4.9 4.9 12.88 4.9 17.786 0s4.9-12.886 0-17.786z"/><path fill="var(--color34, #41596b)" d="M31.046 26.435l-3.968-3.968c-1.272-1.272-3.332-1.272-4.604 0s-1.272 3.332 0 4.604l3.968 3.968a3.254 3.254 0 004.604 0 3.265 3.265 0 000-4.604z"/><path fill="var(--color35, #334a5e)" d="M31.046 31.046a3.254 3.254 0 01-4.604 0l4.604-4.604a3.265 3.265 0 010 4.604z"/><path fill="var(--color8, #fff)" d="M19.589 19.589c-3.867 3.867-10.165 3.873-14.033 0-3.867-3.867-3.867-10.165 0-14.039 3.867-3.867 10.165-3.867 14.033 0 3.867 3.873 3.867 10.165 0 14.039z"/><path fill="var(--color34, #41596b)" d="M9.701 15.993l-3.477-3.477 3.477-3.477.869.869-2.607 2.607 2.607 2.607zm5.744 0l-.875-.869 2.607-2.607L14.57 9.91l.875-.869 3.477 3.477zm-3.3.711l-1.195-.308 2.051-7.958 1.195.308z"/></symbol></defs></svg>