<svg height="512" viewBox="0 0 56 60" width="512" xmlns="http://www.w3.org/2000/svg"><g id="077---Down-Arrow" fill="none"><g id="Icons" transform="translate(0 1)"><path id="Shape" d="M55 14.29a1 1 0 01-.2.6l-25.99 34.7a1.005 1.005 0 01-1.62 0l-.69-.92L1.2 14.89a1 1 0 01-.2-.6.842.842 0 01.07-.35.987.987 0 011.28-.61l16.59 5.86 1.72.61a1 1 0 001.34-.95V1.01A1 1 0 0123 0h10a1 1 0 011 1.01v17.84a.934.934 0 00.06.34.991.991 0 001.28.61l16.59-5.86 1.72-.61a1.009 1.009 0 011.35.96z" fill="#e8edfc"/><path id="Shape" d="M31 1.01v17.84a.934.934 0 00.06.34.991.991 0 001.28.61l1.721-.608a.934.934 0 01-.06-.34V1.01A1 1 0 0033 0h-3a1 1 0 011 1.01zm22.65 12.32l-1.72.61c.044.112.068.23.07.35a1 1 0 01-.2.6L26.5 48.669l.69.92a1.005 1.005 0 001.62 0L54.8 14.89a1.013 1.013 0 00-1.15-1.56z" fill="#cad9fc"/><path id="Shape" d="M28 50v8a1.013 1.013 0 01-.81-.41L1.2 22.89a.987.987 0 01-.16-.88L1 22v-7.71a1 1 0 00.2.6l25.99 34.7c.19.257.49.409.81.41z" fill="#a4c2f7"/><path id="Shape" d="M55 22l-.04.01a.99.99 0 01-.16.88l-25.99 34.7A1.01 1.01 0 0128 58v-8c.32-.001.62-.153.81-.41L52 18.63l2.8-3.74a1 1 0 00.2-.6z" fill="#7facfa"/></g><g id="Layer_3" fill="#fff" transform="translate(0 1)"><path id="Shape" d="M23.66 19.8a1 1 0 001.34-.95V1.01A1 1 0 0126 0h-3a1 1 0 00-1 1.01c0 19.176.035 17.9-.064 18.178.142.048-.493-.174 1.724.612zm26.99-6.47L37 18.151c0 .767-.015.851.06 1.039l14.869-5.252a.987.987 0 00-1.279-.608zm3.779.042zm-.779-.042zm.816.064zM1.2 22.89l25.99 34.7c.19.257.49.409.81.41.612 0 .78-.37 1.5-1.331L4.2 22.89c-.305-.407-.2-.165-.2-8.6a.844.844 0 01.071-.352L2.35 13.33a.987.987 0 00-1.28.61C.97 14.165 1 13.521 1 22l.04.01a.99.99 0 00.16.88z"/></g><path id="Rectangle-path" d="M2.598 23.092h2v8h-2z" fill="#fff" transform="rotate(-36.82 3.603 27.114)"/><g fill="#428dff"><path id="Shape" d="M27.866 43.4l-3.746-5a1 1 0 00-1.6 1.2l3.746 5a1 1 0 001.6-1.2zm-16.48-22a1 1 0 00-1.6 1.2l8.989 12a1 1 0 001.6-1.2zM26 20a1 1 0 001-1v-3a1 1 0 00-2 0v3a1 1 0 001 1zm0-7a1 1 0 001-1V5a1 1 0 00-2 0v7a1 1 0 001 1zM3.617 28.092a1 1 0 110-2 1 1 0 010 2z"/><path id="Shape" d="M.4 24.49a.991.991 0 001.385.2c.421-.316.53-.902.248-1.347 0-.039.008-.331-.015-4.693C28.14 53.516 26.454 51.4 27 51.718v4.95L6.8 29.694a1 1 0 10-1.6 1.2l21.2 28.3a2 2 0 003.219 0L55.6 24.49a2.143 2.143 0 00.4-1.551v-7.663a2 2 0 00-2.682-1.884L35 19.849V2.014A2.009 2.009 0 0033 0H23a2.009 2.009 0 00-2 2.014l-.009 17.842L2.692 13.4a2 2 0 00-2.685 1.9H0c.05 9.157-.07 8.566.4 9.19zM29 56.671v-4.952c.565-.329-1.275 1.979 25-33.1 0 5.09-.005 4.414.01 4.514.026.185 1.781-2.233-25.01 33.538zm-8.688-34.933A2 2 0 0023 19.849V2l10 .014v17.835a2 2 0 002.675 1.894l18.311-6.467c0-.1.137-.154-25.99 34.712L2.014 15.276z"/></g></g></svg>