<svg height="512" viewBox="0 0 51 60" width="512" xmlns="http://www.w3.org/2000/svg"><g id="001---Down-Arrow" transform="translate(0 -1)"><path id="Shape" d="M20.054 60.157a2.008 2.008 0 002.566.616l26.674-14.364a2.008 2.008 0 00-.188-3.587l-8.1-3.5V10.68a1.988 1.988 0 00-1.212-1.84l-17.95-7.679a1.976 1.976 0 00-1.75.085l-8.072 4.481a2.038 2.038 0 00-1.03 1.753v18.973a2.02 2.02 0 00-1.478.173l-7.6 4.228a1.991 1.991 0 00-.662 2.906zM21.685 59L4.316 34.617l5.872 2.539A2.008 2.008 0 0013 35.32V8.409l17.009 7.269V44.32c-.002.4.117.793.34 1.126.453.659.068.371 8.921 4.2zm17.32-19.608l-7 3.882V15.607l7-3.886zm9.31 5.274l-6.8 3.771-8.254-3.573 6.8-3.77zM21.057 3l16.679 7.137-6.789 3.769-16.691-7.133zM10.49 28.375l.5.2v6.742l-7.307-3.16z"/><path id="Shape" d="M16 12a1 1 0 00-1 1v14a1 1 0 002 0V13a1 1 0 00-1-1zm0 19a1 1 0 00-1 1v3a1 1 0 002 0v-3a1 1 0 00-1-1z"/></g></svg>