<svg height="512" viewBox="0 0 51 60" width="512" xmlns="http://www.w3.org/2000/svg"><g id="001---Down-Arrow" fill="none"><g id="Icons" transform="translate(1)"><path id="Shape" d="M47.71 42.74L39 38.98l.01-29.3a.936.936 0 00-.18-.56.951.951 0 00-.43-.36L20.45 1.08a.986.986 0 00-.87.04c-1.49.83-6.46 3.59-8.07 4.48a.891.891 0 00-.36.36.931.931 0 00-.15.52l-.01 19.9v.53l-1.12-.46a1.02 1.02 0 00-.87.05l-7.6 4.23a.98.98 0 00-.51.74v.01a.992.992 0 00.18.7l18.8 26.4a1 1 0 001.28.31l19.42-10.34 7.23-4.01a1.008 1.008 0 00-.09-1.8z" fill="#ffdc00"/><g fill="#ff9801"><path id="Shape" d="M10.99 26.91v7.41a1 1 0 01-1.4.92l-8.7-3.76v-.01a.98.98 0 01.51-.74L9 26.5a1.02 1.02 0 01.87-.05zM38.83 9.12l-8.82 4.9-.17-.07-18.69-7.99a.891.891 0 01.36-.36c1.06-.59 3.57-1.98 5.59-3.1 1.05-.58 1.97-1.09 2.48-1.38a.986.986 0 01.87-.04L38.4 8.76c.176.074.326.2.43.36z"/><path id="Shape" d="M39.01 9.68L39 38.98l-8.83 4.9a.539.539 0 01-.07-.13.907.907 0 01-.1-.43l.01-29.3 5.9-3.27v-.01l2.92-1.62a.936.936 0 01.18.56z"/></g><path id="Shape" d="M38.83 9.12l-2.82 1.565L36 38.98l-6 3.329v1.011a.907.907 0 00.1.43c.017.046.04.09.07.13l8.83-4.9.01-29.3a.936.936 0 00-.18-.56z" fill="#f57c00"/><path id="Shape" d="M47.8 44.54l-2.53 1.41-4.7 2.6-9.97-4.31a.826.826 0 01-.22-.14.883.883 0 01-.21-.22l8.83-4.9 8.71 3.76a1.008 1.008 0 01.09 1.8z" fill="#ff9801"/></g><g id="Layer_10" fill="#000" transform="translate(0 -1)"><path id="Shape" d="M20.054 60.157a2.008 2.008 0 002.566.616l26.674-14.364a2.008 2.008 0 00-.188-3.587l-8.1-3.5V10.68a1.988 1.988 0 00-1.212-1.84l-17.95-7.679a1.976 1.976 0 00-1.75.085l-8.072 4.481a2.038 2.038 0 00-1.03 1.753v18.973a2.02 2.02 0 00-1.478.173l-7.6 4.228a1.991 1.991 0 00-.662 2.906zM21.685 59L4.316 34.617l5.872 2.539A2.008 2.008 0 0013 35.32V8.409l17.009 7.269V44.32c-.002.4.117.793.34 1.126.453.659.068.371 8.921 4.2zm17.32-19.608l-7 3.882V15.607l7-3.886zm9.31 5.274l-6.8 3.771-8.254-3.573 6.8-3.77zM21.057 3l16.679 7.137-6.789 3.769-16.691-7.133zM10.49 28.375l.5.2v6.742l-7.307-3.16z"/><path id="Shape" d="M16 12a1 1 0 00-1 1v14a1 1 0 002 0V13a1 1 0 00-1-1zm0 19a1 1 0 00-1 1v3a1 1 0 002 0v-3a1 1 0 00-1-1z"/></g></g></svg>