<svg height="512" viewBox="0 0 50 60" width="512" xmlns="http://www.w3.org/2000/svg"><g fill="#000" fill-rule="nonzero"><path d="M47 0H6a6.006 6.006 0 00-6 6v44c-.003.196.005.391.024.586A6.167 6.167 0 006.21 56H10v2a1.977 1.977 0 001.015 1.741c.626.36 1.398.35 2.014-.026L16 57.931l2.97 1.782A2 2 0 0022 58v-2h25a3 3 0 003-3V3a3 3 0 00-3-3zM20 58l-2.972-1.783a2 2 0 00-2.057 0L12 58v-7h8zm2-7h3a1 1 0 000-2H8a1 1 0 000 2h2v3H6.21a4.156 4.156 0 01-4.2-3.627A3.113 3.113 0 012 50a4.016 4.016 0 014-4h37a8.493 8.493 0 000 8H22zm25 3h-1c-.944 0-2-1.711-2-4s1.056-4 2-4h1c.35-.002.695-.094 1-.268V53a1 1 0 01-1 1zm0-10H8v-1a1 1 0 00-2 0v1a5.961 5.961 0 00-4 1.539V6a4 4 0 014-4v1a1 1 0 102 0V2h39a1 1 0 011 1v39a2.7 2.7 0 01-1 2z"/><path d="M7 6a1 1 0 00-1 1v2a1 1 0 102 0V7a1 1 0 00-1-1zM7 12a1 1 0 00-1 1v2a1 1 0 002 0v-2a1 1 0 00-1-1zM7 18a1 1 0 00-1 1v2a1 1 0 002 0v-2a1 1 0 00-1-1zM7 24a1 1 0 00-1 1v2a1 1 0 002 0v-2a1 1 0 00-1-1zM7 30a1 1 0 00-1 1v2a1 1 0 002 0v-2a1 1 0 00-1-1zM7 36a1 1 0 00-1 1v2a1 1 0 002 0v-2a1 1 0 00-1-1zM16.951 23l4.327-5.048a3 3 0 10-4.556-3.9l-6 7a2.983 2.983 0 000 3.9l6 7a3 3 0 004.555-3.905zm2.7 7.759a1 1 0 01-1.411-.108l-6-7a.994.994 0 010-1.3l6-7a1 1 0 111.519 1.3l-4.884 5.7a1 1 0 000 1.3l4.884 5.7a1 1 0 01-.108 1.408zM39.277 14.047a3 3 0 00-4.555 3.905L39.049 23l-4.327 5.048a3 3 0 104.556 3.9l6-7c.97-1.12.97-2.784 0-3.905zm4.483 9.6l-6 7a1 1 0 11-1.519-1.3l4.884-5.7a1 1 0 000-1.3l-4.884-5.7a1 1 0 011.518-1.3l6 7c.325.374.326.93.001 1.304zM29.492 11.041a3 3 0 00-3.451 2.466l-3 18a3 3 0 105.918.986l3-18a3 3 0 00-2.467-3.452zm-2.506 21.123a1 1 0 11-1.972-.329l3-18a1 1 0 111.972.329z"/></g></svg>