<svg height="512pt" viewBox="0 0 512 512" width="512pt" xmlns="http://www.w3.org/2000/svg"><path d="M474.055 40.36l-2.414-2.415c-50.59-50.593-132.91-50.593-183.504 0L201.3 124.781a130.174 130.174 0 00-29.938 46.645c-17.004 6.285-32.945 16.238-46.582 29.875l-86.836 86.836c-50.593 50.593-50.593 132.914 0 183.504l2.414 2.414C65.652 499.352 98.883 512 132.11 512c33.23 0 66.457-12.648 91.754-37.945l86.836-86.836a130.164 130.164 0 0029.934-46.645c17.004-6.285 32.949-16.238 46.586-29.875l86.836-86.836c50.593-50.593 50.593-132.914 0-183.504zM289.539 366.058l-86.836 86.84c-38.926 38.921-102.262 38.921-141.187 0l-2.414-2.415c-38.922-38.925-38.922-102.265 0-141.187l86.84-86.836c38.921-38.926 102.257-38.926 141.183-.004l2.414 2.418a100.269 100.269 0 0120.531 29.766 40.757 40.757 0 01-14.601 2.695c-10.899 0-21.145-4.246-28.852-11.953a15.594 15.594 0 00-1.531-1.317c-13.184-12.468-30.336-19.324-48.55-19.324-18.891 0-36.653 7.356-50.013 20.715l-84.421 84.422c-13.36 13.36-20.72 31.121-20.72 50.012s7.36 36.652 20.72 50.011c13.355 13.36 31.117 20.715 50.011 20.715 18.89 0 36.653-7.355 50.008-20.715l84.488-84.488a130.734 130.734 0 0028.86 3.23c2.71 0 5.422-.093 8.129-.261a100.314 100.314 0 01-14.059 17.676zm44.547-130.442a130.445 130.445 0 00-23.383-31.898l-2.418-2.418a129.31 129.31 0 00-31.902-23.387l74.656-74.652c7.707-7.707 17.953-11.953 28.852-11.953s21.144 4.246 28.851 11.949c7.688 7.691 11.922 17.937 11.922 28.851 0 10.918-4.23 21.164-11.922 28.852zM177.914 276.38a130.306 130.306 0 0023.387 31.902l2.414 2.418a129.382 129.382 0 0031.902 23.387l-74.656 74.652c-7.707 7.707-17.953 11.953-28.852 11.953s-21.144-4.246-28.847-11.949c-7.707-7.71-11.953-17.957-11.953-28.851 0-10.899 4.246-21.145 11.953-28.852zm274.984-73.676l-86.84 86.836c-38.925 38.926-102.261 38.926-141.183.004l-2.414-2.418a100.319 100.319 0 01-20.531-29.766 40.762 40.762 0 0114.605-2.695c10.895 0 21.14 4.246 28.848 11.953.484.485 1.004.914 1.531 1.317 13.184 12.468 30.336 19.324 48.555 19.324 18.89 0 36.652-7.356 50.008-20.715l84.425-84.422c13.34-13.344 20.688-31.101 20.688-50.012 0-18.906-7.348-36.668-20.692-50.011-13.355-13.356-31.117-20.715-50.007-20.715-18.895 0-36.657 7.36-50.012 20.719L245.39 166.59a130.809 130.809 0 00-36.989-2.973 100.277 100.277 0 0114.059-17.676l86.836-86.84c38.926-38.921 102.262-38.921 141.183 0l2.415 2.415c38.925 38.925 38.925 102.261.003 141.187zm0 0"/></svg>