<svg xmlns="http://www.w3.org/2000/svg" viewBox="0 0 508.075 508.075"><path fill="#4fbfa8" d="M381.817 348.554l-33.234 33.233-35.001-35.001 33.234-33.234z"/><path d="M340.825 58.425c-77.8-77.9-204.5-77.9-282.4 0-77.8 77.8-77.8 204.5 0 282.4 77.8 77.8 204.5 77.8 282.4 0s77.8-204.6 0-282.4z" fill="#65c5b8"/><path d="M492.925 419.725l-63-63c-20.2-20.2-52.9-20.2-73.1 0s-20.2 52.9 0 73.1l63 63c20.2 20.2 52.9 20.2 73.1 0 20.1-20.1 20.1-52.9 0-73.1z" fill="#41596b"/><path d="M492.925 492.925c-20.2 20.2-52.9 20.2-73.1 0l73.1-73.1c20.1 20.1 20.1 52.9 0 73.1z" fill="#334a5e"/><path d="M311.025 311.025c-61.4 61.4-161.4 61.5-222.8 0-61.4-61.4-61.4-161.4 0-222.9 61.4-61.4 161.4-61.4 222.8 0 61.4 61.5 61.4 161.4 0 222.9z" fill="#fff"/><g fill="#41596b"><path d="M154.025 253.925l-55.2-55.2 55.2-55.2 13.8 13.8-41.4 41.4 41.4 41.4zM245.225 253.925l-13.9-13.8 41.4-41.4-41.4-41.4 13.9-13.8 55.2 55.2zM192.832 265.208l-18.977-4.892 32.57-126.358 18.979 4.892z"/></g></svg>