<svg aria-hidden="true" style="position:absolute;width:0;height:0" xmlns="http://www.w3.org/2000/svg" overflow="hidden"><defs><symbol id="instagram" viewBox="0 0 32 32"><path fill="var(--color1, #000)" d="M2 2.177C-.515 4.789 0 7.564 0 15.993c0 7-1.221 14.017 5.171 15.669 1.996.513 19.681.513 21.675-.003 2.661-.687 4.827-2.845 5.123-6.609.041-.525.041-17.58-.001-18.116-.315-4.009-2.783-6.32-6.035-6.788-.745-.108-.895-.14-4.719-.147C7.65.006 4.677-.598 2.001 2.176z"/><path fill="var(--color2, #fff)" d="M15.997 4.185c-4.841 0-9.439-.431-11.195 4.076-.725 1.861-.62 4.279-.62 7.74 0 3.037-.097 5.892.62 7.739 1.752 4.509 6.387 4.077 11.192 4.077 4.636 0 9.416.483 11.193-4.077.727-1.88.62-4.261.62-7.739 0-4.616.255-7.596-1.984-9.833-2.267-2.267-5.332-1.983-9.832-1.983zm-1.058 2.13c10.099-.016 11.384-1.139 10.675 14.457-.252 5.516-4.452 4.911-9.615 4.911-9.413 0-9.684-.269-9.684-9.687 0-9.527.747-9.676 8.624-9.684zm7.365 1.961a1.417 1.417 0 000 2.834 1.417 1.417 0 000-2.834zm-6.307 1.657a6.067 6.067 0 000 12.134h.001a6.067 6.067 0 000-12.134h-.001zm0 2.13c5.207 0 5.213 7.877 0 7.877-5.205 0-5.213-7.877 0-7.877z"/></symbol><symbol id="facebook" viewBox="0 0 32 32"><path fill="var(--color3, #4267b2)" d="M30.234 0H1.765A1.766 1.766 0 000 1.766v28.469A1.766 1.766 0 001.766 32h28.467c.975 0 1.766-.79 1.766-1.766V1.764c0-.975-.791-1.765-1.766-1.765z"/><path fill="var(--color2, #fff)" d="M22.094 32V19.625h4.172l.625-4.844h-4.797v-3.085c0-1.399.388-2.352 2.395-2.352h2.543V5.023c-.442-.059-1.96-.19-3.726-.19-3.688 0-6.211 2.25-6.211 6.384v3.565h-4.156v4.844h4.156v12.375z"/></symbol><symbol id="github" viewBox="0 0 32 32"><path d="M.245 13.949C-.794 20.49 2.113 28.38 11.076 31.29c.16.029.308.043.447.043 1.043 0 1.76-.776 1.76-1.733-.129-.697.511-3.523-1.227-3.143-3.359.715-3.761-1.161-4.273-2.143 1.448 1.859 3.624 1.812 5.265 1.092.911-.4.435-1.419.867-1.791a1 1 0 00-.538-1.752h-.005c-3.085-.34-5.943-1.335-5.943-6.269 0-2.891 2.007-3.149 1.453-4.359-.02-.044-.444-1.005-.06-2.465 1.892.349 2.763 1.707 3.671 1.463a13.45 13.45 0 016.973 0c.939.252 1.609-1.068 3.651-1.471.588 2.205-.631 2.744.137 3.569.843.907 1.271 2.004 1.271 3.263 0 7.419-6.289 5.276-6.801 6.96a.996.996 0 00.311 1.054l.002.001c.813.684.707 2.44.62 3.852-.089 1.464-.167 2.727.643 3.439.285.253.793.524 1.712.337 8.845-2.841 11.773-10.696 10.751-17.223C28.968-3.81 3.062-3.789.246 13.947zm11.027 14.638l.005.673c-.781-.27-1.43-.551-2.055-.872l.089.041a6.174 6.174 0 001.961.157zm.493-4.934l-.02.107c-1.137.336-2.012.001-2.609-1.003l-.001-.003c.907.485 1.841.747 2.631.899zM16 2.667c15.777 0 19.336 21.689 4.625 26.588-.051-.396-.004-1.143.028-1.669.077-1.268.168-2.745-.284-3.98 6.784-1.412 7.351-8.861 4.739-12.18.324-1.269.193-4.252-.972-4.617-.275-.087-1.74-.405-4.583 1.383-1.074-.265-2.306-.417-3.574-.417s-2.5.152-3.68.438l.106-.022c-1.419-.889-4.616-2.336-5.229-.8-.712 1.789-.543 3.236-.331 4.04-2.319 2.939-1.624 7.859.712 10.168-1.324-.633-3.148-.849-3.541.419-.431 1.383 1.216 1.215 2.239 3.739.097.315.277.684.553 1.051-9.081-7.42-4.7-24.14 9.192-24.14z"/></symbol><symbol id="linkedin" viewBox="0 0 32 32"><path d="M16 0C7.165 0 0 7.165 0 16s7.165 16 16 16 16-7.165 16-16S24.835 0 16 0zm-4.649 24.188H7.454V12.465h3.897zM9.402 10.863h-.025c-1.308 0-2.153-.9-2.153-2.025 0-1.15.872-2.026 2.205-2.026s2.153.875 2.179 2.026c0 1.125-.846 2.025-2.205 2.025zm15.999 13.325h-3.896v-6.272c0-1.576-.564-2.651-1.974-2.651-1.076 0-1.718.725-1.999 1.425-.103.25-.128.601-.128.951v6.547h-3.896s.051-10.624 0-11.723h3.896v1.66c.518-.799 1.444-1.935 3.512-1.935 2.564 0 4.486 1.675 4.486 5.276z"/></symbol></defs></svg>